<svg xmlns="http://www.w3.org/2000/svg" xmlns:xlink="http://www.w3.org/1999/xlink" width="336.587" height="120.91" viewBox="0 0 89.055 31.991"><defs><linearGradient xlink:href="#a" id="g" x1="47.621" x2="47.894" y1="-14.156" y2="-29.764" gradientTransform="translate(0 -.017)" gradientUnits="userSpaceOnUse"/><linearGradient id="a"><stop offset="0" style="stop-color:#03579d;stop-opacity:1"/><stop offset=".15" style="stop-color:#3da8e0;stop-opacity:1"/><stop offset=".5" style="stop-color:#0f65b2;stop-opacity:1"/><stop offset="1" style="stop-color:#0073b9;stop-opacity:1"/></linearGradient><linearGradient xlink:href="#b" id="h" x1="201.354" x2="179.839" y1="-21.452" y2="77.723" gradientTransform="matrix(.93202 0 0 1 12.554 0)" gradientUnits="userSpaceOnUse"/><linearGradient id="b"><stop offset="0" style="stop-color:#fff;stop-opacity:1"/><stop offset=".2" style="stop-color:#2d96cd;stop-opacity:1"/><stop offset="1" style="stop-color:#007ebf;stop-opacity:0"/></linearGradient><linearGradient xlink:href="#c" id="i" x1="76.512" x2="52.324" y1="116.656" y2="116.013" gradientTransform="matrix(5.03995 0 0 7.57965 30.173 187.42)" gradientUnits="userSpaceOnUse"/><linearGradient id="c"><stop offset="0" style="stop-color:#151c64;stop-opacity:1"/></linearGradient><linearGradient xlink:href="#d" id="k" x1="22.793" x2="87.097" y1="-28.587" y2="-28.587" gradientUnits="userSpaceOnUse"/><linearGradient id="d"><stop offset="0" style="stop-color:#04589d;stop-opacity:1"/><stop offset="1" style="stop-color:#003a5d;stop-opacity:1"/></linearGradient><linearGradient xlink:href="#d" id="l" x1="88.741" x2="96.811" y1="-22.991" y2="-22.991" gradientUnits="userSpaceOnUse"/><linearGradient id="e"><stop offset=".247" style="stop-color:#033d6a;stop-opacity:1"/><stop offset=".548" style="stop-color:#014b87;stop-opacity:.84090906"/></linearGradient><radialGradient xlink:href="#e" id="f" cx="93.373" cy="19.239" r="44.528" fx="93.373" fy="19.239" gradientTransform="rotate(6.72 -12.023 -230.354)scale(.43796 .612)" gradientUnits="userSpaceOnUse"/><filter id="j" width="1" height="1" x="0" y="0" style="color-interpolation-filters:sRGB"><feFlood flood-color="#8c9dfe" flood-opacity=".827" result="flood"/><feGaussianBlur in="SourceGraphic" result="blur" stdDeviation="0.001 0"/><feOffset in="blur" result="offset"/><feComposite in="flood" in2="offset" operator="out" result="comp1"/><feComposite in="comp1" in2="SourceGraphic" operator="atop" result="comp2"/></filter></defs><path d="m17.127-.151 69.805 15.515c1.986.442 3.508 4.197 3.508 8.441v.04c0 4.245-1.522 7.661-3.508 7.661H17.127c-8.312 0-15.742-7.819-15.742-17.532v-.091c0-9.713 7.43-15.881 15.742-14.034" style="fill:url(#f);stroke-width:.257081;stroke-linecap:round;stroke-linejoin:round;paint-order:stroke fill markers" transform="translate(-1.385 .484)"/><path d="m30.231-45.91 65.14 15.425c1.993.472 3.515 4.25 3.515 8.494v.04c0 4.244-1.522 7.661-3.514 7.661h-65.14c-8.312 0-15.794-7.865-15.794-17.634v-.092c0-9.77 7.482-15.862 15.793-13.894" style="fill:url(#g);stroke-width:.264583;stroke-linecap:round;stroke-linejoin:round;paint-order:stroke fill markers" transform="translate(-9.83 46.279)"/><path d="m91.52-50.149 356.799 94.69c4.196 1.113 12.334 9.018 12.312 19.445-.036 17.464-10.879 14.268-15.138 13.518L102.076 17.091c-16.09-2.83-62.633-8.383-62.633-46.04 0-22.858 35.507-25.597 52.077-21.2z" style="display:inline;opacity:.75;mix-blend-mode:normal;fill:url(#h);stroke:url(#i);stroke-width:0;stroke-miterlimit:33.6;stroke-dasharray:none;stroke-dashoffset:0;filter:url(#j)" transform="matrix(.1828 0 0 .158 3.605 9.27)"/><path d="M62.188-30.842a1.76 1.76 0 0 0-1.073.148q-.503.243-.868.78-.367.535-.576 1.381a8 8 0 0 0-.207 1.908q0 1.06.207 1.957.21.896.576 1.522.365.62.868.981a2.07 2.07 0 0 0 1.18.41l.053.003.106.008.106.008.105.008.053.004a1.76 1.76 0 0 0 1.041-.238q.473-.276.81-.814.335-.54.52-1.351.189-.81.188-1.81 0-1-.187-1.854a5.5 5.5 0 0 0-.521-1.47 3.4 3.4 0 0 0-.81-1.01 2.17 2.17 0 0 0-1.146-.502l-.053-.008-.106-.017a2 2 0 0 0-.159-.027l-.053-.008zm-39.13-6.209v12.241l1.014.076 2.457.184.773.058.193.014c1.618.121 2.845-.3 3.7-1.254.848-.946 1.267-2.312 1.267-4.108 0-1.778-.411-3.23-1.243-4.365-.841-1.15-2.027-1.854-3.577-2.104l-.19-.031-.772-.125-2.608-.422zm10.545 1.706v11.324l.869.065 4.898.366.636.047.158.012v-1.155l-.158-.013-.636-.053-3.73-.314v-3.788l3.377.383.64.073.158.018v-1.158l-.159-.02-.639-.078-3.377-.416v-3.766l3.66.557.636.097.158.025v-1.156l-.158-.026-.637-.103-4.827-.78zm6.884 1.114 3.167 10.961.74.056.302.022.583.044.144.01 2.922-9.822-.137-.022-.555-.09-.302-.05-.703-.113-2.102 7.26-2.18-7.952-.152-.025-.614-.1-.334-.053zm8.381 1.355v9.996l.678.05 3.839.288.501.037.125.01v-1.026l-.125-.01-.501-.043-2.927-.246v-3.35l2.65.301.503.057.124.015v-1.028l-.124-.016-.504-.062-2.649-.326v-3.33l2.872.437.501.076.125.02v-1.027l-.125-.02-.501-.08-3.784-.613zm5.994.97v9.474l.61.046 3.294.246.453.034.113.008v-.975l-.113-.01-.453-.038-2.473-.208v-8.346l-.12-.02-.48-.077-.222-.036zm11.058 1.789v8.512l.492.037.18.013.388.03.097.006v-3.072l.703.075.379.04.094.01q.45.048.793-.116.345-.167.55-.5.21-.336.315-.79.105-.452.105-1.002 0-.553-.105-1.027a3.3 3.3 0 0 0-.314-.865 1.9 1.9 0 0 0-.554-.645 1.8 1.8 0 0 0-.8-.33l-.094-.016-.38-.061-1.357-.22zm4.64.75v8.109l.446.033.123.01.353.026.088.006v-4.556l1.143 4.642.426.032.099.007.337.025.084.007 1.092-4.318v4.4l.407.03.113.008.322.024.08.006v-7.664l-.08-.012-.322-.053-.256-.041-.408-.066-1.418 5.571-1.464-6.037-.088-.014-.352-.057-.28-.046zm5.941.961v7.592l.391.03 2.24.167.294.022.074.005v-.787l-.074-.006-.294-.025-1.71-.144v-2.553l1.546.176.296.034.074.008v-.789l-.074-.009-.296-.036-1.546-.19v-2.539l1.677.256.295.045.073.01v-.787l-.073-.012-.295-.047-2.207-.357zm3.502.567v7.287l.36.027.132.01.285.02.071.006v-4.844l1.826 4.98.338.026.108.008.268.02.067.005v-6.986l-.067-.011-.268-.043-.116-.02-.337-.054v4.753l-1.835-5.05-.07-.01-.286-.047-.116-.019zm3.825.619v.746l.328.05.825.126v6.118l.32.024.116.009.252.019.063.004v-6.06l.793.122.246.037.061.01v-.72l-.061-.01-.246-.039-2.369-.383zm-21.374-2.555q.26.09.492.282.35.283.606.755.257.466.401 1.152.148.685.148 1.51a6.7 6.7 0 0 1-.148 1.475q-.144.651-.4 1.061a1.8 1.8 0 0 1-.607.608q-.233.135-.492.165a1.5 1.5 0 0 1-.5-.25 2.4 2.4 0 0 1-.623-.728q-.268-.47-.425-1.171a7.3 7.3 0 0 1-.154-1.556q0-.855.154-1.52.156-.664.425-1.066.27-.404.623-.585a1.2 1.2 0 0 1 .5-.132m-37.018-5.599 1.157.177c1.252.19 2.19.736 2.827 1.634q.944 1.334.943 3.474.001 2.175-.97 3.287c-.65.75-1.628 1.074-2.95.962l-1.007-.084zm41.64 6.347.673.103q.319.049.552.214t.37.423q.138.255.203.57.066.316.066.699t-.066.684q-.065.298-.2.524a.83.83 0 0 1-.37.328 1.03 1.03 0 0 1-.545.067l-.682-.08z" style="font-size:7.7611px;font-family:Inter;-inkscape-font-specification:Inter;fill:url(#k);stroke:none;stroke-width:.529167;stroke-linecap:round;stroke-linejoin:round;paint-order:stroke fill markers" transform="translate(-9.83 46.279)"/><path d="m27.686-24.463-3.413-.255v-12.137l3.56.576c1.545.25 2.728.953 3.568 2.101.829 1.134 1.24 2.584 1.24 4.359q.001 2.688-1.265 4.102c-.853.953-2.077 1.374-3.69 1.254m-2.054-1.445 1.97.166c1.298.11 2.26-.212 2.9-.956q.955-1.104.954-3.262.001-2.123-.928-3.443c-.626-.89-1.548-1.43-2.78-1.618l-2.116-.323zm9.012 1.965v-11.234l5.608.907v1.155l-4.443-.678v3.762l4.164.512v1.157l-4.164-.473v3.783l4.512.38v1.153zm7.874-9.96 2.49 9.1.097.009L47.49-33.1l.992.16-2.915 9.813-1.027-.077-3.12-10.878zM49.68-22.82v-9.926l4.4.712v1.025l-3.49-.532v3.328l3.27.402v1.027l-3.27-.372v3.346l3.545.299v1.024zm5.912.442v-9.411l.82.132v8.337l3.032.255v.975zm9.598-5.4a8.6 8.6 0 0 1 .188 1.852q0 .999-.188 1.808-.186.81-.52 1.35a2.4 2.4 0 0 1-.808.813 1.75 1.75 0 0 1-1.039.238 2.03 2.03 0 0 1-1.06-.399 3.1 3.1 0 0 1-.856-.974q-.363-.623-.57-1.512a8.7 8.7 0 0 1-.204-1.944q0-1.053.205-1.896.206-.84.569-1.373.36-.534.856-.777.493-.24 1.06-.147.564.09 1.039.483.472.388.808 1.009.334.613.52 1.469m-.623 3.24q.145-.647.145-1.467t-.145-1.5a4.2 4.2 0 0 0-.397-1.145 2.5 2.5 0 0 0-.598-.75 1.53 1.53 0 0 0-.749-.345 1.24 1.24 0 0 0-.762.117q-.354.18-.622.584-.268.402-.424 1.065-.154.666-.154 1.519t.154 1.554q.156.7.424 1.17.268.463.622.727.355.263.762.297.405.033.749-.167.345-.2.598-.605.255-.408.397-1.055m1.943 2.976v-8.461l1.827.296q.454.073.799.33.343.255.552.643t.314.865q.105.473.105 1.026 0 .549-.105 1.002t-.314.788q-.206.333-.55.5-.342.165-.79.117l-1.175-.125v3.069zm.663-3.922 1.154.134q.31.035.538-.067a.82.82 0 0 0 .365-.327q.135-.225.198-.52.066-.3.066-.681 0-.38-.066-.694a2 2 0 0 0-.2-.567 1.18 1.18 0 0 0-.912-.633l-1.143-.174zm3.921-3.797.718.116 1.644 6.788.056.005 1.584-6.262.657.106v7.657l-.514-.038v-5.852l-.045-.006-1.451 5.746-.52-.039-1.517-6.198-.048-.007v6.088l-.564-.042zm5.876 8.501v-7.55l2.57.415v.787l-2.042-.311v2.536l1.913.235v.788l-1.913-.217v2.55l2.075.175v.787zm6.554-6.49v6.98l-.442-.033-2.121-5.815-.039-.005v5.659l-.487-.037v-7.25l.471.077 2.132 5.873.037.003v-5.525zm.697.856v-.744l2.672.432v.719l-1.098-.168v6.055l-.431-.032v-6.088z" aria-label="DEVELOPMENT" style="font-size:7.7611px;font-family:Inter;-inkscape-font-specification:Inter;fill:#fff;stroke:#fff;stroke-width:.529167;stroke-linecap:round;stroke-linejoin:round;paint-order:stroke fill markers" transform="translate(-9.83 46.279)"/><path d="M88.784-28.828c-.024-.005-.043.03-.043.077v4.762c0 .047.02.088.043.09l.289.038.064.008.229.03.057.007c.024.003.042-.033.042-.08v-4.715c0-.047-.018-.088-.042-.093l-.057-.011-.23-.045-.063-.012zm2.136.414-.607-.117-.28-.054c-.16-.032-.29.207-.29.532v3.689c0 .325.13.606.29.626l.28.036.607.077.22.029.053.006c.154.021.28-.22.28-.539v-3.602c0-.318-.126-.6-.28-.63l-.052-.01h-.003l-.05-.01-.004-.001-.05-.01h-.005l-.05-.01-.005-.001-.048-.01zm.837.163c-.022-.005-.04.028-.04.074v4.573c0 .045.018.084.04.087l.267.034.058.007.212.028.053.006c.021.003.039-.03.039-.076v-4.53c0-.045-.018-.085-.04-.089l-.052-.01-.212-.041-.058-.012zm2.755.534c-.02-.004-.037.028-.037.072v4.397c0 .044.016.081.037.084l.246.031.055.007.196.025.048.007c.02.002.037-.03.037-.074v-4.358c0-.044-.017-.082-.037-.086l-.048-.009-.196-.038-.055-.01zm-1.601-.31c-.148-.03-.27.2-.269.513v3.545c0 .312.12.581.269.6l.256.032.562.072.203.026.05.007c.142.019.258-.214.258-.52v-3.465c0-.305-.116-.575-.259-.603l-.049-.01-.203-.038-.562-.11zm2.668.517c-.137-.027-.248.195-.248.496v3.41c0 .301.111.56.248.577l.239.03.52.067.188.024.045.006c.133.017.24-.207.24-.502v-3.337c0-.294-.107-.553-.24-.578l-.045-.01-.188-.036-.52-.1zm-5.013-.059.103.019c.067.012.122.185.122.386v2.284c0 .202-.055.357-.122.348l-.103-.015c-.068-.01-.123-.18-.123-.384v-2.294c0-.203.055-.356.123-.344m2.836.515.095.017c.063.011.113.177.113.37v2.196c0 .194-.05.344-.113.335l-.095-.013c-.063-.01-.113-.174-.113-.369v-2.205c0-.195.05-.343.113-.331m2.633.477.088.016c.058.01.104.17.104.357v2.113c0 .187-.046.33-.104.323l-.088-.012c-.058-.009-.105-.167-.105-.355v-2.122c0-.188.047-.33.105-.32m-7.256 4.16c-.021.003-.038.037-.038.082v4.76c0 .048.02.088.043.089l.289.012.064.003.229.01.057.002c.024 0 .042-.037.042-.084v-4.715c0-.047-.018-.086-.042-.089l-.053-.005-.233-.026-.069-.007-.284-.031zm1.255.136c-.16-.017-.291.233-.29.558v3.689c-.001.325.13.595.29.6l.278.013.608.026.22.01.053.001c.154.008.28-.245.28-.563v-3.602c0-.318-.126-.59-.28-.606l-.052-.005-.221-.024-.607-.066zm1.719.187c-.02.002-.036.035-.036.078v4.572c0 .046.018.083.04.084l.267.012.058.002.212.01.053.002c.021 0 .039-.036.039-.08v-4.53c0-.045-.018-.083-.04-.086l-.048-.005-.216-.023-.062-.007-.263-.029zm1.158.125c-.149-.017-.27.224-.269.537v3.544c0 .313.12.572.269.578l.256.01.562.024.203.01.05.001c.142.007.258-.236.258-.542v-3.464c0-.306-.116-.567-.259-.582l-.049-.005-.203-.022-.562-.06zm1.597.173c-.018.002-.033.035-.033.076v4.397c0 .044.016.08.037.08l.246.011.055.003.196.008.048.002c.02 0 .037-.034.037-.077v-4.358c0-.043-.017-.08-.037-.082l-.045-.005-.2-.022-.057-.006-.243-.026zm1.071.117c-.137-.016-.248.216-.248.517v3.41c0 .301.111.55.248.555l.239.01.52.023.188.008.045.002c.133.006.24-.228.24-.523v-3.336c0-.295-.107-.545-.24-.559l-.045-.005-.188-.02-.52-.057zm-5.013.37.103.01c.067.006.122.174.122.376v2.283c0 .202-.055.361-.122.358l-.103-.006c-.068-.004-.123-.17-.123-.373v-2.294c0-.203.055-.36.123-.354m2.836.272.095.009c.063.006.113.167.113.361v2.195c0 .194-.05.348-.113.344l-.095-.005c-.063-.003-.113-.163-.113-.358v-2.205c0-.195.05-.347.113-.341m2.633.252.088.009c.058.005.104.16.104.347v2.113c0 .187-.046.335-.104.332l-.088-.005c-.058-.003-.105-.157-.105-.345v-2.122c0-.188.047-.334.105-.329" style="display:inline;opacity:.362;fill:url(#l);fill-opacity:1;fill-rule:nonzero;stroke:none;stroke-width:.170256;stroke-linecap:square;stroke-linejoin:miter;stroke-dasharray:none;stroke-opacity:1;paint-order:normal" transform="translate(-9.83 46.279)"/><path d="M95.755 8.86c-.136-.014-.246.217-.246.516v3.396c0 .3.11.548.246.553l.752.032c.133.006.24-.228.24-.522V9.5c0-.295-.107-.545-.24-.559Zm.216.869.323.03c.058.006.104.16.104.347v2.104c0 .186-.046.333-.104.33l-.323-.017c-.058-.003-.105-.157-.105-.345v-2.12c0-.188.047-.335.105-.329m-1.274-.983.298.032c.02.002.036.04.036.083v4.354c0 .044-.016.078-.036.077l-.298-.013c-.02 0-.037-.036-.037-.08V8.821c0-.044.017-.077.037-.075m-1.588-.172c-.147-.017-.266.223-.266.535v3.528c0 .312.12.57.266.575l.812.035c.143.006.258-.237.258-.542V9.243c0-.306-.115-.566-.258-.58Zm.233.903.349.033c.062.006.112.167.112.36v2.185c0 .194-.05.347-.112.343l-.349-.019c-.062-.003-.113-.163-.113-.358V9.818c0-.195.05-.347.113-.341M91.966 8.45l.323.035c.021.002.039.04.039.086v4.526c0 .045-.018.08-.04.08l-.322-.014c-.022-.001-.04-.038-.04-.084V8.528c0-.046.018-.08.04-.078m-1.708-.185c-.159-.018-.288.231-.288.555v3.672c0 .324.13.592.288.598l.878.038c.155.007.28-.245.28-.563v-3.6c0-.318-.125-.589-.28-.605Zm.252.94.377.036c.067.007.121.174.121.375v2.273c0 .2-.054.36-.12.356l-.378-.02c-.067-.004-.122-.17-.122-.373V9.559c0-.202.055-.36.122-.354m-1.49-1.074.35.038c.023.002.041.042.041.089v4.711c0 .047-.018.084-.042.083l-.35-.015c-.023 0-.042-.04-.042-.087V8.211c0-.047.019-.083.043-.08m6.735-5.076c-.136-.027-.246.195-.246.494v3.396c0 .3.11.557.246.574l.752.096c.133.018.24-.207.24-.502V3.78c0-.294-.107-.553-.24-.578Zm.216.886.323.059c.058.01.104.169.104.355v2.104c0 .186-.046.33-.104.321l-.323-.045c-.058-.008-.105-.166-.105-.353V4.26c0-.188.047-.33.105-.32M94.697 2.85l.298.058c.02.004.036.042.036.086v4.354c0 .044-.016.077-.036.074l-.298-.038c-.02-.003-.037-.04-.037-.084V2.921c0-.044.017-.076.037-.072m-1.588-.307c-.147-.03-.266.2-.266.512v3.528c0 .312.12.58.266.598l.812.104c.143.019.258-.214.258-.52V3.302c0-.305-.115-.576-.258-.603Zm.233.923.349.063c.062.01.112.176.112.369v2.185c0 .194-.05.342-.112.334l-.349-.05c-.062-.008-.113-.172-.113-.367V3.796c0-.195.05-.343.113-.331M91.966 2.32l.323.062c.021.005.039.044.039.09v4.526c0 .045-.018.079-.04.076l-.322-.041c-.022-.003-.04-.042-.04-.087V2.394c0-.045.018-.078.04-.074m-1.708-.331c-.159-.031-.288.206-.288.53v3.672c0 .324.13.603.288.623l.878.113c.155.02.28-.222.28-.54v-3.6c0-.317-.125-.599-.28-.628Zm.252.962.377.068c.067.012.121.184.121.385v2.273c0 .2-.054.355-.12.346l-.378-.053c-.067-.01-.122-.18-.122-.383V3.294c0-.203.055-.356.122-.343m-1.49-1.202.35.067c.023.005.041.046.041.093v4.712c0 .047-.018.082-.042.08l-.35-.046c-.023-.003-.042-.043-.042-.09v-4.74c0-.047.019-.081.043-.076" style="display:inline;fill:#f1f1f1;fill-opacity:1;fill-rule:nonzero;stroke:none;stroke-width:.170256;stroke-linecap:square;stroke-linejoin:miter;stroke-dasharray:none;stroke-opacity:1;paint-order:normal" transform="translate(-9.72 15.77)"/></svg>