<svg width="52" height="33" viewBox="0 0 52 33" fill="none" xmlns="http://www.w3.org/2000/svg">
<g clip-path="url(#clip0_224_423)">
<path d="M45.5611 2.73422C45.5611 4.24428 46.7852 5.46843 48.2953 5.46843C49.8054 5.46843 51.0295 4.24428 51.0295 2.73422C51.0295 1.22415 49.8054 2.17706e-06 48.2953 2.11105e-06C46.7852 2.04505e-06 45.5611 1.22415 45.5611 2.73422Z" fill="#1F1F1F"/>
<path d="M36.4471 2.73422C36.4471 4.24428 37.6712 5.46843 39.1813 5.46843C40.6913 5.46843 41.9155 4.24428 41.9155 2.73422C41.9155 1.22415 40.6913 2.17706e-06 39.1813 2.11105e-06C37.6712 2.04505e-06 36.4471 1.22415 36.4471 2.73422Z" fill="#1F1F1F"/>
<path d="M27.3376 2.73422C27.3376 4.24428 28.5617 5.46843 30.0718 5.46843C31.5818 5.46843 32.806 4.24428 32.806 2.73422C32.806 1.22415 31.5818 2.17706e-06 30.0718 2.11105e-06C28.5617 2.04505e-06 27.3376 1.22415 27.3376 2.73422Z" fill="#1F1F1F"/>
<path d="M18.2235 2.73422C18.2235 4.24428 19.4477 5.46843 20.9577 5.46843C22.4678 5.46843 23.6919 4.24428 23.6919 2.73422C23.6919 1.22415 22.4678 2.17706e-06 20.9577 2.11106e-06C19.4477 2.04505e-06 18.2235 1.22415 18.2235 2.73422Z" fill="#1F1F1F"/>
<path d="M9.11405 2.73422C9.11404 4.24428 10.3382 5.46843 11.8483 5.46843C13.3583 5.46843 14.5825 4.24428 14.5825 2.73422C14.5825 1.22415 13.3583 2.17706e-06 11.8483 2.11105e-06C10.3382 2.04505e-06 9.11405 1.22415 9.11405 2.73422Z" fill="#1F1F1F"/>
<path d="M8.37643e-07 2.73422C7.71636e-07 4.24428 1.22415 5.46843 2.73421 5.46843C4.24428 5.46843 5.46843 4.24428 5.46843 2.73422C5.46843 1.22415 4.24428 2.17706e-06 2.73421 2.11105e-06C1.22415 2.04505e-06 9.0365e-07 1.22415 8.37643e-07 2.73422Z" fill="#1F1F1F"/>
<path d="M45.5611 11.8482C45.5611 13.3583 46.7852 14.5824 48.2953 14.5824C49.8054 14.5824 51.0295 13.3583 51.0295 11.8482C51.0295 10.3382 49.8054 9.11402 48.2953 9.11402C46.7852 9.11402 45.5611 10.3382 45.5611 11.8482Z" fill="#1F1F1F"/>
<path d="M36.4471 11.8482C36.4471 13.3583 37.6712 14.5824 39.1813 14.5824C40.6913 14.5824 41.9155 13.3583 41.9155 11.8482C41.9155 10.3382 40.6913 9.11402 39.1813 9.11402C37.6712 9.11402 36.4471 10.3382 36.4471 11.8482Z" fill="#1F1F1F"/>
<path d="M27.3375 11.8482C27.3375 13.3583 28.5617 14.5824 30.0717 14.5824C31.5818 14.5824 32.806 13.3583 32.806 11.8482C32.806 10.3382 31.5818 9.11402 30.0717 9.11402C28.5617 9.11402 27.3375 10.3382 27.3375 11.8482Z" fill="#1F1F1F"/>
<path d="M18.2235 11.8482C18.2235 13.3583 19.4476 14.5824 20.9577 14.5824C22.4678 14.5824 23.6919 13.3583 23.6919 11.8482C23.6919 10.3382 22.4678 9.11402 20.9577 9.11402C19.4476 9.11402 18.2235 10.3382 18.2235 11.8482Z" fill="#1F1F1F"/>
<path d="M9.11405 11.8482C9.11404 13.3583 10.3382 14.5824 11.8483 14.5824C13.3583 14.5824 14.5825 13.3583 14.5825 11.8482C14.5825 10.3382 13.3583 9.11402 11.8483 9.11402C10.3382 9.11402 9.11405 10.3382 9.11405 11.8482Z" fill="#1F1F1F"/>
<path d="M8.37643e-07 11.8482C7.71636e-07 13.3583 1.22415 14.5824 2.73421 14.5824C4.24428 14.5824 5.46843 13.3583 5.46843 11.8482C5.46843 10.3382 4.24428 9.11402 2.73421 9.11402C1.22415 9.11402 9.0365e-07 10.3382 8.37643e-07 11.8482Z" fill="#1F1F1F"/>
<path d="M45.5611 20.9577C45.5611 22.4678 46.7852 23.6919 48.2953 23.6919C49.8054 23.6919 51.0295 22.4678 51.0295 20.9577C51.0295 19.4477 49.8054 18.2235 48.2953 18.2235C46.7852 18.2235 45.5611 19.4477 45.5611 20.9577Z" fill="#1F1F1F"/>
<path d="M36.4471 20.9577C36.4471 22.4678 37.6712 23.6919 39.1813 23.6919C40.6913 23.6919 41.9155 22.4678 41.9155 20.9577C41.9155 19.4477 40.6913 18.2235 39.1813 18.2235C37.6712 18.2235 36.4471 19.4477 36.4471 20.9577Z" fill="#1F1F1F"/>
<path d="M27.3376 20.9577C27.3376 22.4678 28.5617 23.6919 30.0718 23.6919C31.5818 23.6919 32.806 22.4678 32.806 20.9577C32.806 19.4477 31.5818 18.2235 30.0718 18.2235C28.5617 18.2235 27.3376 19.4477 27.3376 20.9577Z" fill="#1F1F1F"/>
<path d="M18.2235 20.9577C18.2235 22.4678 19.4476 23.6919 20.9577 23.6919C22.4678 23.6919 23.6919 22.4678 23.6919 20.9577C23.6919 19.4477 22.4678 18.2235 20.9577 18.2235C19.4476 18.2235 18.2235 19.4477 18.2235 20.9577Z" fill="#1F1F1F"/>
<path d="M9.11405 20.9577C9.11404 22.4678 10.3382 23.6919 11.8483 23.6919C13.3583 23.6919 14.5825 22.4678 14.5825 20.9577C14.5825 19.4477 13.3583 18.2235 11.8483 18.2235C10.3382 18.2235 9.11405 19.4477 9.11405 20.9577Z" fill="#1F1F1F"/>
<path d="M8.37643e-07 20.9577C7.71636e-07 22.4678 1.22415 23.6919 2.73421 23.6919C4.24428 23.6919 5.46843 22.4678 5.46843 20.9577C5.46843 19.4477 4.24428 18.2235 2.73421 18.2235C1.22415 18.2235 9.0365e-07 19.4477 8.37643e-07 20.9577Z" fill="#1F1F1F"/>
<path d="M45.5611 30.0718C45.5611 31.5819 46.7852 32.806 48.2953 32.806C49.8054 32.806 51.0295 31.5819 51.0295 30.0718C51.0295 28.5617 49.8054 27.3376 48.2953 27.3376C46.7852 27.3376 45.5611 28.5617 45.5611 30.0718Z" fill="#1F1F1F"/>
<path d="M36.4471 30.0718C36.4471 31.5819 37.6712 32.806 39.1813 32.806C40.6913 32.806 41.9155 31.5819 41.9155 30.0718C41.9155 28.5617 40.6913 27.3376 39.1813 27.3376C37.6712 27.3376 36.4471 28.5617 36.4471 30.0718Z" fill="#1F1F1F"/>
<path d="M27.3376 30.0718C27.3376 31.5819 28.5617 32.806 30.0718 32.806C31.5818 32.806 32.806 31.5819 32.806 30.0718C32.806 28.5617 31.5818 27.3376 30.0718 27.3376C28.5617 27.3376 27.3376 28.5617 27.3376 30.0718Z" fill="#1F1F1F"/>
<path d="M18.2235 30.0718C18.2235 31.5819 19.4476 32.806 20.9577 32.806C22.4678 32.806 23.6919 31.5819 23.6919 30.0718C23.6919 28.5617 22.4678 27.3376 20.9577 27.3376C19.4476 27.3376 18.2235 28.5617 18.2235 30.0718Z" fill="#1F1F1F"/>
<path d="M9.11405 30.0718C9.11404 31.5819 10.3382 32.806 11.8483 32.806C13.3583 32.806 14.5825 31.5819 14.5825 30.0718C14.5825 28.5617 13.3583 27.3376 11.8483 27.3376C10.3382 27.3376 9.11405 28.5617 9.11405 30.0718Z" fill="#1F1F1F"/>
<path d="M8.37643e-07 30.0718C7.71636e-07 31.5819 1.22415 32.806 2.73421 32.806C4.24428 32.806 5.46843 31.5819 5.46843 30.0718C5.46843 28.5617 4.24428 27.3376 2.73421 27.3376C1.22415 27.3376 9.0365e-07 28.5617 8.37643e-07 30.0718Z" fill="#1F1F1F"/>
</g>
<defs>
<clipPath id="clip0_224_423">
<rect width="32.806" height="51.0295" fill="white" transform="translate(51.0295 2.23057e-06) rotate(90)"/>
</clipPath>
</defs>
</svg>
