<svg xmlns="http://www.w3.org/2000/svg" xmlns:xlink="http://www.w3.org/1999/xlink" width="412.399" height="119.36" viewBox="0 0 109.114 31.581"><defs><linearGradient id="a"><stop offset=".925" style="stop-color:#033d6a;stop-opacity:1"/><stop offset="1" style="stop-color:#014b87;stop-opacity:.89019608"/></linearGradient><linearGradient xlink:href="#b" id="g" x1="46.688" x2="48.827" y1="-8.429" y2="-21.931" gradientTransform="translate(0 -.08)" gradientUnits="userSpaceOnUse"/><linearGradient id="b"><stop offset="0" style="stop-color:#03579d;stop-opacity:1"/><stop offset=".15" style="stop-color:#3da8e0;stop-opacity:1"/><stop offset=".5" style="stop-color:#0f65b2;stop-opacity:1"/><stop offset="1" style="stop-color:#0073b9;stop-opacity:1"/></linearGradient><linearGradient xlink:href="#c" id="h" x1="186.116" x2="184.334" y1="49.753" y2="117.791" gradientTransform="matrix(.93202 0 0 1 12.554 0)" gradientUnits="userSpaceOnUse"/><linearGradient id="c"><stop offset="0" style="stop-color:#fff;stop-opacity:1"/><stop offset=".299" style="stop-color:#2d96cd;stop-opacity:1"/><stop offset="1" style="stop-color:#007ebf;stop-opacity:0"/></linearGradient><linearGradient xlink:href="#d" id="i" x1="76.512" x2="52.324" y1="116.656" y2="116.013" gradientTransform="matrix(5.03995 0 0 7.57965 30.173 187.42)" gradientUnits="userSpaceOnUse"/><linearGradient id="d"><stop offset="0" style="stop-color:#151c64;stop-opacity:1"/></linearGradient><linearGradient xlink:href="#e" id="k" x1="16.333" x2="86.174" y1="-17.54" y2="-17.54" gradientUnits="userSpaceOnUse"/><linearGradient id="e"><stop offset="0" style="stop-color:#003a5d;stop-opacity:1"/><stop offset="1" style="stop-color:#04589d;stop-opacity:1"/></linearGradient><linearGradient xlink:href="#e" id="l" x1="90.888" x2="111.223" y1="-13.836" y2="-13.836" gradientUnits="userSpaceOnUse"/><radialGradient xlink:href="#a" id="f" cx="66.995" cy="-13.924" r="52.557" fx="66.995" fy="-13.924" gradientTransform="matrix(.99963 .01264 -.00529 .45066 -.049 -8.496)" gradientUnits="userSpaceOnUse"/><filter id="j" width="1" height="1" x="0" y="0" style="color-interpolation-filters:sRGB"><feFlood flood-color="#8c9dfe" flood-opacity=".827" result="flood"/><feGaussianBlur in="SourceGraphic" result="blur" stdDeviation="0.001 0"/><feOffset in="blur" result="offset"/><feComposite in="flood" in2="offset" operator="out" result="comp1"/><feComposite in="comp1" in2="SourceGraphic" operator="atop" result="comp2"/></filter></defs><path d="M17.906-29.714h86.549c8.056 0 15.097 7.576 15.097 16.987v.089c0 9.411-7.041 15.735-15.097 14.302l-86.55-15.4c-1.954-.347-3.467-4.033-3.467-8.277v-.04c0-4.245 1.513-7.661 3.468-7.661" style="display:inline;fill:url(#f);stroke:none;stroke-width:.259688;stroke-linecap:round;stroke-linejoin:round;stroke-dasharray:none;paint-order:stroke fill markers" transform="matrix(1.03806 0 0 1 -14.988 29.714)"/><path d="M18.043-29.714h85.884c8.326 0 15.625 7.576 15.625 16.987v.09c0 9.41-7.299 15.688-15.625 14.207L18.043-13.71c-2.033-.363-3.605-4.059-3.605-8.303v-.04c0-4.245 1.572-7.661 3.605-7.661" style="display:inline;fill:url(#g);stroke-width:.264583;stroke-linecap:round;stroke-linejoin:round;paint-order:stroke fill markers" transform="translate(-14.438 29.714)"/><path d="m25.112 49.741 470.386 3.041c16.75.109 52.167 12.446 52.067 34.429-.167 36.8-46.453 30.674-62.828 29.467L27.973 83.021c-4.315-.318-15.44.075-15.44-17.25 0-10.516 8.314-16.057 12.58-16.03z" style="display:inline;opacity:.75;mix-blend-mode:normal;fill:url(#h);stroke:url(#i);stroke-width:0;stroke-miterlimit:33.6;stroke-dasharray:none;stroke-dashoffset:0;filter:url(#j)" transform="matrix(.1828 0 0 .158 -1.003 -7.356)"/><path d="M33.352-23.812a1 1 0 0 0-.664.21q-.304.228-.52.663a4.1 4.1 0 0 0-.34 1.078q-.12.646-.12 1.436t.12 1.457q.123.67.34 1.142.216.47.52.754a1.18 1.18 0 0 0 .766.34 1 1 0 0 0 .1.013l.067.009.067.008a1 1 0 0 0 .708-.177q.327-.23.55-.722.226-.497.297-1.194l-.07-.007-.069-.007-.069-.007-.07-.007-.068-.007-.402-.04-.068-.008q-.083.69-.383 1.047-.233.275-.521.309a.9.9 0 0 1-.318-.199 1.8 1.8 0 0 1-.385-.562 3.7 3.7 0 0 1-.259-.892 7 7 0 0 1-.093-1.182q0-.65.093-1.166.095-.516.259-.842.165-.33.385-.496a.74.74 0 0 1 .318-.142q.288.087.521.403.3.41.383 1.116l.068.005.402.03.069.006.07.006.068.005.07.005.069.006a4.3 4.3 0 0 0-.296-1.245q-.224-.535-.551-.82a1.15 1.15 0 0 0-.775-.311l-.033-.001a1 1 0 0 0-.101-.006l-.068-.004zm9.243.518a1.23 1.23 0 0 0-.786.225q-.36.247-.615.718-.255.465-.4 1.168a8 8 0 0 0-.141 1.56q0 .858.141 1.584.145.729.4 1.244.257.513.615.826a1.46 1.46 0 0 0 .866.374l.079.01.04.004a1 1 0 0 0 .12.016l.04.004.04.006a1.2 1.2 0 0 0 .801-.174q.374-.23.645-.695.27-.472.423-1.193.155-.723.155-1.615 0-.891-.155-1.643a4.8 4.8 0 0 0-.423-1.265 2.5 2.5 0 0 0-.645-.813 1.4 1.4 0 0 0-.882-.323l-.04-.002-.04-.003-.079-.004-.04-.002-.04-.003-.039-.001zm22.515 1.263a1.95 1.95 0 0 0-1.102.246 1.93 1.93 0 0 0-.772.826q-.282.546-.282 1.27c0 1.095.527 1.905 1.595 2.435l.786.387q.234.11.397.208.168.096.349.245.18.146.293.306.111.157.182.38.073.225.073.485 0 .735-.453 1.139-.353.314-.845.334a1.8 1.8 0 0 1-.432-.181 1.6 1.6 0 0 1-.535-.558 1.9 1.9 0 0 1-.244-.857l-.112-.011-.112-.012-.11-.012-.112-.012-.111-.011-.67-.071-.11-.012q.056 1.107.651 1.84.604.74 1.614.865l.056.006.057.008.056.006.058.008.056.006.057.008.057.006.058.008.057.006.057.008q.547.068.997-.076.453-.149.75-.468.3-.326.464-.784.163-.464.163-1.022a3.1 3.1 0 0 0-.251-1.23 2.2 2.2 0 0 0-.273-.449 2.626 2.626 0 0 0-.673-.638 4.298 4.298 0 0 0-.658-.362l-.657-.303a4 4 0 0 1-.261-.127 4 4 0 0 1-.272-.163 1.6 1.6 0 0 1-.269-.227 2.4 2.4 0 0 1-.22-.275 1.3 1.3 0 0 1-.158-.355 1.7 1.7 0 0 1-.055-.435q0-.648.387-1.035.297-.3.737-.348.41.096.71.4.404.4.461 1.064l.117.009.655.048.117.008.117.009.119.009.117.008.119.009a2.84 2.84 0 0 0-.31-1.252 2.37 2.37 0 0 0-.793-.905 2.15 2.15 0 0 0-1.174-.38l-.115-.006a3 3 0 0 0-.17-.01l-.058-.003a3 3 0 0 0-.17-.01m8.963.502a2.4 2.4 0 0 0-1.274.27q-.574.309-.982.902-.405.587-.634 1.475-.225.886-.225 1.976 0 1.095.225 2.02t.634 1.589q.414.663 1.003 1.076a2.86 2.86 0 0 0 1.376.51l.129.016a3 3 0 0 0 .193.025l.066.007.13.016.064.008q.875.11 1.566-.284.7-.4 1.097-1.26.398-.864.399-2.055v-1.051l-.136-.012-.135-.012-.135-.012-.135-.013-.135-.012-2.705-.242-.13-.012v1.027l.13.012 1.821.176q-.018 1.295-.619 2-.487.57-1.201.602a2.1 2.1 0 0 1-.63-.298 2.8 2.8 0 0 1-.75-.804q-.316-.505-.496-1.248a7 7 0 0 1-.178-1.64q0-.897.178-1.607.177-.712.489-1.156.316-.45.736-.674.285-.15.6-.186.563.13.98.577.544.578.79 1.57l.132.01.809.063.135.01.134.01.135.011.135.01.136.011a4.8 4.8 0 0 0-.573-1.7 3.46 3.46 0 0 0-1.086-1.188 2.8 2.8 0 0 0-1.48-.48 4 4 0 0 0-.195-.011l-.064-.003a4 4 0 0 0-.194-.012l-.065-.002zm-57.475-3.144v5.786l.047.006.278.034.047.006.048.005.048.006.048.006.048.006v-5.823l-.048-.002-.048-.003-.048-.003-.048-.002-.047-.003-.278-.016zm.982.056v5.85l.048.006.284.035.05.006.048.006.049.006.049.006.049.006v-3.954l1.31 4.114.05.006.285.035.05.006.052.006.05.007.052.006.051.006v-6.012l-.051-.003-.051-.003-.051-.002-.051-.003-.051-.003-.29-.017-.051-.003v4.024l-1.315-4.099-.049-.002-.049-.003-.049-.003-.049-.003-.048-.003-.274-.015zm2.763.158v.648l.052.003.871.056v5.436l.053.006.308.038.053.007.053.006.053.007.053.006.053.007v-5.473l.683.044.055.003.053.004.055.003.054.004.054.003v-.666l-.054-.003-.054-.003-.055-.003-.053-.003-.055-.003-2.18-.124zm2.807.16v6.214l.055.006 1.87.229.056.007.058.007.057.007.057.007.057.007v-.683l-.057-.007-.057-.006-.057-.007-.058-.006-.056-.007-1.273-.147v-2.126l1.147.107.057.005.057.006.057.005.057.005.057.005v-.682l-.057-.005-.057-.005-.057-.005-.057-.005-.057-.005-1.147-.098v-2.114l1.247.08.057.004.057.003.057.004.057.003.058.004v-.683l-.058-.003-.057-.004-.057-.003-.057-.003-.057-.003-1.844-.105zm2.607.148v6.384l.057.007.339.042.058.007.058.007.059.007.058.007.058.008v-2.512l.432.042.06.005.026.003.708 2.612.06.007.418.051.06.007.062.008.06.007.061.008.018.002.043.005.018.002.378.046.06.008.062.007.062.008.062.008.061.007.352-1.834 1.121.116.363 1.943.064.007.397.049.064.008.065.008.065.008.065.008.065.008-1.33-6.854-.064-.004-.063-.003-.063-.004-.064-.004-.063-.003-.38-.022-.062-.003-1.26 6.398-.747-2.692q.317-.177.477-.637.16-.466.16-1.138a4.3 4.3 0 0 0-.07-.808 2.5 2.5 0 0 0-.21-.646 1.2 1.2 0 0 0-.362-.442.93.93 0 0 0-.51-.179l-.059-.003-.059-.004-.06-.003-.058-.004-.06-.003-1.055-.06zm9.69.552v.754l.07.005 1.182.075v6.337l.072.009.418.051.072.009.072.009.072.009.073.008.072.01v-6.387l.932.06.074.004.074.005.074.005.074.004.074.005v-.778l-.074-.004-.074-.005-.074-.004-.074-.004-.074-.004-2.965-.169zm3.82.218v7.267l.075.01.439.053.076.01.075.009.076.009.076.01.076.009v-7.327l-.076-.004-.076-.004-.076-.004-.075-.005-.076-.004-.439-.025zm6.288.358v7.679l.084.01.49.06.083.01.085.01.085.01.084.011.085.01v-5.2l2.276 5.479.088.01.498.062.09.01.089.011.089.011.09.011.09.011v-7.96l-.09-.005-.09-.005-.09-.005-.089-.005-.089-.005-.507-.03-.089-.004v5.317l-2.284-5.448-.085-.004-.085-.005-.085-.005-.084-.005-.084-.005-.471-.026zm7.103.404v8.144l.094.011 1.563.191.096.012.097.012.097.012.097.012.097.011q1.255.155 1.957-.877.709-1.046.71-3.042 0-1.975-.696-3.138c-.46-.77-1.095-1.176-1.896-1.221l-.097-.006-.098-.005-.096-.006-.097-.005-.096-.006-1.638-.093zm5.466.312v8.5l.102.013 3.526.431.108.013.108.014.108.013.11.013.108.013v-.942l-.109-.012-.109-.013-.108-.012-.108-.013-.108-.012-2.406-.278v-2.916l2.168.202.108.01.107.01.109.01.108.01.108.01v-.94l-.108-.01-.108-.01-.109-.009-.107-.009-.108-.01-2.168-.186v-2.898l2.358.15.108.007.108.007.109.007.108.007.109.007v-.942l-.109-.007-.108-.006-.109-.006-.108-.006-.108-.006-3.478-.199zm10.61.604v9.194l.12.015.702.086.122.015.12.015.123.015.121.014.123.015v-9.287l-.123-.007-.121-.007-.122-.007-.121-.007-.122-.007-.702-.04zm10.018.57v9.85l.137.017.807.098.14.018.139.017.14.017.14.017.14.017v-6.686l3.783 7.149.148.018.833.102.15.018.149.018.15.019.15.018.15.018v-10.316l-.15-.009-.15-.009-.15-.008-.15-.009-.15-.008-.849-.049-.147-.008v6.874l-3.798-7.09-.14-.008-.14-.008-.14-.008-.14-.008-.138-.008-.777-.044zm-35.958-1.279q.196.056.372.2.269.216.468.606.201.387.315.976.116.591.116 1.313t-.116 1.291q-.114.57-.315.923-.2.351-.468.519a.9.9 0 0 1-.372.133 1.1 1.1 0 0 1-.372-.218 2 2 0 0 1-.456-.616 3.8 3.8 0 0 1-.307-.972 7 7 0 0 1-.11-1.286q0-.706.11-1.266.112-.561.307-.914.195-.357.456-.537a.9.9 0 0 1 .372-.152m-16.35-1.009.413.027q.752.048.753 1.344 0 .61-.18.918-.178.307-.567.273l-.419-.038zm27.335 1.75.568.036q.946.06 1.449.952.505.899.505 2.446 0 1.573-.52 2.383-.511.806-1.509.69l-.493-.057zm-23.714-.422.427 2.29-.85-.082z" style="font-size:7.7611px;font-family:Inter;-inkscape-font-specification:Inter;fill:url(#k);stroke:none;stroke-width:.529167;stroke-linecap:round;stroke-linejoin:round;paint-order:stroke fill markers" transform="translate(-14.438 29.714)"/><path d="M16.875-24.657v5.804l-.325-.04v-5.782zm2.876.164v5.992l-.335-.041-1.526-4.796-.027-.002v4.608l-.332-.04v-5.848l.322.019 1.53 4.784.027.003v-4.698zm.54.678v-.647l2.23.127v.663l-.947-.06v5.454l-.36-.044v-5.434zm2.805 5.723v-6.21l1.897.108v.68l-1.523-.097v2.106l1.423.123v.68l-1.423-.133v2.119l1.548.178v.681zm2.603.318v-6.38l1.112.063q.286.016.506.178.222.162.359.44.139.28.209.644.07.365.07.805 0 .67-.16 1.133-.16.46-.473.636l.766 2.774-.478-.059-.708-2.613a1 1 0 0 1-.085-.005l-.723-.07v2.503zm.395-3.154.71.063q.389.035.567-.272.18-.309.18-.918-.002-1.295-.753-1.344l-.704-.045zm2.692 3.532-.438-.054 1.276-6.48.442.025 1.32 6.827-.46-.056-.361-1.941-1.43-.149zm.482-2.525 1.16.113-.57-3.057-.027-.002zm5.56-1.533-.47-.036q-.082-.705-.382-1.115-.3-.408-.69-.432a.7.7 0 0 0-.48.15q-.219.165-.382.495a3.2 3.2 0 0 0-.257.839q-.093.514-.092 1.16 0 .648.092 1.178.093.53.257.889.163.354.382.56a.84.84 0 0 0 .48.235q.39.046.69-.308.3-.356.383-1.046l.469.048q-.07.695-.294 1.19-.222.49-.547.718a.98.98 0 0 1-.702.177q-.359-.044-.663-.328a2.4 2.4 0 0 1-.52-.754 4.8 4.8 0 0 1-.338-1.14q-.12-.667-.12-1.457t.12-1.435a4.1 4.1 0 0 1 .338-1.077q.216-.434.52-.663a.98.98 0 0 1 .663-.21q.381.021.702.306.325.284.547.817.224.532.294 1.24m.55-1.395v-.754l3.03.173v.774l-1.291-.082v6.361l-.49-.06v-6.332Zm4.327-.507v7.296l-.512-.063v-7.263zm4.665 2.444q.154.748.154 1.636t-.154 1.608q-.15.718-.42 1.188-.268.464-.638.692-.37.226-.796.174a1.46 1.46 0 0 1-.785-.365 2.6 2.6 0 0 1-.614-.825 5 5 0 0 1-.4-1.243 8.3 8.3 0 0 1-.14-1.583q0-.858.14-1.558.145-.702.4-1.168.255-.47.614-.718.36-.248.785-.224.427.022.796.316.37.296.638.81.27.515.42 1.26m-.502 2.878q.116-.57.116-1.29a7 7 0 0 0-.116-1.312 3.6 3.6 0 0 0-.315-.975 1.85 1.85 0 0 0-.467-.606 1 1 0 0 0-.57-.234.88.88 0 0 0-.567.16q-.259.18-.452.535a3.2 3.2 0 0 0-.304.91 6.6 6.6 0 0 0-.108 1.261q0 .704.108 1.28.111.58.304.97.194.386.452.612.263.226.567.262a.85.85 0 0 0 .57-.133 1.4 1.4 0 0 0 .467-.517q.201-.355.315-.923m5.456-4.774v7.925l-.585-.072-2.649-6.38-.046-.004v6.054l-.572-.07v-7.673l.553.032 2.656 6.356.048.005v-6.207zm4.895 8.523-1.655-.202v-8.137l1.729.099q1.192.067 1.878 1.215.69 1.158.69 3.123 0 1.986-.704 3.028-.695 1.028-1.938.874m-1.01-1.002.967.112q.995.115 1.507-.69.518-.81.518-2.38 0-1.547-.504-2.445-.502-.892-1.447-.952l-1.042-.067zm4.813 1.468v-8.494l3.574.204v.937l-2.873-.184v2.886l2.683.23v.937l-2.683-.25v2.902l2.92.337v.938zm8.401-5.755q-.057-.661-.46-1.063a1.47 1.47 0 0 0-.992-.441q-.629-.04-1.013.352-.384.385-.384 1.03 0 .23.055.432.056.2.156.355.105.15.219.273.114.122.265.226.154.099.27.162.114.06.258.126l.65.3a4 4 0 0 1 .652.361 2.6 2.6 0 0 1 .667.635q.163.21.27.446.109.237.177.554.07.318.07.67 0 .555-.16 1.017a2.2 2.2 0 0 1-.46.78 1.7 1.7 0 0 1-.742.467q-.446.142-.987.076-1.009-.126-1.61-.864-.596-.733-.65-1.838l.778.082q.03.487.241.852.215.362.53.554.319.19.71.235.678.079 1.128-.322.451-.405.452-1.138a1.55 1.55 0 0 0-.255-.864 1.5 1.5 0 0 0-.292-.306q-.18-.15-.348-.245a4 4 0 0 0-.396-.208l-.786-.387c-1.066-.529-1.593-1.338-1.593-2.433q0-.722.283-1.268.282-.552.77-.826a1.95 1.95 0 0 1 1.1-.246 2.1 2.1 0 0 1 1.106.375q.5.338.786.9.29.565.305 1.246zm3.012-2.089v9.24l-.82-.1v-9.186zm6.61 3.4q-.243-.991-.787-1.57a1.9 1.9 0 0 0-1.313-.623 1.66 1.66 0 0 0-.903.192 2.1 2.1 0 0 0-.728.671q-.309.442-.484 1.15a6.7 6.7 0 0 0-.175 1.6q0 .892.175 1.63.18.738.49 1.242.317.5.743.798.431.3.938.359.935.108 1.528-.59.6-.705.619-1.997L74.2-15.59v-1.026l2.83.254v1.046q0 1.184-.395 2.043-.393.856-1.084 1.255-.683.39-1.55.284a2.86 2.86 0 0 1-1.308-.503 3.65 3.65 0 0 1-1-1.074q-.41-.665-.634-1.587a8.6 8.6 0 0 1-.224-2.02q0-1.088.224-1.973.229-.888.633-1.474.407-.594.98-.901.58-.309 1.273-.27.758.042 1.4.473.648.435 1.074 1.18t.567 1.692zm8.965-2.512v10.257l-.98-.12-4.396-8.315-.077-.006v7.774l-.942-.115v-9.84l.912.052 4.406 8.27.081.009v-8.023z" aria-label="INTERACTION DESIGN" style="font-size:7.7611px;font-family:Inter;-inkscape-font-specification:Inter;fill:#fff;stroke:#fff;stroke-width:.529167;stroke-linecap:round;stroke-linejoin:round;paint-order:stroke fill markers" transform="translate(-14.438 29.714)"/><path d="M98.457-25.132c-2.333-.063-4.177 2-4.178 4.606 0 2.606 1.845 4.874 4.178 5.069q.044.004.088.006a4 4 0 0 0 .175.015l.177.015.176.015a3 3 0 0 0 .177.014l.088.009c2.424.203 4.44-1.862 4.44-4.618-.001-2.755-2.016-5.042-4.44-5.107l-.088-.002a4 4 0 0 0-.177-.005 4 4 0 0 0-.176-.004 4 4 0 0 0-.177-.005 4 4 0 0 0-.175-.005zm.435 1.28c1.603.303 2.818 1.9 2.818 3.737 0 1.835-1.211 3.298-2.813 3.426-1.572-.366-2.724-1.956-2.724-3.732 0-1.774 1.149-3.236 2.719-3.43m5.92 9.746c-2.848-.25-5.09 2.022-5.09 5.068 0 3.047 2.241 5.86 5.09 6.296q.047.008.095.013l.189.03.19.028.19.03.19.028.095.016c2.976.454 5.463-1.803 5.462-5.056 0-3.25-2.487-6.106-5.462-6.369l-.095-.007-.095-.01h-.001l-.095-.007-.19-.017-.094-.01h-.001l-.094-.006a4 4 0 0 0-.19-.017zm-9.061.175c-4.09-.384-4.907 3.396-4.861 4.67v3.788c0 .665.52.69.52.69l.102.016c.037.008.06.009.06.009l.101.015c.037.008.06.01.06.01l.103.015c.036.008.06.01.06.01l.101.015c.037.008.06.01.06.01l.104.015c.037.008.06.01.06.01l8.818 1.345.18.028.183.028.181.027.183.028.182.028c-.873-.878-1.12-1.397-1.12-1.397l-.182-.027-.179-.026-.18-.026-.179-.026-.179-.026-3.8-.553v-2.399s.047-.515-.457-.58a1 1 0 0 0-.085-.005.7.7 0 0 0-.169-.022.7.7 0 0 0-.17-.021.7.7 0 0 0-.168-.022.7.7 0 0 0-.169-.022 1 1 0 0 0-.084-.015c-.496-.064-.444.463-.444.463v2.369l-1.816-.265V-8.91c0-2.903 2.39-4.036 3.574-3.917l3.247.327.177.017.178.018.178.018.18.018.178.018c.26-.586.78-1.019.78-1.019l-.18-.017-.181-.017-.18-.017-.18-.017-.178-.016-4.24-.4zm12.35 4.09c.245.41-.084.74-.084.74l-3.153 3.025-1.823-2.228s-.255-.357-.044-.685l1.395 1.696.094-.091.095.115.093-.09.095.114.095-.091.094.115.094-.09.095.114.095-.091.096.116z" style="display:inline;opacity:.362;fill:url(#l);fill-opacity:1;fill-rule:nonzero;stroke:none;stroke-width:.121797;stroke-linecap:square;stroke-linejoin:miter;stroke-dasharray:none;stroke-opacity:1;paint-order:normal" transform="translate(-14.438 29.714)"/><path d="M104.623-14.122c-2.842-.25-5.079 2.019-5.08 5.063 0 3.044 2.238 5.853 5.08 6.288 2.938.448 5.392-1.796 5.391-5.027 0-3.23-2.454-6.065-5.391-6.324m2.842 3.922c.112.018.235.08.357.223.392.46 0 .854 0 .854l-3.217 3.089s-.127.174-.396.138c-.268-.037-.402-.245-.402-.245l-1.87-2.298s-.31-.438.045-.788c.358-.352.7.059.7.059l1.523 1.852 2.824-2.748s.19-.175.436-.136m-6.607 6.86L91.25-4.809s-.52-.025-.52-.689V-9.28c-.046-1.273.771-5.05 4.852-4.665l4.4.414s-.515.43-.771 1.012l-4.088-.41c-1.17-.118-3.53 1.01-3.53 3.896v3.118l2.623.382V-7.9s-.05-.527.444-.463c.498.063.451.576.451.576v2.383l4.641.676s.246.515 1.108 1.387M98.28-25.137c-2.327-.062-4.168 1.999-4.168 4.602s1.84 4.868 4.168 5.063c2.394.2 4.384-1.852 4.384-4.59s-1.99-5.01-4.384-5.075m0 1.23c1.778.06 3.247 1.754 3.247 3.782s-1.468 3.56-3.247 3.424c-1.741-.133-3.127-1.823-3.127-3.776 0-1.954 1.386-3.49 3.127-3.43" style="display:inline;fill:#f1f1f1;fill-opacity:1;fill-rule:nonzero;stroke:none;stroke-width:.121797;stroke-linecap:square;stroke-linejoin:miter;stroke-dasharray:none;stroke-opacity:1;paint-order:normal" transform="translate(-14.438 29.714)"/></svg>