<svg xmlns="http://www.w3.org/2000/svg" xmlns:xlink="http://www.w3.org/1999/xlink" width="305.001" height="119.844" viewBox="0 0 80.698 31.709"><defs><linearGradient id="a"><stop offset=".896" style="stop-color:#033d6a;stop-opacity:1"/><stop offset="1" style="stop-color:#014b87;stop-opacity:.88961041"/></linearGradient><linearGradient xlink:href="#b" id="g" x1="39.157" x2="38.613" y1="-20.073" y2="-35.45" gradientTransform="translate(9.021 5.784)" gradientUnits="userSpaceOnUse"/><linearGradient id="b"><stop offset="0" style="stop-color:#03579d;stop-opacity:1"/><stop offset=".15" style="stop-color:#3da8e0;stop-opacity:1"/><stop offset=".483" style="stop-color:#0f65b2;stop-opacity:1"/><stop offset=".704" style="stop-color:#0073b9;stop-opacity:1"/></linearGradient><linearGradient xlink:href="#c" id="h" x1="155.953" x2="177.507" y1="-45.723" y2="43.141" gradientTransform="matrix(.93202 0 0 1 60.716 36.606)" gradientUnits="userSpaceOnUse"/><linearGradient id="c"><stop offset="0" style="stop-color:#fff;stop-opacity:1"/><stop offset=".235" style="stop-color:#2d96cd;stop-opacity:1"/><stop offset="1" style="stop-color:#007ebf;stop-opacity:0"/></linearGradient><linearGradient xlink:href="#d" id="i" x1="76.512" x2="52.324" y1="116.656" y2="116.013" gradientTransform="matrix(5.03995 0 0 7.57965 78.335 224.027)" gradientUnits="userSpaceOnUse"/><linearGradient id="d"><stop offset="0" style="stop-color:#151c64;stop-opacity:1"/></linearGradient><linearGradient xlink:href="#e" id="k" x1="16.657" x2="59.411" y1="-25.858" y2="-25.858" gradientTransform="translate(9.005 5.784)" gradientUnits="userSpaceOnUse"/><linearGradient id="e"><stop offset="0" style="stop-color:#003a5d;stop-opacity:1"/><stop offset="1" style="stop-color:#04589d;stop-opacity:1"/></linearGradient><linearGradient xlink:href="#e" id="l" x1="63.56" x2="82.638" y1="-30.418" y2="-30.418" gradientTransform="translate(8.804 5.784)" gradientUnits="userSpaceOnUse"/><radialGradient xlink:href="#a" id="f" cx="46.175" cy="-39.666" r="40.349" fx="46.175" fy="-39.666" gradientTransform="matrix(.99943 0 0 .59927 8.84 -6.296)" gradientUnits="userSpaceOnUse"/><filter id="j" width="1" height="1" x="0" y="0" style="color-interpolation-filters:sRGB"><feFlood flood-color="#8c9dfe" flood-opacity=".827" result="flood"/><feGaussianBlur in="SourceGraphic" result="blur" stdDeviation="0.001 0"/><feOffset in="blur" result="offset"/><feComposite in="flood" in2="offset" operator="out" result="comp1"/><feComposite in="comp1" in2="SourceGraphic" operator="atop" result="comp2"/></filter></defs><path d="m18.334-30.558 59.819-14.998c8.526-2.138 16.681 3.663 17.177 13.394.502 9.852-7.117 17.872-15.913 17.872H18.372c-2.113 0-3.717-3.447-3.717-7.71 0-4.239 1.588-8.034 3.679-8.558" style="fill:url(#f);fill-opacity:1;stroke:none;stroke-width:.264583;stroke-linecap:round;stroke-linejoin:round;stroke-dasharray:none;stroke-opacity:1;paint-order:stroke fill markers" transform="translate(-14.655 45.998)"/><path d="m18.187-30.562 57.421-14.996c8.183-2.137 15.63 3.801 15.63 13.593S83.791-14.29 75.608-14.29h-57.42c-2.008 0-3.533-3.423-3.533-7.675s1.525-8.073 3.532-8.597" style="fill:url(#g);stroke-width:.264583;stroke-linecap:round;stroke-linejoin:round;paint-order:stroke fill markers" transform="translate(-14.655 45.998)"/><path d="M24.715 43.96 339.27-48.1c16.256-4.758 51.417-2.654 51.316 19.876-.168 37.712-45.894 43.8-61.636 46.852L27.574 77.063c-4.307.836-15.26 4.18-15.26-13.258 0-10.584 8.165-18.606 12.401-19.846z" style="display:inline;opacity:.75;mix-blend-mode:normal;fill:url(#h);stroke:url(#i);stroke-width:0;stroke-miterlimit:33.6;stroke-dasharray:none;stroke-dashoffset:0;filter:url(#j)" transform="matrix(.1828 0 0 .158 -1.003 9.007)"/><path d="M22.88-26.345q-.301.055-.557.331-.255.276-.436.724-.18.445-.283 1.07-.1.625-.1 1.361 0 .735.1 1.334.102.6.283 1 .18.398.436.607a.76.76 0 0 0 .558.185l.028-.002q.015 0 .028-.003.015 0 .029-.002l.028-.002.028-.002q.015 0 .029-.003l.028-.002.029-.002.028-.003.028-.002.029-.002q.015 0 .028-.003.015 0 .029-.002l.029-.002a.93.93 0 0 0 .574-.283q.268-.258.463-.707.194-.453.305-1.102.11-.652.11-1.423 0-.773-.11-1.395a3.9 3.9 0 0 0-.305-1.02q-.195-.4-.463-.589a.74.74 0 0 0-.574-.133l-.027.006h-.002l-.028.005h-.002l-.026.005h-.001l-.028.005-.029.006-.085.014-.029.006-.028.005-.029.006-.027.004h-.002zm6.453-1.16a1.26 1.26 0 0 0-.671.373 2.6 2.6 0 0 0-.523.8 5.1 5.1 0 0 0-.338 1.176q-.12.686-.12 1.49 0 .805.12 1.459.122.654.338 1.091.218.435.523.661a.97.97 0 0 0 .67.198l.035-.003.033-.003.034-.002q.018 0 .034-.003l.035-.003.033-.003.035-.002.034-.003.034-.003.034-.003q.018 0 .035-.003l.034-.002.034-.003q.017 0 .035-.003.37-.03.692-.315.323-.287.557-.781.236-.5.368-1.215a8.5 8.5 0 0 0 .135-1.565q0-.85-.135-1.532-.132-.68-.368-1.114-.234-.436-.557-.64a.95.95 0 0 0-.725-.127h-.002l-.034.005h-.001l-.032.007h-.001l-.035.006-.034.007-.068.012-.034.005-.034.007-.035.006h-.002l-.032.006-.03.005H29.4l-.003.001-.006.001-.027.006zm26.378-4.747q-.674.122-1.235.565-.553.438-.943 1.124-.39.676-.608 1.612a9 9 0 0 0-.215 2.017q0 1.09.215 1.966.215.874.608 1.453.397.578.963.872.571.295 1.27.238l.063-.005.063-.005.063-.005.062-.005.064-.005.063-.005q.032-.002.064-.006.03-.001.062-.005l.064-.005.063-.005.064-.005.064-.005.064-.005.063-.006a2.8 2.8 0 0 0 1.543-.609q.693-.551 1.089-1.51.398-.965.398-2.177v-1.071l-.136.018-.135.017-.134.018-.134.017-.134.018-.134.017-2.662.348-.127.017-.126.016v1.032l.126-.015.126-.015h.001l1.656-.2q-.019 1.314-.609 2.152-.431.615-1.045.82a1.6 1.6 0 0 1-.49-.156 2 2 0 0 1-.73-.652q-.306-.443-.48-1.149a6.8 6.8 0 0 1-.172-1.606q0-.9.171-1.65.172-.753.474-1.27.307-.523.716-.844a2 2 0 0 1 .462-.277q.468.039.828.351.533.46.775 1.408l.13-.02.131-.02.801-.118.134-.02.133-.02.134-.02.135-.02.135-.02.135-.02q-.142-.937-.571-1.6-.427-.663-1.077-.952a2.3 2.3 0 0 0-1.393-.152l-.058.011-.005.001-.064.01-.001.001-.06.012h-.002l-.128.023-.063.01-.063.013-.126.023-.063.01h-.005l-.06.012-.06.01h-.002l-.002.001-.064.012zm-39.054 7.107v5.838l.046-.004.047-.004.273-.022.047-.004.047-.004.047-.004.047-.004.048-.004.047-.004v-2.155l.302-.035.049-.006.047-.005.049-.006.048-.006h.002l.046-.005h.003l.046-.006a.72.72 0 0 0 .413-.195 1.2 1.2 0 0 0 .294-.447q.114-.279.171-.633.058-.353.058-.76 0-.411-.058-.741a2.3 2.3 0 0 0-.171-.576.8.8 0 0 0-.296-.357.57.57 0 0 0-.417-.072l-.048.009-.048.009-.049.008-.047.009-.049.008-.048.009-.853.152-.047.009zm2.377-.425v6.067l.05-.004.05-.004.296-.025.05-.004.051-.004.051-.004.051-.005.052-.004.051-.004v-2.396l.327-.04.023-.002.622 2.358.053-.005.053-.004.37-.03.054-.005.053-.004.054-.005.054-.004.054-.005.054-.004-.684-2.521q.28-.232.423-.707.142-.48.142-1.125 0-.425-.062-.762a2 2 0 0 0-.187-.576.8.8 0 0 0-.32-.348.66.66 0 0 0-.45-.062l-.052.01-.052.009-.052.009-.052.01-.052.009-.052.009-.922.165-.05.009zm5.642-1.007v.71l.06-.01.059-.01.953-.161v5.99l.062-.005.061-.005.361-.03.063-.005.062-.005.063-.005.062-.005.063-.005.063-.006v-6.064l.746-.125.065-.011.064-.011.064-.01v-.001l.065-.01.065-.012.065-.01v-.742l-.065.012-.065.011-.064.012-.065.011-.064.012-.065.011-2.559.457-.06.011zm6.82-1.218v.78l.071-.012.072-.012 1.154-.194v6.594l.074-.006.075-.006.438-.036.075-.007.076-.006.076-.006.076-.007.076-.006.077-.006v-6.684l.907-.153.079-.013.078-.013.079-.013.078-.014.08-.013.079-.013v-.539l1.542 4.012v3.202l.082-.007.083-.007.484-.04.084-.007.084-.007.084-.007.084-.007.085-.007.084-.007v-3.247l1.762-4.947-.088.016-.088.015-.088.016-.087.016-.088.015-.088.016-.59.105-.086.016-.086.015-1.054 3.101-1.028-2.729-.08.015h-.001l-.081.014-.081.015-.08.014h-.001l-.08.014-.081.015-.545.097-.079.014-.058.01-.02.004-.058.01-.08.015-.078.014-.078.014-.079.014-3.104.554-.072.013zm8.338-1.49v8.065l.09-.008.088-.007.523-.043.09-.008.09-.007.09-.007h.001l.09-.008.092-.007.091-.008v-2.989l.583-.068.092-.011.093-.011.093-.011.093-.011h.005l.089-.011h.005l.089-.011q.45-.053.803-.3.356-.25.574-.644.222-.399.335-.897.113-.5.113-1.07a4.3 4.3 0 0 0-.113-1.032 2.4 2.4 0 0 0-.335-.79 1.24 1.24 0 0 0-.577-.47q-.354-.142-.81-.06l-.094.017-.094.017-.093.016-.092.017-.093.016-.093.017-1.64.293-.088.016zm4.606-.822v8.506l.099-.008.098-.008.582-.048.101-.008.1-.008h.001l.1-.009.101-.008.102-.009.102-.008v-8.64l-.102.019-.102.018-.1.018-.101.018-.1.018-.102.018-.581.104-.1.017zm2.068-.37v8.706l.104-.009.103-.008.61-.05.106-.01.105-.008.105-.009.106-.009.107-.008.107-.01v-5.487l2.665 5.268.112-.01.114-.009.64-.053.116-.01.115-.009.116-.01.115-.009.117-.01.116-.01v-9.25l-.116.02v.001l-.116.02-.116.021-.116.021-.115.02-.116.021-.652.117h-.001l-.113.02-.113.02v5.666l-2.676-5.188-.107.02-.106.018-.106.02-.105.018-.106.019-.105.019-.586.104-.104.019zM23.08-25.612q.108.025.209.098.19.14.333.44t.225.787q.084.489.084 1.111 0 .623-.084 1.133-.081.51-.225.849a1.6 1.6 0 0 1-.333.524.8.8 0 0 1-.209.153.6.6 0 0 1-.209-.114 1.24 1.24 0 0 1-.325-.454 3.2 3.2 0 0 1-.217-.785 7 7 0 0 1-.078-1.086q0-.608.078-1.107.08-.502.217-.84.14-.341.325-.541a.9.9 0 0 1 .21-.168m6.492-1.094a.7.7 0 0 1 .25.105q.23.15.403.477.172.324.27.86.1.534.1 1.218t-.1 1.245a3.8 3.8 0 0 1-.27.934q-.173.37-.402.578a1 1 0 0 1-.251.17.8.8 0 0 1-.251-.122q-.225-.165-.39-.494a3.2 3.2 0 0 1-.262-.858 7 7 0 0 1-.094-1.19q0-.663.094-1.213.095-.55.261-.922a2 2 0 0 1 .39-.6q.12-.12.252-.188m-12.265 2.079.239-.04a.4.4 0 0 1 .28.045q.12.074.191.234.072.158.106.374.035.216.035.494 0 .277-.035.507a2 2 0 0 1-.104.41.8.8 0 0 1-.191.294.5.5 0 0 1-.277.129l-.244.03zm2.43-.41.258-.043h.004q.657-.107.658 1.129 0 .584-.158.914a.62.62 0 0 1-.496.374H20l-.264.035zm21.343-3.591.46-.077h.001q.31-.052.541.038t.37.308q.14.213.205.512.068.3.068.686t-.068.71a2.2 2.2 0 0 1-.203.58 1.2 1.2 0 0 1-.37.422q-.228.159-.534.198l-.47.06z" style="font-size:7.7611px;font-family:Inter;-inkscape-font-specification:Inter;fill:url(#k);fill-opacity:1;stroke:none;stroke-width:.529167;stroke-linecap:round;stroke-linejoin:round;paint-order:stroke fill markers" transform="translate(-14.655 45.998)"/><path d="M16.61-19.303v-5.834l.898-.16a.56.56 0 0 1 .411.072q.18.114.293.355.111.24.168.572.057.328.057.736 0 .405-.057.756a3 3 0 0 1-.168.628q-.111.274-.291.444a.7.7 0 0 1-.408.194l-.584.069v2.142zm.319-2.798.573-.074a.5.5 0 0 0 .276-.128.8.8 0 0 0 .19-.293q.072-.184.105-.41a3.4 3.4 0 0 0 .035-.507q0-.278-.035-.494a1.4 1.4 0 0 0-.105-.374.5.5 0 0 0-.19-.233.4.4 0 0 0-.281-.046l-.568.096zm2.055 2.602v-6.062l.97-.173a.65.65 0 0 1 .443.063q.195.108.316.345.123.24.184.573.062.335.062.756 0 .642-.14 1.118-.141.47-.417.703l.675 2.504-.422.035-.622-2.359a1 1 0 0 1-.074.012l-.63.076v2.38zm.344-3.076.62-.08a.62.62 0 0 0 .497-.375q.158-.33.158-.914-.002-1.237-.66-1.127l-.615.103zm4.82-2.029q.11.618.11 1.385t-.11 1.414q-.108.645-.3 1.095a2.2 2.2 0 0 1-.457.701.9.9 0 0 1-.567.28.76.76 0 0 1-.557-.184q-.254-.209-.435-.607-.18-.4-.282-.999a8 8 0 0 1-.1-1.333q0-.735.1-1.36.1-.624.282-1.069.18-.448.435-.723.255-.277.557-.33a.72.72 0 0 1 .567.131q.265.189.456.586.193.396.301 1.013m-.36 2.568q.084-.51.083-1.132 0-.622-.083-1.11a3 3 0 0 0-.224-.787 1.1 1.1 0 0 0-.333-.44.52.52 0 0 0-.407-.101.7.7 0 0 0-.402.236q-.185.2-.32.538a3.8 3.8 0 0 0-.216.833 7 7 0 0 0-.077 1.1q0 .603.077 1.08.078.477.215.78.137.3.32.45.187.153.403.132a.66.66 0 0 0 .407-.208q.19-.189.333-.523.143-.34.224-.848m.828-3.822v-.709l2.61-.466v.736l-1.118.188v6.022l-.421.035v-5.986zm6.242.24q.132.678.133 1.52 0 .842-.133 1.554a5 5 0 0 1-.362 1.206 2.4 2.4 0 0 1-.55.774 1.15 1.15 0 0 1-.681.313.96.96 0 0 1-.67-.198q-.304-.227-.522-.66a4.2 4.2 0 0 1-.337-1.091 8 8 0 0 1-.12-1.457q0-.804.12-1.489.12-.686.337-1.175.218-.494.522-.8.307-.308.67-.373t.681.135q.318.201.55.634.231.432.362 1.108m-.434 2.825a7 7 0 0 0 .1-1.244q0-.682-.1-1.218-.098-.534-.27-.859-.172-.327-.401-.476a.66.66 0 0 0-.488-.105.9.9 0 0 0-.484.266 1.9 1.9 0 0 0-.385.595q-.163.369-.258.916a7 7 0 0 0-.092 1.205q0 .66.092 1.18.095.522.258.852.165.327.385.491.223.165.484.14a.83.83 0 0 0 .488-.232q.23-.21.4-.578.174-.373.271-.933m1-4.21v-.78l3.163-.565v.812l-1.358.229v6.632l-.51.042v-6.588zm3.612-1.425.621-.111 1.273 3.407.054-.007 1.316-3.872.673-.12-1.733 4.904v3.22l-.564.047v-3.198zm4.71 7.215v-8.056l1.72-.308q.45-.08.797.06.35.142.567.468.218.326.329.783.111.454.111 1.023 0 .567-.111 1.06-.11.495-.329.89-.215.39-.564.639-.346.243-.79.295l-1.121.132v2.964zm.609-3.886 1.101-.14q.306-.04.534-.198.231-.165.369-.421.138-.262.202-.58a3.5 3.5 0 0 0 .068-.71q0-.386-.068-.685-.064-.299-.205-.511a.75.75 0 0 0-.369-.308 1 1 0 0 0-.54-.038l-1.092.184zm4.664-5.112v8.563l-.678.056v-8.498zm6.244-1.115v9.162l-.75.062-3.34-6.61-.058.01v6.88l-.71.06v-8.697l.687-.122 3.346 6.552.062-.007v-7.154zm6.375 1.916q-.24-.947-.773-1.406-.525-.456-1.28-.328a1.9 1.9 0 0 0-.874.398q-.4.316-.702.835-.295.51-.465 1.256a7.4 7.4 0 0 0-.168 1.634q0 .891.168 1.59.172.7.472 1.139.304.435.716.646.416.21.908.166.91-.083 1.491-.911.588-.837.607-2.149l-1.904.23v-1.032l2.774-.362v1.06q0 1.2-.39 2.154-.387.948-1.066 1.493-.668.535-1.512.603a2.3 2.3 0 0 1-1.266-.24 2.6 2.6 0 0 1-.962-.87q-.39-.578-.605-1.451a8.3 8.3 0 0 1-.215-1.964q0-1.083.215-2.014.218-.935.605-1.61.39-.685.942-1.123a2.75 2.75 0 0 1 1.231-.563 2.25 2.25 0 0 1 1.365.152q.636.288 1.055.945.42.657.56 1.584z" aria-label="PROTOTYPING" style="font-size:7.7611px;font-family:Inter;-inkscape-font-specification:Inter;fill:#fff;stroke:#fff;stroke-width:.529167;stroke-linecap:round;stroke-linejoin:round;paint-order:stroke fill markers" transform="translate(-14.655 45.998)"/><path d="M63.946-38.204c-.214.047-.386.3-.386.568v1.62c0 .268.172.449.386.406l.147-.029.331-.065v14.478l-.33.022-.148.009c-.214.014-.386.24-.386.508v1.619c0 .267.172.476.386.467l.147-.005 1.174-.047.151-.006.15-.006.153-.006.151-.006.153-.006c.223-.01.403-.238.403-.512v-.594l12.455-.62v.663c0 .306.224.543.504.532l.191-.008 1.538-.061.197-.008.198-.008.2-.008.198-.008.2-.008c.293-.012.53-.275.53-.59v-1.906c0-.315-.237-.553-.53-.534l-.2.012-.199.013-.199.013-.04.002v-16.754l.04-.008.2-.04.198-.038.2-.04c.293-.058.53-.357.53-.672v-1.907c0-.315-.237-.516-.53-.452l-.2.045-.199.044-.199.044-.198.044-.197.043-1.538.34-.191.043c-.28.062-.504.358-.504.663v.709l-12.455 2.628v-.637c0-.274-.18-.456-.403-.406l-.153.034-.151.033-.152.034-.15.033-.152.033-1.174.26zm1.224.849.495-.105v.37l-.495.103zm14.672-3.097.646-.136v.42l-.023.004-.194.04-.195.041-.234.049zm-13.414 3.204 12.455-2.587v.728c0 .305.224.506.504.451l.191-.037.498-.099v16.568l-.498.032-.191.012c-.28.018-.504.279-.504.584v.7l-12.455.668v-.63c0-.274-.18-.484-.403-.47l-.153.01-.151.01-.152.01-.07.004v-14.622l.07-.014.152-.03.151-.03.153-.03c.223-.044.403-.3.403-.574zm.109 2.058c-.12.022-.215.158-.215.303v3.57c0 .147.096.25.215.231l.154-.023 11.111-1.686.188-.029.187-.028.189-.029.188-.028.19-.03c.147-.022.266-.17.266-.333v-3.98c0-.163-.119-.272-.266-.244l-.19.036-.188.035-.19.036-.186.035-.188.036-11.111 2.099zm5.485 4.947c-.103.014-.186.124-.186.245v2.67c0 .122.083.21.186.2l.17-.02 5.667-.626.187-.02.188-.021.188-.021.19-.021.189-.021c.115-.013.21-.127.21-.256v-2.836c0-.129-.095-.22-.21-.204l-.19.026-.189.026-.188.026-.188.026-.187.025-5.667.779zm-5.397.788c-.148.02-.266.14-.266.268v6.906c0 .128.118.223.266.213l.154-.011 3.19-.224.164-.012.164-.011.165-.012.165-.012.166-.011c.159-.011.287-.128.287-.262v-7.2c0-.134-.128-.224-.287-.203l-.166.023-.165.023-.165.022-.164.023-.164.022-3.19.437zm5.397 3.945c-.103.01-.186.115-.186.236v2.671c0 .121.083.214.186.206l.17-.011 5.667-.396.187-.013.188-.013.188-.013.19-.013.189-.014c.115-.008.21-.119.21-.247v-2.836c0-.129-.095-.223-.21-.212l-.19.019-.189.018-.188.018-.188.018-.187.018-5.667.548zm-6.852 5.35.495-.027v.436l-.495.024zm14.672-.788.234-.013.195-.01.194-.01.023-.002v.494l-.646.032z" style="opacity:.36211;fill:url(#l);fill-opacity:1;stroke:none;stroke-width:.115465;stroke-linecap:square;stroke-opacity:1" transform="translate(-14.655 45.998)"/><path d="M70.088-29.69v7.139c0 .132-.126.248-.282.259l-3.335.234c-.146.01-.264-.085-.264-.212v-6.896c0-.128.118-.247.264-.267l3.335-.457c.156-.021.282.068.282.2m1.765 4.196 5.82-.562c.113-.01.205.083.205.21v2.81c0 .128-.092.237-.205.245l-5.82.406c-.102.007-.185-.084-.185-.205v-2.668c0-.12.083-.226.185-.236m0-4.725 5.82-.8c.113-.015.205.075.205.202v2.81c0 .128-.092.24-.205.253l-5.82.643c-.102.012-.185-.076-.185-.197v-2.668c0-.12.083-.23.185-.243m-5.47-4.942 11.233-2.122c.145-.027.262.08.262.241v3.945c0 .16-.117.308-.262.33l-11.232 1.705c-.12.018-.215-.085-.215-.23v-3.566c0-.146.096-.28.215-.303m-2.106-2.006v17.485l16.017-.797v-20.068zm.324.298 15.282-3.174v19.093l-15.282.82zm14.595 14.702 1.724-.11c.287-.019.52.217.52.53v1.888c0 .312-.233.572-.52.584l-1.724.068c-.279.011-.502-.225-.502-.53v-1.848c0-.305.223-.565.502-.582M63.8-38.171l1.318-.292c.22-.049.396.131.396.404v1.649c0 .272-.177.526-.396.57l-1.318.26c-.213.042-.384-.14-.384-.407v-1.617c0-.267.17-.52.384-.567m0 16.985 1.318-.084c.22-.014.396.194.396.466v1.65c0 .272-.177.498-.396.507l-1.318.052c-.213.009-.384-.2-.384-.466v-1.618c0-.267.17-.493.384-.507m15.396-20.392 1.724-.382c.287-.063.52.136.52.448v1.889c0 .312-.233.609-.52.665l-1.724.34c-.279.055-.502-.146-.502-.451v-1.848c0-.305.223-.6.502-.661" style="fill:#fff;fill-opacity:1;stroke:none;stroke-width:.115465;stroke-linecap:square;stroke-opacity:1" transform="translate(-14.655 45.998)"/></svg>