<svg xmlns="http://www.w3.org/2000/svg" xmlns:xlink="http://www.w3.org/1999/xlink" width="327.921" height="111.026" viewBox="0 0 86.762 29.376"><defs><linearGradient id="b"><stop offset="0" style="stop-color:#fff;stop-opacity:1"/><stop offset=".331" style="stop-color:#2d96cd;stop-opacity:1"/><stop offset=".65" style="stop-color:#168ac6;stop-opacity:.49803922"/><stop offset="1" style="stop-color:#007ebf;stop-opacity:0"/></linearGradient><linearGradient id="c"><stop offset="0" style="stop-color:#151c64;stop-opacity:1"/></linearGradient><linearGradient id="e"><stop offset=".752" style="stop-color:#033d6a;stop-opacity:1"/><stop offset="1" style="stop-color:#014b87;stop-opacity:.84090906"/></linearGradient><linearGradient xlink:href="#a" id="g" x1="50.702" x2="48.636" y1="-7.577" y2="-24.266" gradientTransform="translate(-.11 -.087)" gradientUnits="userSpaceOnUse"/><linearGradient id="a"><stop offset="0" style="stop-color:#03579d;stop-opacity:1"/><stop offset=".153" style="stop-color:#3da8e0;stop-opacity:1"/><stop offset=".482" style="stop-color:#0f65b2;stop-opacity:1"/><stop offset="1" style="stop-color:#0073b9;stop-opacity:1"/></linearGradient><linearGradient xlink:href="#b" id="h" x1="186.427" x2="184.685" y1="34.527" y2="88.616" gradientTransform="matrix(.93202 0 0 1 12.554 0)" gradientUnits="userSpaceOnUse"/><linearGradient xlink:href="#c" id="i" x1="76.512" x2="52.324" y1="116.656" y2="116.013" gradientTransform="matrix(5.03995 0 0 7.57965 30.173 187.42)" gradientUnits="userSpaceOnUse"/><linearGradient xlink:href="#d" id="k" x1="87.459" x2="94.312" y1="-21.508" y2="-21.508" gradientUnits="userSpaceOnUse"/><linearGradient id="d"><stop offset="0" style="stop-color:#04589d;stop-opacity:1"/><stop offset="1" style="stop-color:#003a5d;stop-opacity:1"/></linearGradient><linearGradient xlink:href="#d" id="l" x1="21.883" x2="85.829" y1="-19.008" y2="-19.008" gradientUnits="userSpaceOnUse"/><radialGradient xlink:href="#e" id="f" cx="32.833" cy="-18.891" r="41.14" fx="32.833" fy="-18.891" gradientTransform="matrix(.50669 -.02494 .01577 .34989 16.495 -11.4)" gradientUnits="userSpaceOnUse"/><filter id="j" width="1" height="1" x="0" y="0" style="color-interpolation-filters:sRGB"><feFlood flood-color="#8c9dfe" flood-opacity=".827" result="flood"/><feGaussianBlur in="SourceGraphic" result="blur" stdDeviation="0.001 0"/><feOffset in="blur" result="offset"/><feComposite in="flood" in2="offset" operator="out" result="comp1"/><feComposite in="comp1" in2="SourceGraphic" operator="atop" result="comp2"/></filter></defs><path d="m28.8-33.182 63.922 3.261c2.2.113 3.885 3.615 3.885 7.86v.04c0 4.244-1.686 7.913-3.885 8.243L28.799-4.207c-7.674 1.15-14.472-4.924-14.472-13.732v-.082c0-8.808 6.798-15.552 14.472-15.16" style="fill:url(#f);stroke-width:.257657;stroke-linecap:round;stroke-linejoin:round;paint-order:stroke fill markers" transform="matrix(1.05449 0 0 1 -15.108 33.443)"/><path d="m28.923-33.424 63.798 3.489c2.2.12 3.886 3.627 3.886 7.87v.04c0 4.245-1.688 7.91-3.89 8.231L28.783-4.49C21.116-3.374 14.369-9.478 14.42-18.276v-.083c.052-8.787 6.86-15.483 14.502-15.065" style="fill:url(#g);stroke-width:.264583;stroke-linecap:round;stroke-linejoin:round;paint-order:stroke fill markers" transform="translate(-9.844 33.443)"/><path d="m84.974 28.85 349.471 19.577c4.628.26 13.622 6.496 13.597 16.907-.041 17.44-12.024 16.389-16.719 16.48L94.545 88.409c-14.956.293-57.707 3.515-57.546-30.565.098-20.675 32.652-29.85 47.975-28.992Z" style="display:inline;opacity:.75;mix-blend-mode:normal;fill:url(#h);stroke:url(#i);stroke-width:0;stroke-miterlimit:33.6;stroke-dasharray:none;stroke-dashoffset:0;filter:url(#j)" transform="matrix(.1828 0 0 .158 3.48 -3.636)"/><path d="M93.242-27.988c-.034-.001-.042.049-.042.049l-.203 1.084-.558.406s-.024.017-.024.084c0 .074.024.095.024.095l.56.425.186 1.036s.01.074.055.074a.04.04 0 0 0 .026-.01q.01.009.027.01a.04.04 0 0 0 .026-.011q.01.01.026.01t.026-.01q.01.01.027.01.015-.001.026-.011.01.01.026.01.015 0 .026-.01.01.009.026.01c.045-.001.056-.076.056-.076l.188-1.032.54-.412s.026-.017.026-.086c0-.07-.026-.089-.026-.089l-.538-.409-.202-1.088s-.008-.05-.042-.051a.03.03 0 0 0-.026.012.03.03 0 0 0-.026-.014.03.03 0 0 0-.026.012.03.03 0 0 0-.026-.013.03.03 0 0 0-.027.012.03.03 0 0 0-.026-.014.03.03 0 0 0-.026.012.03.03 0 0 0-.026-.014.03.03 0 0 0-.027.012.03.03 0 0 0-.025-.013m-2.348.399c-.128-.004-.16.178-.16.178l-.758 3.944-2.142 1.588s-.096.07-.096.317c0 .273.095.347.095.347l2.15 1.415.696 3.692s.037.265.205.245l.027-.005.028-.001.028-.006h.028l.027-.006.028-.001.028-.006h.028l.027-.006.028-.001c.166-.02.206-.291.206-.291l.695-3.765 1.934-1.591s.091-.062.091-.305c0-.248-.089-.309-.089-.309l-1.931-1.357-.742-3.885s-.03-.181-.153-.184q-.015 0-.028.002a.1.1 0 0 0-.056-.002l-.027-.003q-.015 0-.028.002l-.028-.004q-.015 0-.028.002l-.027-.003q-.016 0-.028.002zm.138 1.914.513 2.664 1.415.98s.066.045.066.225c0 .177-.067.222-.067.222l-1.419 1.151-.504 2.713s-.003.018-.01.042l-.008-.04-.495-2.646-1.514-1.014s-.067-.052-.067-.246c0-.175.068-.224.068-.224l1.509-1.136zm-2.64 7.193c-.039.003-.048.057-.048.057l-.229 1.178-.628.502s-.028.02-.028.092c0 .078.027.098.027.098l.631.38.21 1.076s.01.077.062.071a.05.05 0 0 0 .029-.014.04.04 0 0 0 .03.007.05.05 0 0 0 .029-.015.04.04 0 0 0 .03.008.05.05 0 0 0 .029-.015.04.04 0 0 0 .03.007.05.05 0 0 0 .029-.014.04.04 0 0 0 .03.007.05.05 0 0 0 .029-.014.04.04 0 0 0 .029.007c.05-.006.063-.087.063-.087l.212-1.119.607-.507s.029-.02.029-.094-.029-.091-.029-.091l-.605-.366-.227-1.13s-.009-.052-.046-.049a.04.04 0 0 0-.03.017.04.04 0 0 0-.03-.012.04.04 0 0 0-.029.017.03.03 0 0 0-.029-.012.04.04 0 0 0-.03.017.04.04 0 0 0-.029-.012.04.04 0 0 0-.03.017.03.03 0 0 0-.029-.012.04.04 0 0 0-.03.016.04.04 0 0 0-.029-.011" style="display:inline;opacity:.362;fill:url(#k);fill-opacity:1;stroke:none;stroke-width:.059247;stroke-linecap:round;stroke-linejoin:round;stroke-dasharray:none;stroke-opacity:1" transform="translate(-9.844 33.443)"/><path d="M91.227-27.581c-.127-.003-.158.178-.158.178l-.752 3.927-2.125 1.582s-.095.069-.095.315c0 .272.094.346.094.346l2.132 1.41.69 3.677s.038.264.204.245.205-.291.205-.291l.694-3.762 1.932-1.59s.09-.062.09-.305c0-.248-.088-.309-.088-.309l-1.929-1.357-.74-3.881s-.031-.182-.154-.185m0 1.64c.089 0 .11.13.11.13l.535 2.79 1.405.977s.065.044.065.223c0 .177-.067.222-.067.222l-1.407 1.146-.5 2.702s-.03.195-.148.207c-.12.011-.146-.18-.146-.18l-.495-2.643-1.512-1.014s-.066-.052-.066-.245c0-.176.067-.225.067-.225l1.507-1.134.539-2.826s.022-.13.114-.13m-2.424 10.783s-.012.08-.062.087-.062-.071-.062-.071l-.207-1.072-.625-.379s-.028-.02-.028-.098c0-.07.028-.092.028-.092l.623-.5.227-1.171s.009-.055.048-.058c.037-.003.046.05.046.05l.227 1.128.604.366s.028.016.028.091c0 .074-.029.094-.029.094l-.605.507zm4.806-9.655s-.011.074-.056.075c-.044 0-.054-.074-.054-.074l-.185-1.032-.556-.423s-.024-.021-.024-.094c0-.067.025-.084.025-.084l.553-.405.201-1.08s.008-.05.043-.049c.033.001.041.052.041.052l.202 1.087.537.409s.026.018.026.089c0 .069-.026.085-.026.085l-.539.413z" style="display:inline;fill:#f1f1f1;fill-opacity:1;stroke:none;stroke-width:.059247;stroke-linecap:round;stroke-linejoin:round;stroke-dasharray:none;stroke-opacity:1" transform="translate(-9.844 33.443)"/><path d="M38.274-24.392a3.2 3.2 0 0 0-1.483.36 2.7 2.7 0 0 0-1.074 1.012 2.83 2.83 0 0 0-.406 1.493c-.006 1.265.733 2.112 2.193 2.536l1.042.3q.303.081.515.162.216.076.446.208.23.127.37.282.14.15.229.381.09.23.09.512-.004.795-.577 1.331a2.24 2.24 0 0 1-1.094.555 2.2 2.2 0 0 1-.57-.103 1.54 1.54 0 0 1-.715-.505q-.287-.366-.327-.914l-.153.01-.614.04-.32.02-.78.05q.074 1.269.912 1.968.835.692 2.19.577l.074-.007.075-.005.074-.008.076-.005.074-.007.074-.006.074-.007.075-.005.074-.007q.038-.002.074-.006.705-.06 1.273-.322a2.9 2.9 0 0 0 .93-.678q.37-.414.568-.935.197-.525.2-1.117a2.7 2.7 0 0 0-.083-.7 2.2 2.2 0 0 0-.214-.562 1.9 1.9 0 0 0-.329-.434 2.4 2.4 0 0 0-.39-.333 2.7 2.7 0 0 0-.438-.247 5.203 5.203 0 0 0-.827-.294l-.846-.236a5 5 0 0 1-.34-.103 5 5 0 0 1-.358-.141 1.8 1.8 0 0 1-.356-.216 2.4 2.4 0 0 1-.296-.277 1.2 1.2 0 0 1-.211-.38 1.5 1.5 0 0 1-.073-.483q.003-.731.527-1.206.399-.365.978-.459.532.069.915.374.51.398.58 1.11l.723-.02.234-.007.57-.016.143-.004a2.57 2.57 0 0 0-.368-1.3 2.4 2.4 0 0 0-.972-.905 2.9 2.9 0 0 0-1.416-.327h-.074l-.073.001h-.075l-.074.001h-.075l-.073.001-.075.001h-.075l-.074.001zm35.941-.302q-.437.004-.796.262-.36.256-.573.736a2.65 2.65 0 0 0-.215 1.088c-.001.923.394 1.547 1.176 1.87l.561.23q.165.063.278.124.117.059.242.158a.87.87 0 0 1 .325.495q.05.17.05.378-.002.586-.312.972-.245.304-.59.393a1 1 0 0 1-.308-.085.92.92 0 0 1-.384-.38 1.5 1.5 0 0 1-.177-.673l-.081.005-.329.02-.17.012-.415.026q.04.927.487 1.45.447.519 1.174.457l.04-.004q.021 0 .041-.003.02 0 .04-.004l.04-.002.04-.004.04-.003.04-.004.04-.003.04-.004q.02 0 .04-.003.382-.032.69-.216.305-.188.504-.485.201-.3.308-.682a3.1 3.1 0 0 0 .062-1.341q-.044-.243-.117-.418a1.5 1.5 0 0 0-.18-.323 1.55 1.55 0 0 0-.45-.436q-.135-.086-.233-.131a2 2 0 0 0-.216-.093l-.457-.18a2 2 0 0 1-.184-.078 2 2 0 0 1-.194-.106 1 1 0 0 1-.191-.161 1.6 1.6 0 0 1-.16-.206 1 1 0 0 1-.113-.279 1.5 1.5 0 0 1-.04-.354q0-.534.282-.881a.9.9 0 0 1 .526-.333.87.87 0 0 1 .495.277q.277.295.315.82l.393-.01.127-.004.311-.009.078-.002a2.4 2.4 0 0 0-.202-.962 1.6 1.6 0 0 0-.53-.67 1.25 1.25 0 0 0-.767-.244h-.08l-.04.001h-.08l-.04.001h-.08l-.04.001zm5.633-.047q-.39.003-.722.257-.332.255-.572.719-.24.462-.379 1.144-.135.682-.137 1.502 0 .823.133 1.494.135.666.376 1.11.244.438.583.662.339.221.741.188l.036-.003q.018 0 .035-.003l.037-.003.035-.003.036-.003q.017 0 .035-.003l.036-.003q.018 0 .035-.003l.036-.003q.018 0 .035-.003.475-.04.84-.406.366-.365.57-1.01.204-.64.205-1.46v-.724l-.068.003-.276.013-1.157.053-.355.017-.001.74.355-.02.697-.038q-.01.91-.33 1.475-.261.463-.653.575a.8.8 0 0 1-.35-.138 1.4 1.4 0 0 1-.424-.493 3 3 0 0 1-.284-.86 6.3 6.3 0 0 1-.1-1.19q0-.664.103-1.2.104-.536.282-.883.18-.349.417-.535a.9.9 0 0 1 .334-.169q.309.062.534.356.291.377.42 1.058l.347-.011.144-.005.275-.009.069-.002a3.8 3.8 0 0 0-.291-1.14q-.222-.499-.565-.773a1.17 1.17 0 0 0-.76-.273h-.072l-.035.001h-.071l-.036.001h-.072l-.035.001zm-57.7.636 3.734 10.833.885-.074.364-.03.697-.058.173-.014 3.556-10.745-.165.001-.663.006-.364.004-.842.008-2.559 7.931-2.57-7.883-.182.002-.732.006-.402.004zm10.037-.094-.048 10.407.813-.068.298-.024.64-.054.159-.013.046-10.266-.159.001-.64.006-.297.003zm10.586-.1-.024 6.372a4 4 0 0 0 .236 1.427q.244.635.658 1.028.413.392.953.58a2.74 2.74 0 0 0 1.207.129l.133-.012.134-.011.132-.011a4 4 0 0 0 .198-.016 2.9 2.9 0 0 0 1.11-.32q.515-.27.902-.708.386-.439.608-1.077.225-.637.228-1.387l.02-6.055-.126.001-.507.005-.236.002-.642.006-.022 6.129a2.8 2.8 0 0 1-.164.969q-.159.44-.433.742a2.16 2.16 0 0 1-1.065.63 1.802 1.802 0 0 1-1.078-.478 1.9 1.9 0 0 1-.45-.695 2.7 2.7 0 0 1-.162-.973l.023-6.292-.135.001-.549.005-.255.003zm9.521-.09-2.574 9.136.622-.052.27-.022.492-.041.122-.01.699-2.593 2.12-.132.651 2.436.575-.047.248-.021.453-.038.113-.01-2.36-8.619-.117.001-.472.005-.245.002zm4.246-.04-.025 8.611.557-.046 3.034-.252.42-.035.103-.009.002-.893-.104.008-.418.031-2.281.172.02-7.598h-.109l-.44.005-.203.002zm6.897-.064-.02 8.102.494-.041 1.207-.1.383-.033.095-.007q1.21-.102 1.86-1.192.649-1.083.651-2.911.005-1.81-.626-2.824-.635-1.025-1.794-1.015h-.095l-.382.004-1.28.012zm5.263-.05-.015 7.714.447-.037 2.566-.214.337-.028.084-.007.001-.802-.083.007-.338.025-1.96.147.005-2.595 1.772-.088.339-.017.084-.005.002-.803-.085.004-.338.014-1.772.075.005-2.58 1.921-.032.338-.006.084-.002.001-.801h-.084l-.337.004-2.527.023zm7.961-.074-.01 7.126.382-.032.14-.012.302-.025.075-.006.01-7.06-.076.001-.301.003-.14.001zm5.644-.053-.006 6.71.338-.029.124-.01.268-.022.067-.006.004-4.469 1.721 4.326.32-.027.104-.008.254-.021.063-.006.005-6.469h-.063l-.254.003-.11.001-.32.003-.004 4.396-1.728-4.38-.067.001-.268.003h-.11zm-17.71 1.027.571-.01q.931-.015 1.406.786.474.796.47 2.241-.003 1.469-.493 2.314-.49.851-1.471.925l-.498.037zm-11.589 1.657.79 2.951-1.608.088z" style="font-size:7.7752px;font-family:Inter;-inkscape-font-specification:Inter;fill:url(#l);stroke:none;stroke-width:.529167;stroke-linecap:round;stroke-linejoin:round;paint-order:stroke fill markers" transform="translate(-9.844 33.443)"/><path d="m24.575-24.127 2.937 9.018.115-.008 2.905-9.066 1.189-.012-3.547 10.732-1.23.102-3.682-10.754zm9.676-.091-.046 10.254-1.094.09.047-10.334zm6.718 2.374q-.068-.707-.573-1.103-.502-.403-1.27-.39-.826.013-1.347.49a1.57 1.57 0 0 0-.526 1.205q0 .26.073.482.074.218.212.38.141.155.294.277.153.12.355.215.206.09.358.141.151.053.34.103l.844.235a5 5 0 0 1 .825.294q.246.113.436.247.194.129.39.333.2.199.328.434.133.234.213.56.084.327.083.7a3.2 3.2 0 0 1-.2 1.116q-.197.521-.565.934a2.9 2.9 0 0 1-.929.676 3.7 3.7 0 0 1-1.27.323q-1.337.113-2.16-.574-.827-.695-.9-1.956l1.085-.07q.039.548.327.914.29.36.713.504.424.138.94.099.877-.068 1.447-.603.566-.532.57-1.322 0-.281-.09-.51a1.1 1.1 0 0 0-.225-.377 1.4 1.4 0 0 0-.365-.281 2.7 2.7 0 0 0-.44-.207 5 5 0 0 0-.509-.161l-1.028-.298c-1.441-.421-2.17-1.264-2.165-2.52a2.8 2.8 0 0 1 .4-1.482 2.67 2.67 0 0 1 1.061-1.005q.661-.352 1.463-.359.79-.006 1.412.327.622.327.97.905.35.575.367 1.298zm7.556-2.509.867-.008-.02 6.049q-.003.749-.228 1.385-.222.637-.606 1.075-.387.44-.9.708-.517.27-1.108.32a2.7 2.7 0 0 1-1.126-.135 2.6 2.6 0 0 1-.941-.577 2.7 2.7 0 0 1-.65-1.022 4 4 0 0 1-.234-1.417l.024-6.331.937-.01-.023 6.286q-.002.543.161.972.166.43.45.695.28.261.641.386.363.125.765.093.4-.03.752-.206.355-.177.628-.472.27-.3.428-.737.159-.436.162-.963zm2.82 8.964-.88.074 2.543-9.08.832-.008 2.355 8.611-.813.068-.644-2.423-2.695.168zm.96-3.565 2.187-.118-1.045-3.93-.052.002zm4.875 3.08.024-8.56.752-.007-.021 7.59 2.798-.21-.002.892zm8.509-.707-1.683.14.019-8.057 1.755-.017q1.157-.01 1.79 1.014.63 1.014.626 2.822-.002 1.826-.65 2.908c-.434.725-1.05 1.123-1.857 1.19m-1.014-.776.974-.073q.971-.074 1.456-.92.485-.84.488-2.301.003-1.439-.466-2.23-.47-.797-1.391-.782l-1.047.018zm4.543.483.015-7.673 2.944-.028-.001.8-2.34.041-.005 2.577 2.192-.092-.002.802-2.191.11-.005 2.593 2.377-.179-.001.801zm6.46-5.935q-.039-.522-.313-.816a.87.87 0 0 0-.688-.292.9.9 0 0 0-.726.355q-.28.346-.282.88 0 .19.04.354.04.16.114.28.076.114.159.205.082.09.19.16.113.067.194.107.082.039.183.078l.457.18a2.3 2.3 0 0 1 .448.223q.135.086.238.186.104.097.212.25.11.149.18.323.072.175.117.417t.046.518q0 .436-.108.822a2.4 2.4 0 0 1-.308.682q-.198.297-.504.484a1.6 1.6 0 0 1-.687.217q-.721.06-1.163-.456-.443-.52-.483-1.443l.58-.037q.021.401.176.673a.92.92 0 0 0 .384.38q.228.107.507.087.474-.037.783-.423.308-.385.308-.968 0-.207-.049-.376a.871.871 0 0 0-.322-.492 1.4 1.4 0 0 0-.239-.157 2 2 0 0 0-.275-.124l-.556-.229c-.774-.321-1.165-.943-1.164-1.862q0-.605.213-1.082.21-.477.568-.732.355-.258.787-.26.428-.005.766.243a1.6 1.6 0 0 1 .53.67q.19.426.201.96zm1.955-1.817-.01 7.054-.517.043.01-7.092zm3.77 2.081q-.128-.678-.416-1.053-.287-.377-.713-.37a.82.82 0 0 0-.504.19 1.6 1.6 0 0 0-.416.535q-.18.346-.282.882a6.4 6.4 0 0 0-.104 1.199q0 .662.101 1.19.104.526.284.859.18.328.423.493.243.163.523.142.51-.039.828-.604.316-.56.327-1.468l-1.043.057v-.736l1.5-.07-.001.725q0 .819-.204 1.459t-.569 1.008q-.365.366-.839.406-.398.034-.734-.188a1.8 1.8 0 0 1-.577-.66q-.24-.441-.373-1.104a7.6 7.6 0 0 1-.132-1.487q0-.816.136-1.495a4.4 4.4 0 0 1 .375-1.139q.239-.461.567-.715.33-.253.715-.256.415-.003.76.273.342.274.563.772.22.493.291 1.14zm4.225-2.156-.005 6.464-.42.035-2-5.05-.037.001-.005 5.219-.459.038.007-6.68.443-.004 2.01 5.095.035-.002.004-5.112z" aria-label="VISUAL DESIGN" style="font-size:7.7752px;font-family:Inter;-inkscape-font-specification:Inter;fill:#fff;stroke:#fff;stroke-width:.529167;stroke-linecap:round;stroke-linejoin:round;paint-order:stroke fill markers" transform="translate(-9.844 33.443)"/></svg>