<svg xmlns="http://www.w3.org/2000/svg" xml:space="preserve" width="34" height="34" viewBox="0 0 8.996 8.996"><g style="display:inline" transform="translate(58.838 7.217)scale(.16417)"><path d="M-347.885-40.673a2.06 2.06 0 0 0-2.065 2.065V1.28a2.06 2.06 0 0 0 2.065 2.064h23.47c.729 0 1.366.272 1.734-.295-2.175-.43-4.388-2.983-4.388-5.2 0-2.344 2.392-4.965 4.718-5.253v-31.204a2.06 2.06 0 0 0-2.065-2.065z" style="display:inline;fill:none;fill-opacity:1;fill-rule:nonzero;stroke:#f1f1f1;stroke-width:1.06805;stroke-linecap:round;stroke-linejoin:round;stroke-dasharray:none;stroke-opacity:1"/><g style="display:inline"><path d="M-321.418-50.701a27.4 27.69 0 0 0-27.4 27.689 27.4 27.69 0 0 0 27.4 27.689 27.4 27.69 0 0 0 27.399-27.69 27.4 27.69 0 0 0-27.4-27.688m-1.573 2.938c.324-.01.296.424.296.424v10.098l-7.93-.001c-.435 0-.456-.312-.383-.497 2.944-7.916 5.987-9.033 7.732-9.935a.7.7 0 0 1 .285-.09m3.302 0a.7.7 0 0 1 .285.089c1.744.902 4.79 2.019 7.733 9.935.073.185.052.497-.383.497l-7.932.001V-47.34s-.027-.434.297-.424m-9.891 1.196c.46-.007-.107.802-.107.802-3.916 5.84-4.187 8.523-4.187 8.523s-6.455-.012-7.22 0c-.58.006-.141-.579-.135-.59 4.513-6.198 9.888-8 11.145-8.578.236-.109.397-.155.504-.157m16.5 0c.106.002.267.048.503.157 1.257.579 6.632 2.38 11.145 8.578.006.011.445.596-.134.59-.766-.012-7.221 0-7.221 0s-.271-2.682-4.187-8.523c0 0-.568-.81-.107-.802m-9.96 11.869c.38 0 .347.364.347.364v9.801c0 .327-.297.282-.297.282l-10.1.004c-.394-.002-.353-.64-.353-.67 0-4.303 1.112-8.428 1.291-9.17.15-.623.686-.61.686-.61zm-12.195.001s.62-.016.403.666c-.235.743-1.19 4.492-1.157 9.155-.003.15.06.626-.56.629h-9.088s-.546.075-.451-.732c.308-2.52.715-5.786 2.995-9.716 2.561 0 5.297 0 7.858-.002m27.77 0c2.56.001 5.297.003 7.858.002 2.28 3.93 2.686 7.196 2.994 9.717.095.806-.451.73-.451.73h-9.086c-.62-.002-.56-.478-.562-.628.033-4.663-.92-8.412-1.156-9.155-.216-.682.402-.666.402-.666m-12.17.007 8.425.002s.535-.014.686.61c.179.741 1.29 4.868 1.29 9.17 0 .03.043.667-.352.67l-10.1-.005s-.297.045-.297-.281v-9.802s-.033-.364.347-.364m10.053 12.918c.395.002.353.64.353.67 0 4.303-1.112 8.428-1.291 9.17-.15.624-.686.61-.686.61l-8.426.001c-.38 0-.347-.363-.347-.363v-9.802c0-.327.298-.28.298-.28zm-36.1.007c.03 0 .05.002.05.002h9.086c.62.003.558.479.561.628-.033 4.664.922 8.414 1.157 9.157.216.682-.403.664-.403.664-2.561 0-5.297-.002-7.858-.001-2.28-3.93-2.687-7.195-2.995-9.716-.077-.655.27-.73.402-.734m48.645 0c.104-.003.512.03.428.734-.308 2.521-.713 5.786-2.994 9.716-2.56-.001-5.298 0-7.859.001 0 0-.618.018-.402-.664.236-.743 1.189-4.493 1.156-9.157.003-.15-.058-.625.562-.628h9.086zm-36.048.002 10.1.005s.296-.046.296.28v9.802s.033.364-.347.364l-8.426-.002s-.535.014-.686-.61c-.179-.741-1.291-4.867-1.291-9.17 0-.03-.04-.667.354-.67m10.392 12.94v10.1s.04.657-.582.335c-1.744-.902-4.788-2.019-7.731-9.935-.074-.185-.052-.497.383-.497zm2.709 0 7.931.001c.435 0 .457.312.383.497-2.943 7.916-5.988 9.033-7.733 9.935-.622.322-.581-.335-.581-.335zm-21.108.001c.738.002 7.22 0 7.22 0s.273 2.682 4.189 8.523c0 0 .859 1.224-.398.645s-6.632-2.38-11.145-8.578c-.006-.011-.445-.596.134-.59m32.319.003s6.454.012 7.22 0c.58-.006.14.578.135.59-4.514 6.197-9.89 8-11.147 8.578-1.257.579-.396-.645-.396-.645 3.915-5.841 4.188-8.523 4.188-8.523" style="display:inline;fill:#f1f1f1;fill-opacity:1;stroke:none;stroke-width:1.63728;stroke-linecap:round;stroke-linejoin:round;stroke-dasharray:none;stroke-opacity:1" transform="matrix(.37659 0 0 .37658 -214.98 -13.633)"/></g><path d="M-349.439-4.601h26.56v1.579h-26.56z" style="fill:#f1f1f1;fill-opacity:1;fill-rule:nonzero;stroke:none;stroke-width:.973564;stroke-linecap:round;stroke-linejoin:round;stroke-dasharray:none;stroke-opacity:1;paint-order:normal"/><rect width="8.7" height="1.31" x="-340.361" y="-8.922" ry=".479" style="fill:#f1f1f1;fill-opacity:1;fill-rule:nonzero;stroke:none;stroke-width:1.09828;stroke-linecap:round;stroke-linejoin:round;stroke-dasharray:none;stroke-opacity:1;paint-order:normal"/><path d="M-342.702-40.462h-.027 13.371-2.754zm13.344 0c.155.013.235.126.182.266l-1.131 2.94c-.053.137-.219.25-.381.264l-.032.001h-10.593a.47.47 0 0 1-.418-.266l-1.177-2.94c-.055-.139.024-.252.179-.264h-1.396c-.21 0-.32.165-.25.37l1.429 4.081a.59.59 0 0 0 .507.37h12.856l.036-.002a.57.57 0 0 0 .465-.368l1.372-4.082c.07-.204-.044-.37-.253-.37z" style="display:inline;fill:#f1f1f1;stroke-width:.964873;stroke-linecap:round;stroke-linejoin:round"/><path d="M-322.628-11.812c-.166.006-.324.038-.491.038-.072 0-.252-.026-.33 0-.033.01-.176.085-.199.1h-.003v.007l.003.01v.015h-.003v.003h-.013l-.028-.006h-.019l-.003.003h-.003v.016l.003.01v.009c-.044.088-.145.156-.167.264-.006.033.008.066 0 .098v.003l-.003.003-.003.003-.019.016h-.003v.003l-.003.003v.004c-.006.029.01.07 0 .097-.008.024-.029.042-.035.066-.018.073.018.16 0 .233-.006.024-.025.042-.031.066-.026.102.046.27 0 .362-.06.118-.039.121-.066.233-.018.07-.078.096-.101.164-.026.076-.072.154-.098.233l-.003.003v.009l.006.032v.016l-.003.003v.003h-.003v.003h-.009c-.02 0-.056-.01-.076-.01l-.003.004h-.006l-.003.003-.004.003c-.01.015-.02.042-.063.063h-.003c-.027.007-.091-.013-.12-.006l-.002.003h-.004l-.003.003v.003h-.003v.006l.003.004.003.009v.009h-.003v.004h-.003c-.039.011-.272.038-.321.06l-.003.003h-.003v.003h-.003v.006l.003.003.003.013v.009h-.006l-.01.003c-.015 0-.035-.004-.05-.003h-.003a.8.8 0 0 0-.265.098.9.9 0 0 1-.264.135c-.018.003-.042-.005-.06-.003h-.003l-.003.003q-.036.01-.047.016l-.004.003-.003.003v.006h.003c.016.004.051.005.063.007h.007v.003h-.004a1 1 0 0 1-.116.028c-.032.007-.065-.006-.098 0-.074.015-.107.021-.116.025v.004c.012.001.048.002.063.006h.006v.003h.003v.003h-.003a.2.2 0 0 1-.053.025c-.097.033-.257-.029-.33-.066v-.003h-.007l-.044.003h-.016l-.01-.01-.002-.002c-.006-.006-.014-.017-.02-.022v-.004l.004-.015v-.013h-.003l-.01-.003h-.003l-.038.003h-.015l-.004-.003h-.003l-.003-.003c-.015-.013-.03-.04-.044-.054l-.003-.003-.01-.003-.003-.003h-.006l-.01-.003c-.003 0-.011.005-.015.006l-.003-.003c-.014 0-.034.006-.048.006h-.003l-.01-.003h-.002v-.003h-.003v-.01l.003-.009v-.003l.003-.003v-.003h-.003v-.004a.5.5 0 0 0-.095-.097l-.003-.003h-.006l-.01.003h-.01v.003h-.005v-.003h-.004v-.006l-.003-.004c0-.012.006-.031.007-.044v-.012l-.004-.003-.003-.004-.003-.003h-.003c-.01-.005-.029-.01-.04-.015l-.004-.004-.01-.003-.003-.003-.003-.003c-.021-.032-.03-.131-.063-.164l-.003-.003c-.015-.01-.041-.012-.057-.022l-.003-.003-.003-.003c-.035-.035-.031-.098-.066-.132a2 2 0 0 0-.16-.13l-.004-.003c-.055-.018-.178 0-.233 0-.128 0-.27-.02-.396 0a3 3 0 0 0-.3.098v.019l.004.003v.013h-.003v.003h-.003l-.003.003h-.004c-.022.004-.057-.014-.081-.01l-.004.004h-.006c-.038.02-.15.124-.164.132-.114.069-.226.12-.33.198-.088.066-.206.072-.296.132-.05.034-.08.102-.132.132s-.114.04-.167.067c-.07.034-.115.118-.164.166-.035.035-.092.037-.132.067a6 6 0 0 0-.198.163l-.01.013c-.01.026-.01.064-.025.088h-.003v.003h-.006l-.007-.003-.009-.003h-.006v.003a.2.2 0 0 0-.063.05c-.007.016-.004.036-.038.082-.078.104-.3.24-.33.362a2 2 0 0 0 0 .463v.006h.003v.003q.01.008.022.016l.003.003.003.003v.003c.016.032.024.065.035.098 0 .02-.007.041-.004.06l.004.003v.003c.014.037.048.065.066.1.05.1.038.198.066.297.013.047.044.088.066.132.137.12.311.26.397.431l.006.02.003.002v.003l-.003.003v.004h-.003l-.003.003h-.004l-.012-.003h-.006v.006q.008.014.056.063h.016l.003-.003h.013v.003c.027.027.11.134.132.164.087.115.135.253.233.365l.038.044a.7.7 0 0 1-.004.145l-.003.009v.003h-.003v.003l-.019.013-.003.003-.003.003v.003h-.003v.003c-.014.054.017.115 0 .167v.003h-.003v.004c-.002 0-.008.005-.01.006l-.01.006-.002.003-.004.003-.003.004v.003h-.003c-.014.042.014.09 0 .132v.006l-.003.003c-.006.006-.016.011-.022.016v.003h-.003l-.003.003v.004c-.032.063-.043.16-.066.23l-.045.138v.006h.004l.012-.016.003-.003v-.003h.007l.003.003a.6.6 0 0 1-.02.139c-.005.028-.056.073-.065.1v.013l.003.038v.012l-.003.004c-.047.093-.15.167-.198.264-.016.031-.014.07-.032.1a.34.34 0 0 1-.132.133h-.01l-.003.003c-.01 0-.026-.005-.038-.006h-.012l-.003.003h-.003c-.019.016-.078.115-.164.132-.028.006-.06-.008-.088-.003l-.01.003h-.006c-.02.014-.036.048-.057.063l-.003.003c-.03.018-.067.02-.1.032h-.004l-.019-.003h-.003v.003h-.006l-.003.003h-.003l-.003.003c-.006.006-.01.017-.016.022l-.003.003h-.003v.003h-.004c-.057.015-.168-.026-.226-.003l-.003.003a.8.8 0 0 1-.33.098c-.248.027-.51.022-.731.132-.13.065-.054.211-.098.3-.028.056-.037.106-.066.163-.03.061.022.167 0 .233v.003h-.003l-.003.003-.006.006-.016.01v.003l-.003.003v.003h-.003c-.035.104 0 .291 0 .397 0 .063.02.173 0 .233-.026.074-.012.138-.032.198v.003l-.003.003-.003.004-.029.025-.031.097c-.009.044.014.09 0 .133v.003h-.003v.003h-.003l-.007.006-.015.013-.003.003v.003h-.004v.003a1.6 1.6 0 0 0 0 .428q.015.059.022.073h.004v.003h.006l.006-.029v-.003h.003a1 1 0 0 1 .025.123c.022.128.04.242.101.362.021.042.072.062.098.1l.003.004c.013.03.005.094.025.123l.003.003.003.003h.004v.003h.003l.003-.003h.003l.01-.003h.009v.003h.003v.013l-.003.009v.009q.029.03.044.038l.01.003v.004h.006l.003-.004h.003v-.003l.003-.01V-.64h.006v.004c.009.008.027.03.057.075.027.041.031.098.066.132.01.011.273.135.33.164.09.045.286.015.366.035.112.028.22.104.33.132.013.001.032-.002.044-.003h.019l.003.003h.004v.003h.003v.003c.005.01.01.027.012.038l.003.01.004.003v.003l.003.003.003.003h.003c.029.01.068-.008.098 0l.006.003c.02.012.037.044.057.06l.003.003c.082.055.318.128.365.198v.004l.003.003v.006c0 .011-.005.026-.006.038v.012l.003.003v.004h.009l.01-.004h.012l.032.02V.32h.003v.012l-.006.01-.003.003-.004.003v.006l-.003.003V.36l.003.01c.002.006.007.02.013.028l.003.003.003.004h.003l.041.015.003.003.01.004.003.003v.003h.003v.016l-.006.031v.013l.003.003c.044.089.107.197.132.299.022.087.031.176.066.264v.003h.004v.004l.009.006.01.006.003.003.003.003v.004h.003v.003l.003.01v.002l-.003.038v.016c.017.053.088.104.1.167.04.2.057.413-.034.595v.003l-.003.01c0 .01.005.026.006.037v.013l-.003.003c-.048.095-.237.213-.264.296v.009c0 .013.006.032.006.044l-.003.003v.01h-.003c-.035.051-.154.09-.199.135-.035.035-.031.097-.066.132-.04.04-.097.045-.132.098-.06.09-.122.222-.198.299l-.004.003c-.015.01-.04.012-.056.022l-.003.003-.003.003-.004.003c-.01.016-.016.041-.025.057l-.003.003v.003c-.074.093-.108.111-.123.139-.01.024-.01.065-.01.16 0 .017-.007.035-.005.05v.004l.003.01.003.003v.003h.006l.003-.003.01-.004h.012v.004c.007.013.025.083.032.097h.003c.028.028.07.038.098.066l.003.003c.012.018.018.046.031.063.07.093.17.165.23.265.018.03.017.07.035.1.043.073.098.115.132.199.019.047.033.12.066.163.037.05.104.077.132.133v.006l.003.003c0 .013-.006.032-.006.044v.013h.003v.003l.003.003.003.003h.004l.04.016.01.003.003.003.003.003a.3.3 0 0 1 .05.085v.01h-.003v.003h-.01v.003h-.005v.01q.003.013.034.056c.052.07.103.138.164.198.015.013.043.015.06.026l.003.003.003.003.003.003.006.01c.005.011.008.03.013.04l.003.004.003.003.004.003.003.003.006.003c.027.014.064.018.091.032.135.067.24.19.365.264.123.074.27.1.397.164.117.058.222.13.365.1l.003-.003c.017-.006.037-.021.054-.028l.01-.003c.068-.014.162.022.229 0h.003l.003-.003.003-.003.016-.02v-.002h.003l.003-.004h.004l.003-.003c.035-.01.092.016.126.003h.003c.077-.038.15-.039.23-.066.025-.008.076-.054.1-.066.08-.04.043-.144.098-.198l.01-.006.002-.004c.012-.004.03-.007.041-.012l.004-.003.003-.003.003-.004.003-.003.003-.006c.012-.025.014-.064.028-.088l.004-.003.003-.007h.003l.003-.003.041-.015h.003l.01-.007.003-.003.003-.003.003-.003c.007-.012.01-.032.016-.044l.003-.01.003-.003.003-.003c.06-.06.224-.126.3-.164.05-.017.292 0 .295 0 .128 0 .309-.04.431 0 .133.045.26.098.397.132.096.024.203.008.299.032.067.017.3.08.359.129l.003.003q.06.059.066.073v.006h-.003a.4.4 0 0 1-.066-.032c.009.009.034.03.104.085.057.046.128.097.163.167l.003.006.004.004v.012l-.01.016v.013l.003.015.022.038.004.003.003.003h.006v-.006l-.003-.038.034.098c.01.027-.01.06-.003.088v.006l.003.003v.004l.004.003.003.003.012.01q.005.001.01.006v.003l.003.003.003.003c.025.075-.001.067.032.132.039.079-.028.216 0 .3l.003.002.003.004.012.009.01.006v.003l.003.004.003.003c.025.075-.001.066.032.132.013.033-.014.091-.004.126l.004.003v.003l.015.022.004.003.003.004.019.009c.002.002.01.006.012.01a.7.7 0 0 1 .057.116h.003v.003h-.019v.003l-.003.003v.007a.3.3 0 0 0 .01.053c.025.103.163.261.198.365v.007l-.003.044v.006l.003.01c.047.094.381.399.497.427.138.035.294.001.428.035.144.036.278.032.431.032.1 0 .235-.024.33 0h.004v.003h.003l.003.003.013.019.003.003.003.003.003.003c.084.03.791 0 .926 0 .07 0 .378.027.43 0l.133-.066c.04-.02.091.016.132 0 .088-.035.154-.146.233-.198.06-.04.205-.122.23-.199.104-.312-.032-.695.035-1.026q.03-.152.066-.299c.014-.057.095-.409.129-.46l.003-.002c.028-.022.14-.075.164-.098l.003-.003V5.35l-.003-.01v-.016a.8.8 0 0 1 .166-.097q.049-.019.098-.035.016.002.032 0h.003c.021-.01.073-.052.094-.063l.003-.003h.01c.014 0 .033.004.047.003h.006l.003-.003h.003V5.11l-.003-.003v-.012l.003-.004.004-.003h.003l.003-.003c.022-.004.057.014.082.01h.006l.003-.004h.003v-.003c.008-.006.016-.017.022-.025l.004-.003.1-.032c.044-.006.089.007.132 0 .12-.017.213-.108.331-.132.05-.01.356-.016.422-.003h.006l.003.003.132.066c.026.008.07-.01.095-.003l.003.003h.003l.003.004.02.022v.003h.002l.003.003h.004c.032.008.065-.007.097 0 .094.019.22.093.3.132.02.014.036.044.056.06l.01.006q.011.005.018.006l.003.004h.003v-.004h.007V5.17h.006l.06.057h.003v.009l-.003.02v.002l.035.035c.02.014.044.02.066.031l.022-.003h.003v.003h.006c.061.031.108.103.167.133q.038.018.047.025l.003.003.003.003v.003h-.034v.003h-.003v.01l.015.019c.016.012.044.017.06.028l.003.003.003.003c.021.02.032.08.101.132.017.013.043.014.06.026l.003.003.003.003c.03.03.046.111.095.132h.003l.006.003h.003c.014 0 .034-.007.048-.006h.003l.003.003h.003a.3.3 0 0 1 .085.054l.003.003v.003h-.003v.003h-.003l-.019.006h-.003v.004h.003c.01.004.032.016.07.028.12.04.214-.076.298-.132l.003-.003h.007l.003.003h.022l.003-.01.003-.003c.006-.013.01-.032.016-.044l.003-.003.003-.003.003-.003.013-.013.003-.003h.006v-.003h.007v.003h.003v.006l.003.025v.003a.3.3 0 0 0 .031-.053c.024-.048.07-.056.133-.098.05-.033.05-.098.1-.132.016-.01.035-.013.05-.022l.01-.006.003-.003.003-.003.004-.007c.011-.025.01-.064.025-.088l.003-.003.003-.003.003-.003.003-.003c.016-.01.042-.015.057-.026.034-.022.045-.067.06-.09l.003-.004.003-.003v-.003h.013l.01.003h.012v-.003c.02-.03.011-.1.031-.13.037-.054.303-.186.365-.232.04-.03.086-.11.133-.133.023-.011.159-.071.192-.094l.003-.003.003-.003v-.003h.003v-.004l-.003-.003v-.006l-.003-.003v-.013h.003c.005-.005.157-.129.164-.132h.019l.003.003h.009v-.003h.003v-.003c.016-.023.022-.083.066-.098h.013c.011.002.027.007.038.007l.01-.004h.002l.003-.003h.004l.006-.01c.01-.014.014-.04.022-.056l.025-.025.01-.006c.083-.056.065-.066.132-.132q.028-.03.04-.035h.007l.003-.003h.006V4.1h.016l.003-.003.022-.029c.096-.143.137-.333.167-.497l-.324-.233q-.002-.044-.006-.063v-.003h-.004V3.27l-.003-.003c-.006-.006-.016-.01-.022-.016v-.003h-.003v-.003h-.003V3.24c-.014-.042.01-.09 0-.133-.039-.156-.07-.47-.132-.595-.01-.02-.047-.107-.063-.129l-.003-.003c-.018-.013-.06-.026-.082-.044l-.01-.01-.003-.002V2.32l-.003-.003v-.003l-.003-.01v-.002c0-.012.006-.027.006-.038v-.01l-.003-.003V2.25h-.003v-.003h-.01l-.009.003h-.003v.003h-.006V2.25h-.004a1 1 0 0 1-.23-.431c-.033-.205-.067-.495.032-.693l.003-.003V1.12h.003l.004-.003.009-.003.025-.007.01-.003.003-.003h.003v-.003h.003v-.003h.003V1.09l.003-.007c.006-.027-.01-.063-.003-.09.012-.05.088-.16.101-.2.01-.03-.015-.07 0-.1.034-.067.043-.043.098-.097l.003-.004c.013-.02.051-.106.063-.129V.461l.003-.003V.452c0-.013-.007-.032-.007-.044V.405l.004-.004V.398a.5.5 0 0 1 .166-.167h.013l.01.004h.006l.003-.004.01-.012.003-.003.003-.003V.209h.003V.206h-.003V.2h-.035V.194l.054-.029c.058-.029.21-.014.255-.028h.003l.003-.003h.003V.128h.003V.124l-.003-.003V.115l-.003-.003v-.01l.003-.003V.096l.01-.003c.05-.018.17.031.217.01l.003-.004c.026-.017.04-.049.066-.066.038-.025.09-.018.132-.035.114-.045.203-.11.33-.132.045-.007.169.023.224.007l.01-.007c.09-.045.17-.117.264-.163.3-.15.268-.074.396-.33.034-.094 0-.883 0-1.027 0-.14-.025-1.074 0-1.124.093-.185.067-.446.067-.66a.55.55 0 0 0-.133-.3.3.3 0 0 0-.04-.034l-.004-.004-.003-.003h-.012v.003h-.004v.004l-.003.003-.003.003v.003h-.003l-.003.003h-.003v.003h-.007a.1.1 0 0 1-.047-.012v-.003h-.003v-.01l.003-.01.003-.002v-.007l-.003-.003c-.039-.039-.088-.064-.132-.098-.055-.04-.158-.046-.198-.066v-.003h-.003v-.006l.003-.01.003-.003v-.012h-.006l-.01-.003c-.01 0-.026.005-.038.006h-.003l-.01-.003h-.006l-.003-.003h-.003c-.017-.015-.029-.047-.047-.06h-.003l-.003-.003-.01-.003h-.013l-.012.003c-.09-.023-.173-.035-.268-.066-.119-.04-.274.03-.396 0l-.003-.004h-.003l-.004-.003-.012-.019-.003-.003h-.003v-.003h-.004c-.04-.02-.121.01-.166 0-.048-.01-.116-.056-.164-.066-.033-.007-.071.015-.1 0v-.003h-.004v-.003h-.003l-.003-.003-.003-.01c-.004-.01-.008-.027-.013-.038v-.003l-.003-.003-.003-.003-.003-.003-.01-.007c-.02-.007-.052-.008-.072-.015l-.01-.007h-.003l-.003-.003v-.012l.003-.01v-.009h-.003a.2.2 0 0 0-.041-.035l-.003-.003h-.013l-.003.003h-.012v-.003h-.004l-.022-.028c-.012-.019-.042-.098-.06-.126l-.003-.003-.003-.004-.012-.012-.01-.003v-.003h-.006v.003h-.003v.003l-.003.003v.028h-.004c-.004-.004-.01-.019-.028-.053-.018-.036-.048-.065-.066-.1h-.003c-.008-.028.011-.065.003-.092v-.006c-.051-.102-.13-.19-.167-.3-.017-.05-.014-.194-.028-.226l-.003-.003h-.003v-.003h-.007l-.01.003h-.005v.003h-.004l-.003-.003h-.003v-.003c-.016-.054.035-.613.035-.693 0-.065.02-.168 0-.23-.009-.025-.038-.055-.041-.078v-.013l.003-.003.003-.003v-.003h.003v-.004h.007c.02-.001.061.008.081.007h.004l.003-.003h.003l.047-.026.003-.003h.003v-.003h-.025l-.003-.003h-.006v-.003h-.003v-.01l.003-.003.012-.016h.003v-.003h.007l.006-.003h.003l.032.006.01.004.002-.004h.003q.035-.012.067-.031v-.006l-.004-.02v-.005l.004-.004c.063-.032.061.005.132-.066.035-.035.03-.097.066-.132l.012-.01.004-.003h.009l.003.004h.003v.006l.007.035v.003h.003c.003-.005.008-.031.025-.101.003-.019-.004-.044 0-.063v-.003l.003-.006.006-.01c.012-.01.032-.02.044-.031l.007-.01.006-.01c.017-.041.018-.09.035-.131v-.004c.013-.02.045-.033.06-.053l.003-.003.003-.01v-.006l.003-.01-.003-.015c.02-.061.016-.643 0-.693a2 2 0 0 0-.101-.264c-.025-.05-.057-.026-.098-.066h-.003v-.013l.003-.01v-.012c-.024-.05-.089-.063-.132-.097q-.034-.032-.066-.066v-.007l.003-.012v-.01l-.003-.003v-.003c-.035-.035-.097-.031-.132-.066-.018-.018-.024-.044-.035-.066l-.031-.032-.01-.006-.003-.003c-.009-.004-.025-.007-.034-.01h-.004l-.009-.006-.003-.003-.003-.003v-.003h-.003v-.013c0-.011.005-.027.006-.038v-.01h-.003v-.006h-.003v-.003h-.004l-.006-.006c-.011-.005-.03-.008-.04-.013l-.004-.003h-.003l-.003-.003-.003-.003c-.021-.028-.02-.07-.035-.1-.054-.109-.075-.154-.085-.17l-.003-.004-.003-.003h-.003v.006h-.004v.007h-.006l-.003-.004a.3.3 0 0 1-.057-.062c-.066-.09.001-.056-.066-.167-.016-.027-.049-.04-.066-.066-.116-.175-.168-.4-.365-.498-.04-.02-.091-.01-.132-.031-.08-.04-.16-.096-.233-.132l-.003-.004h-.003c-.014 0-.034.003-.048.004h-.013a.96.96 0 0 0-.56 0c-.03.01-.068-.008-.1 0l-.076.022v.003h-.006v.003h.003v.003c.013.004.059.002.072.003a3 3 0 0 1-.192.032c-.032.004-.065-.008-.097 0h-.006l-.004.003h-.003c-.014.012-.027.04-.04.053l-.01.007v.003h-.003c-.063.02-.156.04-.233.066-.05.016-.114-.017-.164 0h-.006c-.033.018-.056.077-.088.094l-.003.003h-.004l-.003.004c-.017.002-.042-.007-.06-.004h-.003v.004h-.003a2 2 0 0 0-.195.26c-.038.058-.113.1-.167.136-.077.052-.121.006-.198.032l-.003.003h-.003c-.002.001-.005.008-.007.01l-.006.009-.003.003-.003.003v.003h-.007v.003c-.13.044-.327-.014-.43-.066-.06-.03-.167-.013-.23-.034h-.004l-.003-.004h-.003l-.003-.009-.013-.016-.003-.003h-.006c-.074-.018-.196 0-.265-.035v-.003h-.003v-.006l.003-.003.004-.01v-.009h-.004v-.003h-.006c-.024-.003-.059.011-.082.006h-.003l-.003-.003-.003-.003-.07-.047-.062-.02h-.007l-.003-.002-.006-.007-.016-.019-.003-.003v-.003l.003-.016.003-.003v-.003l-.003-.003v-.003h-.003v-.003h-.013l-.037.003h-.013l-.003-.003h-.003v-.01l.003-.01.003-.002v-.01h-.003c-.017-.017-.044-.023-.066-.034-.006 0-.017.006-.022.006h-.003v-.003h-.007v-.003l-.003-.004-.003-.003c-.006-.012-.01-.031-.016-.044l-.006-.01-.003-.002-.003-.004h-.007l-.003-.003h-.003c-.009.001-.022.008-.031.01h-.016v-.003h-.003l-.003-.004-.004-.003v-.009l.007-.038v-.009l-.003-.004v-.003c-.04-.06-.17-.08-.199-.163v-.013l.003-.038v-.012l-.003-.003v-.004h-.003l-.003-.003h-.006c-.01.002-.025.009-.035.01h-.012v-.003h-.004v-.004h-.003v-.031c-.01-.03.014-.092.003-.126v-.003l-.003-.003c-.045-.09-.01-.155-.031-.199h-.003l-.004-.003h-.003v.003h-.01l-.002.004h-.013v-.004c-.037-.074 0-.275 0-.362 0-.033.01-.135 0-.166v-.004h-.003v-.003l-.01-.006-.015-.01v-.003l-.003-.003v-.003c-.008-.032.008-.068 0-.1h-.003v-.004l-.004-.003-.012-.01c-.002 0-.008-.004-.01-.006l-.003-.003v-.003h-.003v-.003c-.008-.032.006-.068 0-.1-.026-.159-.128-.355-.198-.495l-.013-.022-.003-.003-.003-.003h-.003l-.003-.003h-.004l-.003-.004h-.009c-.01.002-.025.009-.035.01h-.012l-.004-.003h-.003l-.003-.003-.003-.004v-.012l.003-.01v-.009h-.003v-.003h-.003c-.002 0-.008-.006-.01-.007-.054-.011-.195.013-.242.01h-.01v-.003h-.003l-.003-.003-.01-.013-.005-.01-.004-.003h-.003v-.003h-.003c-.042-.014-.089.009-.132 0-.034-.007-.067-.024-.1-.031-.096-.02-.201.019-.297 0-.155-.031-.312-.032-.462-.07-.135-.033-.295.023-.432 0-.09-.014-.174-.057-.264-.066a1 1 0 0 0-.17-.003m3.21 2.437.016.003h.003v-.01h-.003l-.003-.003a.3.3 0 0 0-.053-.028h-.003v.003l.003.003zm-2.69 2.58a4.643 4.643 0 0 1 4.642 4.644 4.643 4.643 0 0 1-4.643 4.642 4.643 4.643 0 0 1-4.642-4.642 4.643 4.643 0 0 1 4.642-4.643" style="display:inline;fill:#f1f1f1;fill-opacity:1;fill-rule:nonzero;stroke:none;stroke-width:1.05833;stroke-linecap:round;stroke-linejoin:round;stroke-dasharray:none;stroke-opacity:1;paint-order:normal" transform="translate(.327)"/><path d="M-322.097 8.358h1.513s.868-.04.868-1.123v-.827s-.008-.29.256-.414c.265-.124 1.022-.408 1.022-.408s.27-.148.538.14c.169.18.574.616.702.743.056.057.48.437 1.26 0 .326-.183 1.199-1.03 1.199-1.03l-.761-.771s-.56.563-.79.691c-.229.129-.376.123-.603 0-.227-.124-.896-.79-.896-.79-.146-.138-.305-.328-.826-.119-.382.154-1.099.455-1.621.682-.39.17-.347.564-.347.564l-.001 1.026s.051.516-.52.512h-.993z" style="fill:#f1f1f1;fill-opacity:1;fill-rule:nonzero;stroke:none;stroke-width:1.05833;stroke-linecap:round;stroke-linejoin:round;stroke-dasharray:none;stroke-opacity:1;paint-order:normal" transform="translate(.327 -.212)"/><path d="M-322.097 8.358h-1.513s-.868-.04-.868-1.123v-.827s.008-.29-.257-.414c-.264-.124-1.02-.408-1.02-.408s-.27-.148-.54.14c-.168.18-.573.616-.7.743-.058.057-.481.437-1.262 0-.325-.183-1.2-1.03-1.2-1.03l.767-.765s.556.557.785.685c.23.129.377.123.604 0 .227-.124.896-.79.896-.79.146-.138.305-.328.826-.119.382.154 1.098.455 1.621.682.39.17.347.564.347.564v1.026s-.05.516.522.512h.992z" style="fill:#f1f1f1;fill-opacity:1;fill-rule:nonzero;stroke:none;stroke-width:1.05833;stroke-linecap:round;stroke-linejoin:round;stroke-dasharray:none;stroke-opacity:1;paint-order:normal" transform="translate(.327 -.212)"/><path d="M-322.098-12.61h-1.513s-.868.041-.868 1.124v.827s.008.29-.257.414c-.264.124-1.02.408-1.02.408s-.27.148-.54-.14c-.168-.18-.573-.616-.7-.743-.058-.057-.481-.437-1.262 0-.325.183-1.2 1.028-1.2 1.028l.77.767s.553-.557.782-.685c.23-.129.377-.123.604 0 .227.124.896.79.896.79.146.138.305.328.826.119a79 79 0 0 0 1.621-.682c.39-.17.347-.564.347-.564v-1.026s-.05-.516.522-.512h.992zm0 0h1.513s.868.041.868 1.124v.827s-.008.29.257.414c.264.124 1.02.408 1.02.408s.27.148.54-.14c.168-.18.573-.616.7-.743.058-.057.481-.437 1.262 0 .325.183 1.199 1.029 1.199 1.029l-.77.766s-.552-.557-.781-.685c-.23-.129-.377-.123-.604 0-.227.124-.896.79-.896.79-.146.138-.305.328-.826.119a79 79 0 0 1-1.621-.682c-.39-.17-.347-.564-.347-.564v-1.026s.05-.516-.522-.512h-.992z" style="fill:#f1f1f1;fill-opacity:1;fill-rule:nonzero;stroke:none;stroke-width:1.05833;stroke-linecap:round;stroke-linejoin:round;stroke-dasharray:none;stroke-opacity:1;paint-order:normal" transform="translate(.327 .212)"/><path d="M-311.581-2.13v-1.513s-.04-.868-1.124-.868h-.826s-.29.008-.414-.257a23 23 0 0 1-.409-1.02s-.147-.27.14-.54c.182-.168.617-.574.744-.701.057-.057.437-.48 0-1.261-.183-.326-1.032-1.19-1.032-1.19l-.769.765s.562.547.691.777.123.377 0 .604c-.125.227-.791.896-.791.896-.137.146-.327.305-.118.826.154.382.455 1.098.682 1.62.17.39.564.348.564.348h1.026s.516-.05.511.522v.992z" style="fill:#f1f1f1;fill-opacity:1;fill-rule:nonzero;stroke:none;stroke-width:1.05833;stroke-linecap:round;stroke-linejoin:round;stroke-dasharray:none;stroke-opacity:1;paint-order:normal" transform="translate(.09)"/><path d="M-311.581-2.13v1.513s-.04.868-1.124.868h-.826s-.29-.008-.414.256c-.124.265-.409 1.021-.409 1.021s-.147.27.14.539c.182.168.617.574.744.701.057.057.437.481 0 1.262-.183.325-1.032 1.198-1.032 1.198l-.764-.769s.557-.552.686-.781c.129-.23.123-.377 0-.604-.125-.228-.791-.896-.791-.896-.137-.147-.327-.305-.118-.826.154-.382.455-1.099.682-1.621.17-.39.564-.347.564-.347l1.026-.001s.516.051.511-.521v-.992z" style="fill:#f1f1f1;fill-opacity:1;fill-rule:nonzero;stroke:none;stroke-width:1.05833;stroke-linecap:round;stroke-linejoin:round;stroke-dasharray:none;stroke-opacity:1;paint-order:normal" transform="translate(.09)"/><path d="M-332.59-2.13v-1.513s.04-.868 1.124-.868h.826s.29.008.414-.257c.124-.264.409-1.02.409-1.02s.147-.27-.14-.54a51 51 0 0 1-.744-.701c-.057-.057-.437-.48 0-1.261.183-.326 1.034-1.193 1.034-1.193l.769.77s-.564.545-.693.775-.123.377.001.604.79.896.79.896c.137.146.328.305.118.826a79 79 0 0 1-.682 1.62c-.17.39-.564.348-.564.348h-1.026s-.516-.05-.511.522v.992z" style="fill:#f1f1f1;fill-opacity:1;fill-rule:nonzero;stroke:none;stroke-width:1.05833;stroke-linecap:round;stroke-linejoin:round;stroke-dasharray:none;stroke-opacity:1;paint-order:normal" transform="translate(.54)"/><path d="M-332.59-2.13v1.513s.04.868 1.124.868h.826s.29-.008.414.256c.124.265.409 1.021.409 1.021s.147.27-.14.539c-.182.168-.617.574-.744.701-.057.057-.437.481 0 1.262.183.325 1.037 1.202 1.037 1.202l.765-.77s-.563-.555-.692-.784c-.129-.23-.123-.377.001-.604.124-.228.79-.896.79-.896.137-.147.328-.305.118-.826a79 79 0 0 0-.682-1.621c-.17-.39-.564-.347-.564-.347l-1.026-.001s-.516.051-.511-.521v-.992z" style="fill:#f1f1f1;fill-opacity:1;fill-rule:nonzero;stroke:none;stroke-width:1.05833;stroke-linecap:round;stroke-linejoin:round;stroke-dasharray:none;stroke-opacity:1;paint-order:normal" transform="translate(.54)"/></g></svg>