<svg xmlns="http://www.w3.org/2000/svg" xml:space="preserve" width="34" height="34" viewBox="0 0 8.996 8.996"><g style="display:inline" transform="translate(58.838 7.217)scale(.16417)"><path d="M-348.414-41.208a2.06 2.06 0 0 0-2.064 2.068V1.815a2.06 2.06 0 0 0 2.064 2.065h24.533c.888 0 1.64-.553 1.933-1.335a4.7 4.7 0 0 1-1.338-.24c-.284.31-.693.504-1.149.504h-23.428c-.86 0-1.551-.69-1.551-1.551v-4.281h22.99c.105-.558.31-1.092.604-1.577h-23.594v-33.983c0-.86.69-1.555 1.551-1.555h3.475l.013.047 1.59 3.919c.066.19.268.348.466.368q.02.003.04.003h12.533l.038-.003a.58.58 0 0 0 .466-.368l1.534-3.919.012-.047h3.261c.861 0 1.555.694 1.555 1.555V-6.74a4.7 4.7 0 0 1 1.064-.126V-39.14c0-1.145-.92-2.068-2.065-2.068zm5.369 1.07h14.01l-1.112 2.88c-.053.139-.218.251-.38.265q-.014.002-.032.003h-10.915a.3.3 0 0 1-.073-.01.47.47 0 0 1-.346-.258z" style="display:inline;fill:#f1f1f1;fill-opacity:1;stroke-width:.964873;stroke-linecap:round;stroke-linejoin:round"/><g style="display:inline"><path d="M-321.418-50.701a27.4 27.69 0 0 0-27.4 27.689 27.4 27.69 0 0 0 27.4 27.689 27.4 27.69 0 0 0 27.399-27.69 27.4 27.69 0 0 0-27.4-27.688m-1.573 2.938c.324-.01.296.424.296.424v10.098l-7.93-.001c-.435 0-.456-.312-.383-.497 2.944-7.916 5.987-9.033 7.732-9.935a.7.7 0 0 1 .285-.09m3.302 0a.7.7 0 0 1 .285.089c1.744.902 4.79 2.019 7.733 9.935.073.185.052.497-.383.497l-7.932.001v-10.098s-.027-.434.297-.424m-9.891 1.196c.46-.007-.107.802-.107.802-3.916 5.84-4.187 8.523-4.187 8.523s-6.455-.012-7.22 0c-.58.006-.141-.579-.135-.59 4.513-6.198 9.888-8 11.145-8.578.236-.109.397-.155.504-.157m16.5 0c.106.002.267.048.503.157 1.257.579 6.632 2.38 11.145 8.578.006.011.445.596-.134.59-.766-.012-7.221 0-7.221 0s-.271-2.682-4.187-8.523c0 0-.568-.81-.107-.802m-9.96 11.869c.38 0 .347.364.347.364v9.801c0 .327-.297.282-.297.282l-10.1.004c-.394-.002-.353-.64-.353-.67 0-4.303 1.112-8.428 1.291-9.17.15-.623.686-.61.686-.61zm-12.195.001s.62-.016.403.666c-.235.743-1.19 4.492-1.157 9.155-.003.15.06.626-.56.629h-9.088s-.546.075-.451-.732c.308-2.52.715-5.786 2.995-9.716 2.561 0 5.297 0 7.858-.002m27.77 0c2.56.001 5.297.003 7.858.002 2.28 3.93 2.686 7.196 2.994 9.717.095.806-.451.73-.451.73h-9.086c-.62-.002-.56-.478-.562-.628.033-4.663-.92-8.412-1.156-9.155-.216-.682.402-.666.402-.666m-12.17.007 8.425.002s.535-.014.686.61c.179.741 1.29 4.868 1.29 9.17 0 .03.043.667-.352.67l-10.1-.005s-.297.045-.297-.281v-9.802s-.033-.364.347-.364m10.053 12.918c.395.002.353.64.353.67 0 4.303-1.112 8.428-1.291 9.17-.15.624-.686.61-.686.61l-8.426.001c-.38 0-.347-.363-.347-.363v-9.802c0-.327.298-.28.298-.28zm-36.1.007c.03 0 .05.002.05.002h9.086c.62.003.558.479.561.628-.033 4.664.922 8.414 1.157 9.157.216.682-.403.664-.403.664-2.561 0-5.297-.002-7.858-.001-2.28-3.93-2.687-7.195-2.995-9.716-.077-.655.27-.73.402-.734m48.645 0c.104-.003.512.03.428.734-.308 2.521-.713 5.786-2.994 9.716-2.56-.001-5.298 0-7.859.001 0 0-.618.018-.402-.664.236-.743 1.189-4.493 1.156-9.157.003-.15-.058-.625.562-.628h9.086zm-36.048.002 10.1.005s.296-.046.296.28v9.802s.033.364-.347.364l-8.426-.002s-.535.014-.686-.61c-.179-.741-1.291-4.867-1.291-9.17 0-.03-.04-.667.354-.67m10.392 12.94V1.275s.04.657-.582.335c-1.744-.902-4.788-2.019-7.731-9.935-.074-.185-.052-.497.383-.497zm2.709 0 7.931.001c.435 0 .457.312.383.497-2.943 7.916-5.988 9.033-7.733 9.935-.622.322-.581-.335-.581-.335zm-21.108.001c.738.002 7.22 0 7.22 0s.273 2.682 4.189 8.523c0 0 .859 1.224-.398.645s-6.632-2.38-11.145-8.578c-.006-.011-.445-.596.134-.59m32.319.003s6.454.012 7.22 0c.58-.006.14.578.135.59-4.514 6.197-9.89 8-11.147 8.578-1.257.579-.396-.645-.396-.645 3.915-5.841 4.188-8.523 4.188-8.523" style="display:inline;fill:#f1f1f1;fill-opacity:1;stroke:none;stroke-width:1.63728;stroke-linecap:round;stroke-linejoin:round;stroke-dasharray:none;stroke-opacity:1" transform="matrix(.37659 0 0 .37658 -214.98 -13.633)"/></g><rect width="8.7" height="1.31" x="-340.361" y="-8.922" ry=".479" style="display:inline;fill:#f1f1f1;fill-opacity:1;fill-rule:nonzero;stroke:none;stroke-width:1.09828;stroke-linecap:round;stroke-linejoin:round;stroke-dasharray:none;stroke-opacity:1;paint-order:normal"/><g style="display:inline"><path d="M-332.59-2.13v1.513s.04.868 1.124.868h.826s.29-.008.414.256c.124.265.409 1.021.409 1.021s.147.27-.14.539c-.182.168-.617.574-.744.701-.057.057-.437.481 0 1.262.183.325 1.037 1.202 1.037 1.202l.765-.77s-.563-.555-.692-.784c-.129-.23-.123-.377.001-.604.124-.228.79-.896.79-.896.137-.147.328-.305.118-.826a79 79 0 0 0-.682-1.621c-.17-.39-.564-.347-.564-.347l-1.026-.001s-.516.051-.511-.521v-.992zm0 0v-1.513s.04-.868 1.124-.868h.826s.29.008.414-.257c.124-.264.409-1.02.409-1.02s.147-.27-.14-.54a51 51 0 0 1-.744-.701c-.057-.057-.437-.48 0-1.261.183-.326 1.034-1.193 1.034-1.193l.769.77s-.564.545-.693.775-.123.377.001.604.79.896.79.896c.137.146.328.305.118.826a79 79 0 0 1-.682 1.62c-.17.39-.564.348-.564.348h-1.026s-.516-.05-.511.522v.992zm20.56 0v1.513s-.041.868-1.124.868h-.827s-.29-.008-.414.256c-.124.265-.408 1.021-.408 1.021s-.148.27.14.539c.18.168.616.574.743.701.057.057.437.481 0 1.262-.183.325-1.032 1.198-1.032 1.198l-.763-.769s.556-.552.685-.781c.129-.23.123-.377 0-.604-.125-.228-.79-.896-.79-.896-.138-.147-.328-.305-.119-.826.154-.382.455-1.099.682-1.621.17-.39.564-.347.564-.347l1.026-.001s.516.051.512-.521v-.992zm0 0v-1.513s-.041-.868-1.124-.868h-.827s-.29.008-.414-.257a23 23 0 0 1-.408-1.02s-.148-.27.14-.54c.18-.168.616-.574.743-.701.057-.057.437-.48 0-1.261-.183-.326-1.032-1.19-1.032-1.19l-.769.765s.562.547.691.777.123.377 0 .604c-.125.227-.79.896-.79.896-.138.146-.328.305-.119.826.154.382.455 1.098.682 1.62.17.39.564.348.564.348h1.026s.516-.05.512.522v.992zm-10.28-10.268h1.513s.869.04.869 1.124v.827s-.008.29.256.413c.264.124 1.021.409 1.021.409s.27.148.538-.14c.169-.181.575-.616.702-.744.057-.057.48-.436 1.261.001.326.183 1.2 1.028 1.2 1.028l-.77.767s-.552-.557-.782-.686c-.23-.128-.377-.122-.604.001-.227.124-.896.79-.896.79-.146.138-.304.328-.826.118a79 79 0 0 1-1.62-.682c-.39-.169-.348-.563-.348-.563v-1.026s.05-.516-.521-.512h-.993zm0 0h-1.513s-.868.04-.868 1.124v.827s.008.29-.256.413c-.265.124-1.021.409-1.021.409s-.27.148-.539-.14c-.168-.181-.574-.616-.701-.744-.057-.057-.48-.436-1.261.001-.326.183-1.2 1.027-1.2 1.027l.77.768s.552-.557.782-.686c.23-.128.376-.122.604.001.227.124.895.79.895.79.147.138.305.328.826.118a79 79 0 0 0 1.622-.682c.389-.169.346-.563.346-.563l.001-1.026s-.051-.516.521-.512h.992zm.001 20.545h-1.513s-.868-.04-.868-1.124v-.827s.008-.289-.256-.413c-.265-.124-1.022-.409-1.022-.409s-.27-.148-.538.14c-.169.181-.574.617-.702.744-.056.057-.48.437-1.26-.001-.326-.182-1.2-1.03-1.2-1.03l.766-.765s.556.557.785.686c.23.128.377.123.604-.001s.896-.79.896-.79c.146-.138.305-.328.826-.118.382.153 1.099.455 1.621.682.39.169.347.563.347.563l.001 1.027s-.051.515.52.511h.993zm0 0h1.513s.868-.04.868-1.124v-.827s-.008-.289.257-.413c.264-.124 1.02-.409 1.02-.409s.27-.148.54.14c.168.181.573.617.7.744.058.057.481.437 1.262-.001.325-.182 1.198-1.03 1.198-1.03l-.76-.77s-.56.562-.79.69c-.23.13-.377.124-.604 0s-.896-.79-.896-.79c-.146-.138-.305-.328-.826-.118-.382.153-1.098.455-1.621.682-.39.169-.347.563-.347.563v1.027s.05.515-.522.511h-.992z" style="display:inline;fill:#f1f1f1;fill-opacity:1;fill-rule:nonzero;stroke:none;stroke-width:1.05833;stroke-linecap:round;stroke-linejoin:round;stroke-dasharray:none;stroke-opacity:1;paint-order:normal" transform="translate(.54)"/><path d="m-319.921-11.805-3.752.025-.088 2.077-1.807.74-1.728-1.221-2.565 2.26 1.23 1.907-.808 1.886-2.065.318.031 3.45 1.977.248.837 1.933-1.193 1.526 2.396 2.632 1.85-1.417 1.908 1.077.113 1.85 3.623-.043.126-1.763 2.147-.844 1.388 1.068 2.461-2.777-1.108-1.46.838-1.923 2.02-.104-.025-3.564-2.027-.264-.818-1.964 1.31-1.65-2.683-2.467-1.523 1.31-1.926-.844zm-1.86 5.01a4.643 4.643 0 0 1 4.643 4.644 4.643 4.643 0 0 1-4.643 4.642 4.643 4.643 0 0 1-4.643-4.642 4.643 4.643 0 0 1 4.643-4.643" style="display:inline;fill:#f1f1f1;fill-opacity:1;stroke:none;stroke-width:4.83482;stroke-linecap:round;stroke-linejoin:round;paint-order:stroke fill markers"/></g></g></svg>