<svg xmlns="http://www.w3.org/2000/svg" xml:space="preserve" width="34" height="34" viewBox="0 0 8.996 8.996"><g transform="translate(1.517 9.823)scale(.14547)"><rect width="7.199" height="7.171" x="40.283" y="-63.674" rx="1.339" ry="1.339" style="fill:#f1f1f1;fill-opacity:1;fill-rule:nonzero;stroke:none;stroke-width:1.12657;stroke-linecap:square;stroke-linejoin:miter;stroke-dasharray:none;stroke-opacity:1;paint-order:normal"/><rect width="7.199" height="7.171" x="-6.499" y="-16.666" rx="1.339" ry="1.339" style="fill:#f1f1f1;fill-opacity:1;fill-rule:nonzero;stroke:none;stroke-width:1.12657;stroke-linecap:square;stroke-linejoin:miter;stroke-dasharray:none;stroke-opacity:1;paint-order:normal"/><rect width="7.199" height="7.171" x="-6.499" y="-63.674" rx="1.339" ry="1.339" style="fill:#f1f1f1;fill-opacity:1;fill-rule:nonzero;stroke:none;stroke-width:1.12657;stroke-linecap:square;stroke-linejoin:miter;stroke-dasharray:none;stroke-opacity:1;paint-order:normal"/><rect width="7.199" height="7.171" x="40.283" y="-16.661" rx="1.339" ry="1.339" style="fill:#f1f1f1;fill-opacity:1;fill-rule:nonzero;stroke:none;stroke-width:1.12657;stroke-linecap:square;stroke-linejoin:miter;stroke-dasharray:none;stroke-opacity:1;paint-order:normal"/></g><path d="M-3.51-60.615v48.175h48.026v-48.175zM-2.4-59.61h45.84v45.986H-2.4Z" style="display:inline;fill:#f1f1f1;fill-opacity:1;fill-rule:nonzero;stroke:none;stroke-width:1.0905;stroke-linecap:square;stroke-linejoin:miter;stroke-dasharray:none;stroke-opacity:1;paint-order:normal" transform="translate(1.517 9.823)scale(.14547)"/><g transform="translate(1.517 9.823)scale(.14547)"><rect width="35.189" height="11.079" x="2.89" y="-53.993" rx=".711" ry=".711" style="fill:none;fill-opacity:1;fill-rule:nonzero;stroke:#f1f1f1;stroke-width:.79375;stroke-linecap:square;stroke-linejoin:miter;stroke-dasharray:none;stroke-opacity:1;paint-order:normal"/><rect width="17.776" height="8.006" x="20.303" y="-38.605" rx=".558" ry=".563" style="fill:none;fill-opacity:1;fill-rule:nonzero;stroke:#f1f1f1;stroke-width:.79375;stroke-linecap:square;stroke-linejoin:miter;stroke-dasharray:none;stroke-opacity:1;paint-order:normal"/><rect width="17.776" height="8.006" x="20.303" y="-26.435" rx=".558" ry=".563" style="fill:none;fill-opacity:1;fill-rule:nonzero;stroke:#f1f1f1;stroke-width:.79375;stroke-linecap:square;stroke-linejoin:miter;stroke-dasharray:none;stroke-opacity:1;paint-order:normal"/><rect width="19.918" height="12.457" x="-38.479" y="-15.472" rx=".625" ry=".877" style="fill:none;fill-opacity:1;fill-rule:nonzero;stroke:#f1f1f1;stroke-width:.79375;stroke-linecap:square;stroke-linejoin:miter;stroke-dasharray:none;stroke-opacity:1;paint-order:normal" transform="rotate(90)"/></g></svg>