<svg xmlns="http://www.w3.org/2000/svg" xml:space="preserve" width="34" height="34" viewBox="0 0 8.996 8.996"><g style="display:inline"><path d="M-7255.167-101.287s-57.442 2.971-104.98-13.865c-47.538-16.837-46.549-22.019-85.173-22.019s-162.285 52.963-186.142 24.94c-22.613-26.562 28.671-125.191 28.671-192.084 0-46.548-43.576-83.192-43.576-193.124 0-109.933 98.047-383.278 390.21-383.278 292.162 0 393.446 271.86 393.446 392.686 0 120.827-91.38 386.744-392.456 386.744" style="fill:#f1f1f1;fill-opacity:1;stroke:#f1f1f1;stroke-width:33.6146;stroke-linecap:round;stroke-linejoin:round;stroke-dasharray:none;stroke-opacity:1" transform="translate(55.475 7.143)scale(.00714)"/><path d="M-319.641-25.725s4.116 5.426 4.116 11.179-1.964 6.22-1.964 9.308c0 3.086 2.671 6.751 1.034 8.622s-4.636-.999-8.471-.999-3.836 1.778-9.261 1.778c-7.297 0-11.272-4.21-11.272-4.21" style="fill:none;fill-opacity:.773946;stroke:#f1f1f1;stroke-width:1.5875;stroke-linecap:round;stroke-linejoin:round;stroke-dasharray:none;stroke-opacity:1" transform="translate(55.881 7.524)scale(.15128)"/></g></svg>