<svg xmlns="http://www.w3.org/2000/svg" xml:space="preserve" width="34" height="34" viewBox="0 0 8.996 8.996"><g style="display:inline"><path d="M-350.64-8.033s-.062.212-.317.212c-.256 0-.312-.212-.312-.212l-1.052-2.95-3.132-1.194s-.135-.06-.135-.268c0-.189.137-.238.137-.238l3.118-1.172 1.142-3.102s.047-.144.243-.144c.189 0 .236.144.236.144l1.158 3.106 3.11 1.156s.147.054.147.258c0 .2-.15.247-.15.247l-3.114 1.2zM-324.758-33.993s-.062.212-.317.212-.312-.212-.312-.212l-1.051-2.95-3.133-1.193s-.135-.06-.135-.268c0-.19.137-.239.137-.239l3.119-1.172 1.141-3.102s.047-.144.243-.144c.19 0 .237.144.237.144l1.157 3.107 3.11 1.156s.148.053.148.257c0 .2-.15.247-.15.247l-3.115 1.2z" style="display:inline;fill:#f1f1f1;fill-opacity:1;stroke:none;stroke-width:.0756052;stroke-linecap:round;stroke-linejoin:round;stroke-dasharray:none;stroke-opacity:1" transform="translate(80.187 10.196)scale(.22393)"/><path d="M-337.99-41.755c-.686 0-.851.505-.851.505l-3.992 10.855-10.916 4.101s-.477.174-.477.835c0 .728.47.94.47.94l10.962 4.172 3.68 10.327s.2.743 1.092.743 1.108-.743 1.108-.743l3.78-10.35 10.897-4.198s.526-.164.526-.865c0-.713-.515-.9-.515-.9l-10.885-4.046-4.05-10.871s-.167-.505-.829-.505m.007 4.564c.476 0 .593.362.593.362l2.913 7.817 7.827 2.91s.37.133.37.646c0 .504-.379.623-.379.623l-7.834 3.018-2.717 7.438s-.156.535-.798.535-.785-.535-.785-.535l-2.644-7.422-7.881-3.002s-.34-.15-.34-.674c0-.475.345-.6.345-.6l7.846-2.949 2.87-7.805s.121-.362.614-.362" style="display:inline;fill:#f1f1f1;fill-opacity:1;stroke:none;stroke-width:.264583;stroke-linecap:round;stroke-linejoin:round;stroke-dasharray:none;stroke-opacity:1" transform="translate(80.187 10.196)scale(.22393)"/></g></svg>