<svg xmlns="http://www.w3.org/2000/svg" xml:space="preserve" width="34" height="34" viewBox="0 0 8.996 8.996"><g style="display:inline"><path d="M-14.993-33.703s-.003-1.99 1.988-1.99c1.992 0 1.992 1.999 1.992 1.999v14.726s.096 4.397 2.743 6.648c2.248 1.911 5.279 1.936 5.279 1.936h26.302s3.528.171 5.967-2.36c2.5-2.597 2.387-6.084 2.387-6.084V-45.25c0-.335.127-2.984-2.392-5.45-2.574-2.519-6.053-2.538-6.053-2.538H-2.63c-.729 0-3.613 0-5.972 2.504-2.561 2.718-2.411 5.168-2.411 5.168v3.117c0 .353-.244 1.906-1.992 1.903s-1.988-1.579-1.988-1.913v-3.136c0-1.036.009-4.067 3.583-7.956 3.365-3.663 8.199-3.663 8.774-3.663H23.2c.356 0 5.113.006 8.843 3.684 3.603 3.553 3.603 7.327 3.603 8.26v26.44c0 .301-.001 5.2-3.56 8.9-3.384 3.518-8.353 3.518-8.76 3.518h-26.34c-.467 0-4.537.036-8.034-3.07-3.941-3.5-3.944-9.103-3.944-9.347z" style="fill:#f1f1f1;fill-opacity:1;stroke-width:5.35573;stroke-linecap:round;stroke-linejoin:round;paint-order:stroke fill markers" transform="translate(2.968 9.213)scale(.1482)"/><path d="M-3.386-24.205c2.066 0 1.983 1.905 1.983 1.905v2.404h23.598v-9.874H-3.386s-1.984-.027-1.984-1.982 1.984-1.986 1.984-1.986h25.581l.015-9.82H-3.386s-1.984.122-1.984-1.977 1.984-1.987 1.984-1.987h27.66s.698-.03 1.31.583c.612.612.582 1.394.582 1.394v27.63s.003.889-.61 1.437c-.613.549-1.283.549-1.283.549h-27.66s-.73.082-1.39-.576-.593-1.424-.593-1.424v-4.38s-.082-1.896 1.984-1.896" style="fill:#f1f1f1;fill-opacity:1;stroke-width:5.35573;stroke-linecap:round;stroke-linejoin:round;paint-order:stroke fill markers" transform="translate(2.968 9.213)scale(.1482)"/></g></svg>