<svg xmlns="http://www.w3.org/2000/svg" xml:space="preserve" width="34" height="34" viewBox="0 0 8.996 8.996"><path d="m-38.073-22.334 1.45-.467s1.45-.452.785-2.93c-.663-2.477-2.89-10.681-2.89-10.681s-.243-1.568-2.167-1.252c-.76.125-1.177.2-1.177.2" style="fill:none;fill-opacity:1;fill-rule:nonzero;stroke:#f1f1f1;stroke-width:1.08903;stroke-linecap:square;stroke-linejoin:miter;stroke-dasharray:none;stroke-opacity:1;paint-order:normal" transform="translate(8.162 10.295)scale(.14245)"/><path d="m-38.564-23.176.375 1.825s.45 1.455-1.085 1.879l-2.99.825c-3.068.847-4.54-1.664-5.023-2.728-1.79-3.94-3.03-10.874-3.36-12.543-.38-1.91.884-3.613 2.477-4.461 1.106-.59 3.432-1.097 3.432-1.097s1.775-.636 2.244 1.296 3.93 15.004 3.93 15.004" style="fill:#f1f1f1;fill-opacity:1;fill-rule:nonzero;stroke:none;stroke-width:1.08903;stroke-linecap:round;stroke-linejoin:round;stroke-dasharray:none;stroke-opacity:1;paint-order:normal" transform="translate(8.162 10.295)scale(.14245)"/><path d="m-47.45-22.217-2.48-.327s-1.169-.187-1.508-1.509a707 707 0 0 0-1.456-5.436s-.582-1.092 1.449-2.51c.417-.32 1.165-.788 1.165-.788" style="fill:none;fill-opacity:1;fill-rule:nonzero;stroke:#f1f1f1;stroke-width:1.08903;stroke-linecap:square;stroke-linejoin:miter;stroke-dasharray:none;stroke-opacity:1;paint-order:normal" transform="translate(8.162 10.295)scale(.14245)"/><path d="m-38.073-22.334 1.45-.467s1.45-.452.785-2.93c-.663-2.477-2.89-10.681-2.89-10.681s-.243-1.568-2.167-1.252c-.76.125-1.177.2-1.177.2" style="fill:none;fill-opacity:1;fill-rule:nonzero;stroke:#f1f1f1;stroke-width:1.08903;stroke-linecap:square;stroke-linejoin:miter;stroke-dasharray:none;stroke-opacity:1;paint-order:normal" transform="matrix(-.14245 0 0 .14245 .83 10.295)"/><path d="m-38.564-23.176.375 1.825s.45 1.455-1.085 1.879l-2.99.825c-3.068.847-4.54-1.664-5.023-2.728-1.79-3.94-3.03-10.874-3.36-12.543-.38-1.91.884-3.613 2.477-4.461 1.106-.59 3.432-1.097 3.432-1.097s1.775-.636 2.244 1.296 3.93 15.004 3.93 15.004" style="fill:#f1f1f1;fill-opacity:1;fill-rule:nonzero;stroke:none;stroke-width:1.08903;stroke-linecap:round;stroke-linejoin:round;stroke-dasharray:none;stroke-opacity:1;paint-order:normal" transform="matrix(-.14245 0 0 .14245 .83 10.295)"/><path d="m-47.45-22.217-2.48-.327s-1.169-.187-1.508-1.509a707 707 0 0 0-1.456-5.436s-.582-1.092 1.449-2.51c.417-.32 1.165-.788 1.165-.788" style="fill:none;fill-opacity:1;fill-rule:nonzero;stroke:#f1f1f1;stroke-width:1.08903;stroke-linecap:square;stroke-linejoin:miter;stroke-dasharray:none;stroke-opacity:1;paint-order:normal" transform="matrix(-.14245 0 0 .14245 .83 10.295)"/><path d="M-1.37-22.226v2.884s.112 4.115-3.958 4.115h-10.677" style="display:inline;fill:none;fill-opacity:1;fill-rule:nonzero;stroke:#f1f1f1;stroke-width:1.07077;stroke-linecap:square;stroke-linejoin:miter;stroke-dasharray:none;stroke-opacity:1;paint-order:normal" transform="translate(8.162 10.295)scale(.14245)"/><path d="M-20.98-17.719c-.806 0-2.369.46-2.369 2.31v.379c0 1.924 1.582 2.403 2.36 2.403h3.155c1.352 0 1.353-.788 1.353-.788h.019l-.002-3.515c0-.789-1.355-.789-1.355-.789zm.366 1.158h2.81c.22 0 .22-.003.22.097v2.581c0 .1.002.099-.23.099h-2.806c-.845 0-1.584-.269-1.584-1.392v-.126c0-1.008.742-1.26 1.59-1.26" style="display:inline;fill:#f1f1f1;fill-opacity:1;fill-rule:nonzero;stroke:none;stroke-width:.658102;stroke-linecap:square;stroke-linejoin:miter;stroke-dasharray:none;stroke-opacity:1;paint-order:normal" transform="translate(8.162 10.295)scale(.14245)"/><path d="M-51.085-32.853s-1.209-2.502-1.209-7.628c0-9.294 8.349-26.61 26.86-26.61C-6.92-67.09.927-49.833.927-40.547c0 5.027-1.277 7.72-1.277 7.72l1.14.8s1.548-3.167 1.548-8.518c0-9.179-7.244-28.033-27.77-28.033S-53.788-49.8-53.788-40.546c0 5.286 1.525 8.525 1.525 8.525z" style="fill:#f1f1f1;fill-opacity:1;fill-rule:nonzero;stroke:none;stroke-width:1.08903;stroke-linecap:square;stroke-linejoin:miter;stroke-dasharray:none;stroke-opacity:1;paint-order:normal" transform="translate(8.162 10.295)scale(.14245)"/><path d="M-48.301-38.26s-.121.026-.121-2.296c0-8.538 7.99-22.737 22.992-22.737S-3.037-49.058-3.037-40.526c0 2.325-.075 2.31-.075 2.31l1.625 1.47s.256-.002.256-3.793c0-8.433-6.36-24.612-24.207-24.612s-24.836 16.075-24.836 24.614c0 3.791.324 3.766.324 3.766z" style="fill:#f1f1f1;fill-opacity:1;fill-rule:nonzero;stroke:none;stroke-width:.882743;stroke-linecap:square;stroke-linejoin:miter;stroke-dasharray:none;stroke-opacity:1;paint-order:normal" transform="translate(8.162 10.295)scale(.14245)"/><path d="m-12.91-59.377-1.689 1.818c-.811.873-1.37.615-2.31 0-1.373-.9-3.545-2.567-8.52-2.567-6.034 0-8.972 2.573-8.972 2.573s-1.333 1.263-2.526 0-1.613-1.8-1.613-1.8" style="fill:none;fill-opacity:1;fill-rule:nonzero;stroke:#f1f1f1;stroke-width:1.08903;stroke-linecap:square;stroke-linejoin:miter;stroke-dasharray:none;stroke-opacity:1;paint-order:normal" transform="translate(8.162 10.295)scale(.14245)"/></svg>