<svg xmlns="http://www.w3.org/2000/svg" xml:space="preserve" width="34" height="34" viewBox="0 0 8.996 8.996"><g style="display:inline"><path d="m-10.627-19.358.304-.038.304-.038zm.608-.076-.354 4.704c1.815.067 3.15 1.936 3.072 4.342l3.771-.014c.441-5.252-2.53-9.297-6.49-9.032m6.49 9.032-.05.408-.048.409zm-.098.817-3.75-.023C-7.75-7.3-9.34-5.6-11.063-5.545l-.301 4.003c3.508.222 6.986-3.157 7.737-8.043m-7.737 8.043-.268-.03-.27-.032zm-.537-.062.285-3.98c-1.574-.283-2.693-1.976-2.709-4.065l-2.892-.018c-.026 4.121 2.189 7.53 5.316 8.063m-5.316-8.063.012-.342.013-.345zm.025-.687 2.904-.01c.242-2.17 1.62-4.012 3.326-4.323l.335-4.671c-3.546.646-6.28 4.627-6.565 9.004m6.23-4.333.59-.043-.297.021zm-3.326 4.323-.018.356-.019.359zm2.672 4.78.276.02.277.02zm4.24-4.024.038-.392.037-.388z" style="fill:#f1f1f1;fill-opacity:1;stroke:none;stroke-width:1.71333;stroke-linecap:round;stroke-linejoin:round;paint-order:stroke fill markers" transform="rotate(21.468 -24.852 24.318)scale(.46328)"/></g></svg>