<svg xmlns="http://www.w3.org/2000/svg" xml:space="preserve" width="34" height="34" viewBox="0 0 8.996 8.996"><g style="display:inline"><path d="M4.498.57A3.925 3.928 0 0 0 .573 4.498a3.925 3.928 0 0 0 3.925 3.928 3.925 3.928 0 0 0 3.925-3.928A3.925 3.928 0 0 0 4.498.57m.045.224.092.047.063.06.215-.003.142.046.217.016.098.025.213.016.122.044.08.07.067.009.052-.008.027-.036-.043-.046.003-.06.073.063.128.092.065.06.256.076-.06.02-.054.002-.06-.038-.062-.01-.06-.039-.09-.003-.055-.035-.13.008-.03.04-.074-.032-.057.003-.04.049-.01.024-.064.025-.093.033-.054.046-.033.057.013.098.041.071.11.095.114.044.125.027.092-.022.096-.035.079-.044.054-.068.044-.07c0-.03-.004-.02.003-.033l.005-.052.04.06.047.01h.07l.012-.037.01-.052.039.019.076.084.13.12.066.06.117.02.082.024.09.062-.06.011-.011.03.005.071.05.063.048.057.044.016.049.006.046.049-.04.04-.025.044v.054l-.006.055h-.138l-.044-.01-.117-.118-.104-.087-.087-.057-.109-.022-.133.019-.117.038.013.035.074.05.106-.006.104.035.079.05.035.057.014.051-.131-.021-.267-.022h-.128l-.128.024-.171.071-.096.044-.13.032-.104.063-.095.098-.05.082-.035.035-.133-.01-.063.013-.032.038-.068-.003-.039-.038-.051.003-.038.06-.096.06-.057.073-.005.093.01.081.028.068-.071.05-.054.051-.028.033-.06-.038-.04-.098-.009-.164.011-.114-.024-.06-.08-.046-.103-.022-.06-.035-.275.002-.326.003-.142.016-.114.022-.02.03-.008.06-.016.055-.07.049-.112.054-.058.027v.093l.003.103.08.131.037.098.057.09.093.022.1-.02.099-.062.068-.074.125.017-.038.065-.046.066-.06.068.022.12.032.13.057.035h.284l.002.31.115.055.18.003.114.055.15.057.04-.027v-.088h.18l.11.137.054.054h.285l.071.046.126-.01.043.097.05.047.108.032.098.03.07.068v.066l-.07.079-.024.049.065.087.084.052.044.054.106-.014.093-.027.068.014.01.125.069.134.038.09-.055.108.009.098.09-.032.067-.052.058-.025.076.025.065.082.044.065v.046l.098.063.035.043.128.028.036-.033.1.123.033.084.022.019.125-.008.022.057.003.038-.058.022.014.201-.302.26-.05.073-.016.18-.207.212-.1.1-.199-.021-.044.152-.065.172-.027.073-.204.074-.167.076-.057.022-.15.003-.019.051-.002.066-.266.032.004.02c.001.01.002.116 0 .123l-.004.003v.023c.002.001.008.004.004.008h-.08q.003 0 .003.004c0 .016-.003.037.004.05.002.004-.001.008 0 .012l.004.004v.007c.002.004.013.003.015.004.003.003-.002.014-.004.015q-.004.002-.007 0c-.02-.006-.006.008-.008.012h-.008c-.015.004-.022.014-.038.012-.02-.004-.022.02-.043.026-.009.003-.033 0-.035.007-.004.002-.026-.005-.03-.003-.011.006-.024.005-.035.008-.015.005-.021.013-.035.02a.3.3 0 0 1-.053 0c-.007.002-.008-.007-.012-.008h-.008q-.001-.004-.004-.008c-.002-.001-.016-.002-.019-.004v-.003c-.002-.003-.012 0-.015 0-.02-.007-.035-.008-.043-.032-.003-.01.001-.03.008-.038q.005-.003.007-.001v-.003q-.001.002-.018 0c-.012-.002-.013-.004-.023-.004q-.015.002-.027 0c-.008.001-.013-.006-.02-.007-.003-.001-.009.002-.011 0v-.004c-.003-.002-.01.001-.011 0h-.001v-.004h-.003v-.004q-.007-.006-.012-.012a.3.3 0 0 1-.004-.092q.001-.002.004-.004a.1.1 0 0 0 0-.038c-.003-.007-.012-.01-.016-.016-.002-.003-.003-.01-.007-.011h-.004l-.008-.016q-.004.002-.008 0c-.001-.001.002-.005 0-.007 0-.003-.005 0-.007 0l-.031-.016c-.01-.004-.017-.02-.02-.027q.002-.004 0-.007-.003-.007-.007-.012c-.006-.013.004-.046 0-.062l-.004-.007a1 1 0 0 1 0-.131l.004-.008c.001-.003-.002-.008 0-.012l.004-.003c.003-.01-.002-.025 0-.035q.001-.004.004-.008c.001-.007-.002-.016 0-.023q.001-.004.004-.008c.001-.006-.002-.013 0-.019-.001-.008.006-.012.007-.02.002-.006-.001-.015 0-.022.002-.01.004-.016.004-.027l-.004-.231-.123-.185.166-.227.038-.019.008-.147-.008-.031-.297-.174-.427-.28-.023-.046.017-.11.027-.123.012-.045-.035-.034-.117-.03-.11-.024-.062-.106-.05-.096-.019-.048.014-.102.047-.145.058-.133.005-.09.428-.376-.059-.16-.106-.192-.117-.14-.089-.11-.062-.054L3.68 4.1l-.099-.117-.098-.093-.155-.079-.185-.1-.106-.03-.174.016-.18-.003-.144-.37-.011-.068.027-.15.022-.063.005-.1.022-.057-.065-.082.038-.439-.063.039-.065.128-.05.147-.04.12-.033.127-.024.123-.077-.136-.005-.117.07-.117.028-.09.02-.076.024-.082.002-.09-.106-.027.06-.066-.005-.073.046-.106.068-.107.27-.201.307-.261.28-.273.093-.1-.141-.006-.098-.005-.093-.003-.106.052-.234.1-.354.23-.017-.034.183-.138.354-.213.242-.114.185-.055L3.4.917l.207-.014.182-.068h.123l.103.03.161-.005.093-.041.144-.014Zm-.379 2.55h.14l.043.015.027.033.027.006-.016.114-.154.016-.046-.064-.037-.047-.006-.039zm.38.126.074.01.094.033.085.066.002.065-.052.01-.033.04-.086-.008-.012-.038-.062-.1-.047-.048zm.48.188.093.006.042.03.048.053.029.044.021.052-.002.088-.036.02-.163.007-.04-.024-.079-.027-.01-.02.036-.017L5 3.825l.01-.075zm.2 4.499h.004z" style="fill:#f1f1f1;fill-opacity:1;stroke:none;stroke-width:.793751;stroke-linecap:round;stroke-linejoin:round;paint-order:stroke fill markers"/></g></svg>