<svg xmlns="http://www.w3.org/2000/svg" xml:space="preserve" width="34" height="34" viewBox="0 0 8.996 8.996"><g style="display:inline"><path d="m-6.995-64.987-8.218 8.172-.359-.003-3.195-3.156-8.302 8.303 3.227 3.227v.526l-1.256 1.256s-1.443 1.484-3.725 1.484c-1.968 0-4.233-2.067-4.233-2.067l-2.572-2.571-11.315 11.315s1.93 9.298 1.93 15.052c0 5.755-1.198 15.03-2.063 17.533.397.327 3.017 2.993 3.017 2.993s7.787-1.894 17.516-1.894 14.873 2.08 14.873 2.08l11.462-11.46-3.73-3.731s-1.02-.945-1.02-3.166c0-1.957 1.123-3.017 1.123-3.017l1.796-1.896.455-.016 3.128 3.268 8.414-8.414-3.286-3.285v-.504l8.173-8.043v-8.191L1.049-64.987Zm1.82 6.68 13.36 13.36-2.108 2.11-5.63-5.631-5.305 5.316.047.345L6.582-31.535v.513l-4.83 4.828h-.5l-25.167-25.173v-.384l4.863-4.855h.597l11.262 11.263h.33l5.234-5.234-5.639-5.639zm-16.62 11.939 8.35 8.35-8.696 8.697s-1.432-1.666-4.425-1.666c-2.994 0-7.367 2.114-7.367 7.571s4.49 7.724 7.367 7.724 7.366-1.894 7.366-7.717c0-1.333-.245-3.286-1.286-4.327.9-.9 8.596-8.628 8.596-8.628l8.412 8.412v.356l-1.477 1.477s-1.99 1.517-1.99 5.025 1.38 4.55 3.472 6.641v.34l-8.805 8.804S-18.52-6.945-26.59-6.945s-16.486 1.543-16.486 1.543l-1.38-1.302s1.567-4.007 1.567-16.729c0-7.95-1.684-14.218-1.684-14.218l8.679-8.679h.54s2.076 3.416 6.567 3.416c4.045 0 6.381-3.438 6.381-3.438z" style="display:inline;fill:#f1f1f1;fill-opacity:1;fill-rule:nonzero;stroke:none;stroke-width:1.5875;stroke-linecap:round;stroke-linejoin:round;stroke-dasharray:none;stroke-opacity:1;paint-order:normal" transform="translate(6.628 6.978)scale(.09827)"/><path d="M-56.925-4.466c-1.281 0-1.268 1.169-1.268 1.169 0 6.504 5.65 6.963 7.021 6.917h13.05c4.284 0 7.525 3.455 7.72 3.667a4.6 4.6 0 0 0-.751 2.524 4.62 4.62 0 0 0 4.619 4.619 4.62 4.62 0 0 0 4.618-4.62 4.62 4.62 0 0 0-4.618-4.618 4.6 4.6 0 0 0-1.987.449c-4.856-4.582-9.592-4.331-9.592-4.331H-51.16c-4.046 0-4.502-3.613-4.502-4.607 0 0 .018-1.17-1.263-1.17M-29.21 6.057a5 5 0 0 0-.198.15c.07-.06.134-.105.198-.15" style="fill:#f1f1f1;fill-opacity:1;fill-rule:nonzero;stroke:none;stroke-width:1.65016;stroke-linecap:round;stroke-linejoin:round;stroke-dasharray:none;stroke-opacity:1;paint-order:normal" transform="translate(6.628 6.978)scale(.09827)"/></g></svg>