<svg xmlns="http://www.w3.org/2000/svg" xml:space="preserve" width="34" height="34" viewBox="0 0 8.996 8.996"><g style="display:inline"><path d="M4.504.598a.24.24 0 0 0-.169.07l-.839.84.846.845a.6.6 0 0 1 .172-.026.575.575 0 0 1 .575.575.6.6 0 0 1-.03.186l.009-.01.884.884a.6.6 0 0 1 .162-.023.575.575 0 0 1 .575.575.575.575 0 0 1-.575.576.575.575 0 0 1-.575-.576.6.6 0 0 1 .034-.195l-.797-.797v2.141a.57.57 0 0 1 .313.513.575.575 0 0 1-.575.575.575.575 0 0 1-.575-.575.57.57 0 0 1 .313-.513V3.415a.57.57 0 0 1-.313-.513.6.6 0 0 1 .03-.186l-.84-.84-2.461 2.46a.24.24 0 0 0 0 .336l3.656 3.656a.24.24 0 0 0 .337 0L8.328 4.66a.24.24 0 0 0 0-.338L4.672.668a.24.24 0 0 0-.168-.07" style="display:inline;fill:#f1f1f1;fill-opacity:1;stroke:none;stroke-width:.793751;stroke-linecap:round;stroke-linejoin:round;stroke-opacity:1;paint-order:stroke fill markers"/></g></svg>