<svg xmlns="http://www.w3.org/2000/svg" xml:space="preserve" width="34" height="34" viewBox="0 0 8.996 8.996"><g style="display:inline"><path d="m3.31 8.228.001-.4c-.458 0-.566-.043-.776-.2a1.1 1.1 0 0 1-.23-.276c-.089-.149-.1-.245-.177-.34-.243-.295-.662-.43-.713-.453 0 0-.158-.083-.249.094-.09.178.09.274.09.274.029.017.502.19.58.374.14.322.24.439.416.611.388.38 1.058.316 1.058.316m1.374-5.726c-.137 0-.836.044-1.177.131-.086.022-.165-.054-.422-.18-.202-.1-.453-.191-.69-.21a.9.9 0 0 0-.085.413c.012.303.113.502.083.612-.046.175-.46.42-.46 1.314 0 1.779 1.705 1.863 1.907 1.901 0 0 .131.011.176.097.098.185-.053.267-.166.413s-.138.352-.138.352v1.583s-.006.2-.205.2c-.2 0-.2-.2-.2-.2l.006-1.583c0-.096.008-.14.055-.28.048-.14.116-.243.116-.243-.035-.009-1.95-.202-1.95-2.241 0-.978.427-1.343.452-1.407-.092-.471-.085-.428-.065-.717.006-.092.117-.511.245-.598.224-.154 1.078.188 1.34.363A8 8 0 0 1 4.685 2.1Zm0 0c.137 0 .836.044 1.177.131.086.022.165-.054.422-.18.202-.1.453-.191.69-.21.06.13.091.28.085.413-.012.303-.113.502-.083.612.047.175.46.42.46 1.314 0 1.779-1.705 1.863-1.907 1.901 0 0-.131.011-.176.097-.098.185.053.267.166.413a.8.8 0 0 1 .138.352v1.583s.006.2.205.2c.2 0 .2-.2.2-.2l-.006-1.583A.7.7 0 0 0 6 7.065a1.2 1.2 0 0 0-.116-.243c.035-.009 1.95-.202 1.95-2.241 0-.978-.427-1.343-.452-1.407.092-.471.085-.428.065-.717-.006-.092-.117-.511-.245-.598-.224-.154-1.078.188-1.34.363A8 8 0 0 0 4.683 2.1Z" style="opacity:1;fill:#f1f1f1;fill-opacity:1;stroke-width:.759355;stroke-linecap:round;stroke-linejoin:round;paint-order:stroke fill markers" transform="matrix(1.0453 0 0 1.04529 -.39 -1.207)"/></g></svg>