<svg xmlns="http://www.w3.org/2000/svg" xml:space="preserve" width="34" height="34" viewBox="0 0 8.996 8.996"><path d="M3.659 8.928V7.354s-.004-.308.246-.666c-.292-.05-2.02-.208-2.02-2.107 0-.824.258-1.124.425-1.366-.042-.366-.15-.657.083-1.19.383.05.633.058 1.266.416.391-.117.808-.15 1.15-.142.34 0 .965.075 1.198.134.608-.342.841-.367 1.208-.408.274.533.141.816.074 1.19.159.242.467.542.467 1.358 0 1.923-1.757 2.023-2.115 2.115.332.314.336.656.336.656l.005 1.575" style="fill:none;fill-opacity:1;stroke:#f1f1f1;stroke-width:.399689;stroke-linecap:round;stroke-linejoin:round;stroke-dasharray:none;stroke-opacity:1" transform="matrix(1.0453 0 0 1.04529 -.258 -1.207)"/><path d="M3.41 8.02s-.541.07-.883-.15a1.3 1.3 0 0 1-.492-.616c-.084-.205-.275-.333-.69-.508" style="fill:none;fill-opacity:1;stroke:#f1f1f1;stroke-width:.399689;stroke-linecap:round;stroke-linejoin:round;stroke-dasharray:none;stroke-opacity:1" transform="matrix(1.0453 0 0 1.04529 -.258 -1.207)"/></svg>