<svg xmlns="http://www.w3.org/2000/svg" xml:space="preserve" width="34" height="34" viewBox="0 0 8.996 8.996"><g style="display:inline;stroke-width:5.57828"><path d="M-124.685-50.734a21.894 21.894 0 0 0-21.894 21.894 21.894 21.894 0 0 0 21.894 21.895A21.894 21.894 0 0 0-102.79-28.84a21.894 21.894 0 0 0-21.894-21.894m0 2.183a19.71 19.71 0 0 1 19.712 19.711 19.71 19.71 0 0 1-19.712 19.712 19.71 19.71 0 0 1-19.711-19.712 19.71 19.71 0 0 1 19.711-19.711" style="fill:#f1f1f1;fill-opacity:1;stroke:none;stroke-width:4.42777;stroke-linecap:round;stroke-linejoin:round;paint-order:stroke fill markers" transform="translate(26.85 9.672)scale(.17927)"/><path d="m-116.833-41.534-2.537 2.386h1.392v9.354h-6.53v2.245h6.53v9.712h2.306v-21.311h1.482zm-15.72 25.725 2.538-2.385h-1.392v-9.355h6.9v-2.245h-6.9v-9.712h-2.307v21.312h-1.481z" style="fill:#f1f1f1;fill-opacity:1;stroke:none;stroke-width:4.42777;stroke-linecap:round;stroke-linejoin:round;paint-order:stroke fill markers" transform="translate(26.85 9.672)scale(.17927)"/></g></svg>