<svg xmlns="http://www.w3.org/2000/svg" xml:space="preserve" width="34" height="34" viewBox="0 0 8.996 8.996"><g style="display:inline"><path d="M-35.092-37.633c1.996 0 1.996 1.859 1.996 1.859v14.622s.164 4.239 2.388 6.51 5.815 2.27 5.815 2.27H.75s4.006 0 6.372-2.361 2.395-6.42 2.395-6.42v-26.316s0-2.865-2.372-5.118S.75-55.159.75-55.159h-25.644s-3.406.022-5.804 2.497-2.399 5.193-2.399 5.193v2.993s0 1.993-1.996 1.99-1.985-1.992-1.985-1.992v-2.991c0-.53 0-4.255 3.578-8.003s8.01-3.657 8.606-3.657H.75s5.345-.246 9.2 3.73 3.534 7.934 3.534 7.934v26.313c0 1.279-.181 5.718-3.556 9.233C6.553-8.405 1.964-8.405.759-8.405h-25.652c-1.201 0-5.288 0-8.618-3.428s-3.566-8.221-3.566-9.32v-14.621s-.01-1.86 1.985-1.86" style="fill:#f1f1f1;fill-opacity:1;stroke-width:5.34752;stroke-linecap:round;stroke-linejoin:round;paint-order:stroke fill markers" transform="translate(6.249 9.51)scale(.14843)"/><path d="M-25.536-26.388c1.948 0 1.98 1.852 1.98 1.852v2.66H-.015v-9.853h-25.521c-.126 0-.865.01-1.425-.605-.561-.616-.561-1.101-.561-1.247v-13.888s-.087-.758.597-1.41 1.389-.58 1.389-.58H1.957s1.998.006 1.998 1.99-1.852 1.989-1.998 1.989h-25.513v9.776H1.957c.061 0 .813-.018 1.405.577.593.596.593 1.258.593 1.323v13.906c0 .116-.001.837-.573 1.413-.57.577-1.281.577-1.425.577h-27.493c-.213 0-.772 0-1.368-.548s-.618-1.253-.618-1.442v-4.638s.038-1.852 1.986-1.852" style="fill:#f1f1f1;fill-opacity:1;stroke-width:5.34752;stroke-linecap:round;stroke-linejoin:round;paint-order:stroke fill markers" transform="translate(6.249 9.51)scale(.14843)"/></g></svg>