<svg xmlns="http://www.w3.org/2000/svg" xml:space="preserve" width="34" height="34" viewBox="0 0 8.996 8.996"><g style="display:inline"><path d="M4.517.734c-.331 0-.532.182-.532.182L.6 3.709s-.225.163-.225.47c0 .276.195.348.227.356.11.03.347.04.568.09.272.059.517.175.517.314 0 .142-.335.294-.335.68 0 .45.687.688 1.509.68.853-.007 1.176.389 1.176.632 0 .303-.47.33-.47.677 0 .346.68.654 1.242.654 0 0 .459 0 .459-.285 0-.114-.2-.248-.2-.384 0-.252.59-.412 1.043-.48.454-.068.629-.293.629-.372 0-.215-.657-.377-.657-.585 0-.276 1.521-.29 1.521-.644 0-.236-.276-.207-.276-.367 0-.124.209-.289.528-.429s.763-.278.763-.652c0-.242-.269-.439-.269-.439L5.044.914s-.197-.18-.527-.18m.002.427c.198 0 .32.131.32.131l1.456 1.201s.136.123.136.293c0 .171-.157.286-.157.286l-.66-.785v.808l-.53-.355-.952.436-.29-.76-.383.818H2.386c-.098 0-.184-.076-.184-.204 0-.118.24-.29.24-.29l1.756-1.445s.123-.134.321-.134M2.43 4.645a.3.3 0 0 1 .083.014s.4.07.665.104c.265.035.663.047.738.05.074.002.203.047.183.187-.023.154-.146.159-.146.159s-.405.012-.797-.035S2.44 5 2.44 5s-.24-.04-.178-.227c.034-.105.11-.128.17-.128M2.918 6.6a.56.346 0 0 0-.56.347.56.346 0 0 0 .56.346.56.346 0 0 0 .56-.346.56.346 0 0 0-.56-.347" style="fill:#f1f1f1;fill-opacity:1;stroke-width:.793749;stroke-linecap:round;stroke-linejoin:round;paint-order:stroke fill markers"/></g></svg>