<svg xmlns="http://www.w3.org/2000/svg" xml:space="preserve" width="34" height="34" viewBox="0 0 8.996 8.996"><g transform="translate(-25.231 10.02)scale(.17247)"><rect width="21.091" height="27.023" x="149.25" y="-55.32" rx="5.688" ry="5.688" style="fill:#f1f1f1;fill-opacity:1;fill-rule:nonzero;stroke:none;stroke-width:.792155;stroke-linecap:square;stroke-linejoin:miter;stroke-dasharray:none;stroke-opacity:1;paint-order:normal"/><path d="M180.101-35.68a5.675 5.675 0 0 0-5.687 5.687v15.648a5.675 5.675 0 0 0 5.687 5.687h9.716a5.675 5.675 0 0 0 5.688-5.687v-15.648a5.675 5.675 0 0 0-5.688-5.687zm-.254 3.704h10.224c.987 0 1.782.882 1.782 1.978v15.657c0 1.097-.795 1.98-1.782 1.98h-10.224c-.987 0-1.782-.883-1.782-1.98v-15.657c0-1.096.795-1.978 1.782-1.978" style="display:inline;fill:#f1f1f1;fill-opacity:1;fill-rule:nonzero;stroke:none;stroke-width:.792155;stroke-linecap:square;stroke-linejoin:miter;stroke-dasharray:none;stroke-opacity:1;paint-order:normal"/><path d="M179.1-55.332a4.677 4.677 0 0 0-4.688 4.685v6.02a4.676 4.676 0 0 0 4.689 4.684h11.718a4.676 4.676 0 0 0 4.688-4.685v-6.019a4.676 4.676 0 0 0-4.688-4.685zm.98 3.678h9.714c1.15 0 2.075.892 2.075 2v4.032c0 1.109-.925 2-2.075 2h-9.715c-1.15 0-2.075-.891-2.075-2v-4.031c0-1.109.925-2.001 2.075-2.001M153.935-24.042a4.677 4.677 0 0 0-4.689 4.685v6.02a4.676 4.676 0 0 0 4.689 4.684h11.718a4.676 4.676 0 0 0 4.688-4.684v-6.02a4.676 4.676 0 0 0-4.688-4.685zm.978 3.678h9.715c1.15 0 2.075.892 2.075 2.001v4.031c0 1.109-.925 2.001-2.075 2.001h-9.715c-1.15 0-2.075-.892-2.075-2v-4.032c0-1.109.925-2 2.075-2" style="display:inline;fill:#f1f1f1;fill-opacity:1;fill-rule:nonzero;stroke:none;stroke-width:.791703;stroke-linecap:square;stroke-linejoin:miter;stroke-dasharray:none;stroke-opacity:1;paint-order:normal"/></g></svg>