<svg xmlns="http://www.w3.org/2000/svg" xml:space="preserve" width="34" height="34" viewBox="0 0 8.996 8.996"><g style="display:inline"><path d="M2.856.256c-.118.004-.377.037-.569.225-.242.238-.216.663-.216.663v3.793h.264V1.116s0-.313.137-.45c.144-.144.448-.145.448-.145h3.264v1.423s-.001.085.075.16a.25.25 0 0 0 .163.077H8.12v5.723s.001.219-.176.395c-.18.18-.398.18-.398.18H2.868s-.217-.001-.397-.18c-.136-.137-.136-.397-.136-.397v-.078H2.07v.002s-.025.418.215.658c.258.258.634.26.634.26h4.574s.4.002.662-.26c.258-.257.23-.661.23-.661V2.075L6.288.256h-3.37a.4.4 0 0 0-.06 0z" style="display:inline;fill:#f1f1f1;fill-opacity:1;stroke-width:.264581"/><path d="m208.793 157.569-110.44.01c-.421 0-30.114.05-30.114 30.223 0 30.913 29.427 30.923 30.091 30.923l110.485.011zm-57.72 15.757c6.58 0 9.608 2.166 9.608 2.166l-2.298 5.088s-3.376-2.188-7.31-2.188c-3.932 0-5.46 1.12-5.46 2.998s1.485 2.391 8.71 4.093 7.595 6.078 7.595 7.801c0 1.724-1.453 8.82-12.037 8.82-7.844 0-11.435-3.469-11.435-3.469l2.287-4.836s4.014 2.78 9.17 2.78c1.844 0 5.033-.17 5.033-2.78 0-2.578-2.715-2.598-9.322-4.432s-6.697-5.985-6.697-7.178c0-6.412 4.953-8.863 12.157-8.863m-33.23.033h16.588l-.011 20.122s.51 8.623-10.384 8.623c-5.215 0-8.776-4.366-8.776-4.366l3.501-4.257s2.02 2.89 5.285 2.89 3.688-2.89 3.688-2.89v-14.465l-9.892-.011z" style="display:inline;fill:#f1f1f1;stroke-width:6;stroke-linecap:round;stroke-linejoin:round" transform="translate(-2.683 -2.513)scale(.04723)"/></g></svg>