<svg xmlns="http://www.w3.org/2000/svg" xml:space="preserve" width="34" height="34" viewBox="0 0 8.996 8.996"><path d="M-5.887 332.581V51.17s1.216-25.731-25.728-25.728H-314.87c0 42.012 21.959 88.696 66.57 112.082 30.89 16.192 43.1 16.264 114.345 16.264v51.823s.2 119.8 128.068 126.971" style="fill:#f1f1f1;fill-opacity:1;stroke:none;stroke-width:1.5875;stroke-linecap:round;stroke-linejoin:round;stroke-dasharray:none;stroke-opacity:1" transform="translate(4.743 4.04)scale(.01252)"/><path d="M134.99 190.675V-90.739s1.217-25.731-25.727-25.728h-283.255c0 42.013 21.959 88.696 66.57 112.082 30.89 16.192 43.1 16.264 114.344 16.264v51.824s.2 119.799 128.069 126.97" style="fill:#f1f1f1;fill-opacity:1;stroke:none;stroke-width:1.5875;stroke-linecap:round;stroke-linejoin:round;stroke-dasharray:none;stroke-opacity:1" transform="translate(4.743 4.04)scale(.01252)"/><path d="M275.714 48.98v-281.412s1.216-25.73-25.728-25.728H-33.269c0 42.013 21.959 88.697 66.571 112.082 30.89 16.192 43.1 16.264 114.344 16.264v51.824s.2 119.799 128.068 126.97" style="fill:#f1f1f1;fill-opacity:1;stroke:none;stroke-width:1.5875;stroke-linecap:round;stroke-linejoin:round;stroke-dasharray:none;stroke-opacity:1" transform="translate(4.743 4.04)scale(.01252)"/></svg>