<svg xmlns="http://www.w3.org/2000/svg" xml:space="preserve" width="34" height="34" viewBox="0 0 8.996 8.996"><g style="display:inline"><path d="M110.417 68.088c-29.602 13.547-45.195 43.683-44.84 73.736.482 40.723 27.12 65.325 27.12 65.325s18.064-18.493 18.057-18.501c-7.37-8.012-23.93-30.096-24.344-64.072-.49-40.418 26.29-57.533 24.007-56.488m120.85 117.918c-12.824 29.922-42.572 46.243-72.625 46.618-40.723.507-65.946-25.475-65.946-25.475s18.05-18.508 18.058-18.501c8.189 7.173 30.65 23.143 64.625 22.73 40.417-.491 56.877-27.68 55.888-25.372" style="fill:#f1f1f1;stroke-width:.201312" transform="matrix(.04593 0 0 .04607 -2.578 -2.345)"/><path d="M148.25 69.841c-21.792 9.126-33.353 29.63-33.197 50.141.21 27.794 19.691 44.69 19.691 44.69s13.335-12.548 13.33-12.553c-5.385-5.498-17.473-20.636-17.657-43.824-.219-27.585 19.514-39.158 17.833-38.454m88.36 80.959c-9.526 20.369-31.436 31.387-53.514 31.522-29.915.183-48.352-17.65-48.352-17.65s13.324-12.558 13.33-12.553c5.99 4.927 22.433 15.917 47.392 15.771 29.691-.172 41.878-18.662 41.143-17.09" style="fill:#f1f1f1;stroke-width:.142537" transform="matrix(.04593 0 0 .04607 -2.578 -2.345)"/><path d="M179.43 64.29c-14.87 6.436-22.433 20.335-21.898 34.064.726 18.602 14.542 29.621 14.542 29.621s8.954-8.6 8.95-8.603c-3.836-3.6-12.506-13.552-13.117-29.072-.726-18.463 12.67-26.506 11.523-26.01m62.756 52.874c-6.158 13.778-21.071 21.482-36.327 21.903-20.671.57-33.785-11.092-33.785-11.092s8.946-8.606 8.95-8.603c4.243 3.21 15.836 10.32 33.083 9.849 20.517-.56 28.554-13.12 28.079-12.057" style="fill:#f1f1f1;stroke-width:.0969855" transform="matrix(.04593 0 0 .04607 -2.578 -2.345)"/></g></svg>