<svg xmlns="http://www.w3.org/2000/svg" xml:space="preserve" width="34" height="34" viewBox="0 0 8.996 8.996"><g style="display:inline;stroke:#f1f1f1;stroke-opacity:1"><path d="M2.784 8.004c-.034-.002-.792-.052-.805-.826V1.126s-.053-.75.744-.75h3.003l1.868 1.621v5.241s.041.766-.76.766z" style="fill:none;fill-opacity:1;stroke:#f1f1f1;stroke-width:.244072;stroke-dasharray:none;stroke-opacity:1" transform="translate(.049 -.018)scale(1.07818)"/><path d="M7.401 1.936H6.102s-.339.014-.339-.45V.511z" style="fill:none;fill-opacity:1;stroke:#f1f1f1;stroke-width:.235327;stroke-linecap:round;stroke-dasharray:none;stroke-opacity:1" transform="translate(.049 -.018)scale(1.07818)"/></g><path d="m208.813 218.738-110.485-.011c-.664 0-30.094-.01-30.094-30.922 0-30.174 29.693-30.227 30.114-30.227l110.447-.012z" style="display:inline;fill:#f1f1f1;stroke-width:6;stroke-linecap:round;stroke-linejoin:round" transform="translate(-2.683 -2.513)scale(.04723)"/><path d="m87.25 197.734 3.5-4.25s2.016 2.891 5.281 2.891c3.266 0 3.688-2.89 3.688-2.89v-14.473l-9.895-.004.008-5.649h16.582l-.004 20.125s.51 8.618-10.384 8.618c-5.215 0-8.776-4.368-8.776-4.368zM121.865 202.1c-7.844 0-11.427-3.46-11.427-3.46l2.28-4.843s4.016 2.781 9.173 2.781c1.843 0 5.03-.172 5.03-2.781 0-2.578-2.713-2.59-9.32-4.425s-6.696-5.988-6.696-7.182c0-6.412 4.95-8.86 12.154-8.86 6.578 0 9.612 2.165 9.612 2.165l-2.298 5.082s-3.381-2.187-7.314-2.187-5.458 1.127-5.458 3.005 1.48 2.386 8.706 4.088 7.601 6.077 7.601 7.8c0 1.724-1.458 8.817-12.043 8.817" style="fill:#1f1f1f;fill-opacity:1;stroke-width:6;stroke-linecap:round;stroke-linejoin:round" transform="translate(-2.683 -2.513)scale(.04723)"/><g transform="translate(-2.683 -2.513)scale(.04723)"><ellipse cx="151.491" cy="187.733" rx="15.366" ry="14.372" style="display:inline;fill:#1f1f1f;fill-opacity:1;stroke-width:6.12651;stroke-linecap:round;stroke-linejoin:round"/><ellipse cx="151.513" cy="187.475" rx="8.88" ry="9.098" style="fill:#f1f1f1;fill-opacity:1;stroke-width:3.70554;stroke-linecap:round;stroke-linejoin:round"/></g><path d="M178.047 202.1h-6.672l.004-28.737h5.464l13.743 16.793v-16.793l6.68-.004-.005 28.74h-5.436l-13.81-17.014Z" style="display:inline;fill:#1f1f1f;fill-opacity:1;stroke-width:6;stroke-linecap:round;stroke-linejoin:round" transform="translate(-2.683 -2.513)scale(.04723)"/></svg>