<svg xmlns="http://www.w3.org/2000/svg" xml:space="preserve" width="34" height="34" viewBox="0 0 8.996 8.996"><g style="display:inline"><path d="M2.857.257c-.118.004-.378.036-.57.225-.242.238-.216.663-.216.663v3.791h.264V1.117s0-.313.137-.45c.144-.144.448-.145.448-.145h3.263l1.937 1.66v5.723s0 .22-.177.395c-.18.181-.398.18-.398.18H2.868s-.217 0-.397-.18c-.136-.137-.136-.397-.136-.397v-.079H2.07v.003s-.025.418.215.658c.258.258.634.26.634.26h4.574s.4.002.662-.26c.258-.257.23-.66.23-.66V2.075L6.288.257h-3.37q-.002-.002-.062 0" style="display:inline;fill:#f1f1f1;fill-opacity:1;stroke-width:.264583"/><path d="m6.184.522 1.935 1.66H6.422s-.087 0-.163-.076-.075-.16-.075-.16z" style="display:inline;fill:#f1f1f1;fill-opacity:1;stroke-width:.264583"/><path d="m208.793 157.569-110.44.01c-.421 0-30.114.05-30.114 30.223 0 30.913 29.427 30.923 30.091 30.923l110.485.011zm-85.733 15.757c6.579 0 9.607 2.166 9.607 2.166l-2.298 5.088s-3.376-2.188-7.309-2.188-5.46 1.12-5.46 2.998 1.484 2.391 8.71 4.093 7.594 6.078 7.594 7.801c0 1.724-1.453 8.82-12.037 8.82-7.844 0-11.434-3.469-11.434-3.469l2.287-4.836s4.013 2.78 9.17 2.78c1.843 0 5.033-.17 5.033-2.78 0-2.578-2.716-2.598-9.323-4.432s-6.697-5.985-6.697-7.178c0-6.412 4.953-8.863 12.157-8.863m-33.232.033h16.589l-.011 20.122s.51 8.623-10.384 8.623c-5.215 0-8.776-4.366-8.776-4.366l3.502-4.257s2.019 2.89 5.285 2.89 3.687-2.89 3.687-2.89v-14.465l-9.892-.011zm61.66 0a15.366 14.372 0 0 1 15.374 14.378 15.366 14.372 0 0 1-15.374 14.367 15.366 14.372 0 0 1-15.363-14.367 15.366 14.372 0 0 1 15.363-14.378m19.893 0h5.46l13.744 16.796v-16.796h6.685l-.01 28.745h-5.439l-13.809-17.015.033 17.015h-6.675zm-19.871 5.022a8.88 9.098 0 0 0-8.874 9.093 8.88 9.098 0 0 0 8.874 9.104 8.88 9.098 0 0 0 8.885-9.104 8.88 9.098 0 0 0-8.885-9.093" style="display:inline;fill:#f1f1f1;stroke-width:6;stroke-linecap:round;stroke-linejoin:round" transform="translate(-2.683 -2.513)scale(.04723)"/></g></svg>