<svg xmlns="http://www.w3.org/2000/svg" xml:space="preserve" width="34" height="34" viewBox="0 0 8.996 8.996"><path d="M-68.896-36.716a8.325 8.325 0 0 0-8.325 8.325 8.325 8.325 0 0 0 8.325 8.326 8.325 8.325 0 0 0 8.326-8.326 8.325 8.325 0 0 0-8.326-8.325m0 3.134a5.19 5.19 0 0 1 5.192 5.191 5.19 5.19 0 0 1-5.192 5.192 5.19 5.19 0 0 1-5.19-5.192 5.19 5.19 0 0 1 5.19-5.191" style="display:inline;fill:#f1f1f1;fill-opacity:1;fill-rule:nonzero;stroke:none;stroke-width:1.08892;stroke-linecap:round;stroke-linejoin:round;stroke-dasharray:none;stroke-opacity:1;paint-order:normal" transform="translate(11.828 11.191)scale(.13951)"/><g transform="translate(11.828 11.191)scale(.13951)"><path d="M-56.007-27.141h21.759v2.748h-21.759z" style="fill:#f1f1f1;fill-opacity:1;fill-rule:nonzero;stroke:none;stroke-width:2.3819;stroke-linecap:round;stroke-linejoin:round;stroke-dasharray:none;stroke-opacity:1;paint-order:normal"/><rect width="28.143" height="2.724" x="-56.008" y="-32.426" ry="0" style="fill:#f1f1f1;fill-opacity:1;fill-rule:nonzero;stroke:none;stroke-width:2.02648;stroke-linecap:round;stroke-linejoin:round;stroke-dasharray:none;stroke-opacity:1;paint-order:normal"/></g><path d="M-68.896-75.734a8 8 0 0 1 1.132.08 8 8 0 0 0-1.132-.08m1.132.08a8 8 0 0 1 .362.073 8 8 0 0 0-.362-.073m.362.073a8 8 0 0 1 .75.16 8 8 0 0 0-.75-.16m.75.16a8 8 0 0 1 .42.143 8 8 0 0 0-.42-.142m.42.143a8 8 0 0 1 .645.238 8 8 0 0 0-.645-.238m.645.238a8 8 0 0 1 .427.21 8 8 0 0 0-.427-.21m.427.21a8 8 0 0 1 .585.316 8 8 0 0 0-.585-.316m.585.316a8 8 0 0 1 .399.267 8 8 0 0 0-.4-.267m.399.267a8 8 0 0 1 .525.388 8 8 0 0 0-.525-.388m.525.388a8 8 0 0 1 .375.33 8 8 0 0 0-.375-.33m.375.33a8 8 0 0 1 .45.443 8 8 0 0 0-.45-.444m.45.443a8 8 0 0 1 .335.38 8 8 0 0 0-.335-.38m.335.38a8 8 0 0 1 .387.507 8 8 0 0 0-.387-.507m.387.507a8 8 0 0 1 .274.41 8 8 0 0 0-.274-.41m.274.41a8 8 0 0 1 .319.57 8 8 0 0 0-.32-.57m.319.57a8 8 0 0 1 .214.435 8 8 0 0 0-.214-.435m.214.435a8 8 0 0 1 .235.607 8 8 0 0 0-.235-.607m.235.607a8 8 0 0 1 .157.463 8 8 0 0 0-.157-.463m.157.463a8 8 0 0 1 .149.641 8 8 0 0 0-.149-.64m.149.641a8 8 0 0 1 .093.468 8 8 0 0 0-.093-.468m.093.468a8 8 0 0 1 .06.702 8 8 0 0 0-.06-.702m.06.702a8 8 0 0 1 .025.365q.004 0 .007-.002a8 8 0 0 0-.032-.363m.025.365a.4.4 0 0 1-.1.011h-3.027l.001.119a5.19 5.19 0 0 1-5.191 5.191 5.19 5.19 0 0 1-5.192-5.191 5.19 5.19 0 0 1 3.621-4.949l-.586-2.993a.4.4 0 0 1-.01-.097 8.325 8.325 0 0 0-6.159 8.039 8.325 8.325 0 0 0 8.326 8.325 8.325 8.325 0 0 0 8.325-8.325zm-10.483-7.909.004-.001zm.004-.001a8 8 0 0 1 .646-.13 8 8 0 0 0-.646.13m.646-.13a8 8 0 0 1 .428-.085 8 8 0 0 0-.428.086m5.396 4.721a5.2 5.2 0 0 1 1.242 2.603 5.2 5.2 0 0 0-1.242-2.603" style="display:inline;fill:#f1f1f1;fill-opacity:1;fill-rule:nonzero;stroke:none;stroke-width:1.08892;stroke-linecap:round;stroke-linejoin:round;stroke-dasharray:none;stroke-opacity:1;paint-order:normal" transform="translate(11.828 11.191)scale(.13951)"/><path d="m-63.025-72.642-5.403 7.834-3.788-3.695 1.964-2.058 1.403 1.403 3.555-5.168z" style="fill:#f1f1f1;fill-opacity:1;fill-rule:nonzero;stroke:none;stroke-width:1.08903;stroke-linecap:round;stroke-linejoin:round;stroke-dasharray:none;stroke-opacity:1;paint-order:normal" transform="translate(11.828 11.191)scale(.13951)"/><g transform="translate(11.828 11.191)scale(.13951)"><path d="M-56.007-66.335h21.759v2.748h-21.759z" style="fill:#f1f1f1;fill-opacity:1;fill-rule:nonzero;stroke:none;stroke-width:2.3819;stroke-linecap:round;stroke-linejoin:round;stroke-dasharray:none;stroke-opacity:1;paint-order:normal"/><rect width="28.143" height="2.724" x="-56.008" y="-71.62" ry="0" style="fill:#f1f1f1;fill-opacity:1;fill-rule:nonzero;stroke:none;stroke-width:2.02648;stroke-linecap:round;stroke-linejoin:round;stroke-dasharray:none;stroke-opacity:1;paint-order:normal"/></g><path d="M-68.896-75.734a8 8 0 0 1 1.132.08 8 8 0 0 0-1.132-.08m1.132.08a8 8 0 0 1 .362.073 8 8 0 0 0-.362-.073m.362.073a8 8 0 0 1 .75.16 8 8 0 0 0-.75-.16m.75.16a8 8 0 0 1 .42.143 8 8 0 0 0-.42-.142m.42.143a8 8 0 0 1 .645.238 8 8 0 0 0-.645-.238m.645.238a8 8 0 0 1 .427.21 8 8 0 0 0-.427-.21m.427.21a8 8 0 0 1 .585.316 8 8 0 0 0-.585-.316m.585.316a8 8 0 0 1 .399.267 8 8 0 0 0-.4-.267m.399.267a8 8 0 0 1 .525.388 8 8 0 0 0-.525-.388m.525.388a8 8 0 0 1 .375.33 8 8 0 0 0-.375-.33m.375.33a8 8 0 0 1 .45.443 8 8 0 0 0-.45-.444m.45.443a8 8 0 0 1 .335.38 8 8 0 0 0-.335-.38m.335.38a8 8 0 0 1 .387.507 8 8 0 0 0-.387-.507m.387.507a8 8 0 0 1 .274.41 8 8 0 0 0-.274-.41m.274.41a8 8 0 0 1 .319.57 8 8 0 0 0-.32-.57m.319.57a8 8 0 0 1 .214.435 8 8 0 0 0-.214-.435m.214.435a8 8 0 0 1 .235.607 8 8 0 0 0-.235-.607m.235.607a8 8 0 0 1 .157.463 8 8 0 0 0-.157-.463m.157.463a8 8 0 0 1 .149.641 8 8 0 0 0-.149-.64m.149.641a8 8 0 0 1 .093.468 8 8 0 0 0-.093-.468m.093.468a8 8 0 0 1 .06.702 8 8 0 0 0-.06-.702m.06.702a8 8 0 0 1 .025.365q.004 0 .007-.002a8 8 0 0 0-.032-.363m.025.365a.4.4 0 0 1-.1.011h-3.027l.001.119a5.19 5.19 0 0 1-5.191 5.191 5.19 5.19 0 0 1-5.192-5.191 5.19 5.19 0 0 1 3.621-4.949l-.586-2.993a.4.4 0 0 1-.01-.097 8.325 8.325 0 0 0-6.159 8.039 8.325 8.325 0 0 0 8.326 8.325 8.325 8.325 0 0 0 8.325-8.325zm-10.483-7.909.004-.001zm.004-.001a8 8 0 0 1 .646-.13 8 8 0 0 0-.646.13m.646-.13a8 8 0 0 1 .428-.085 8 8 0 0 0-.428.086m5.396 4.721a5.2 5.2 0 0 1 1.242 2.603 5.2 5.2 0 0 0-1.242-2.603" style="display:inline;fill:#f1f1f1;fill-opacity:1;fill-rule:nonzero;stroke:none;stroke-width:1.08892;stroke-linecap:round;stroke-linejoin:round;stroke-dasharray:none;stroke-opacity:1;paint-order:normal" transform="translate(11.828 13.882)scale(.13951)"/><path d="m-63.025-72.642-5.403 7.834-3.788-3.695 1.964-2.058 1.403 1.403 3.555-5.168z" style="fill:#f1f1f1;fill-opacity:1;fill-rule:nonzero;stroke:none;stroke-width:1.08903;stroke-linecap:round;stroke-linejoin:round;stroke-dasharray:none;stroke-opacity:1;paint-order:normal" transform="translate(11.828 13.882)scale(.13951)"/><g transform="translate(11.828 13.882)scale(.13951)"><path d="M-56.007-66.335h21.759v2.748h-21.759z" style="fill:#f1f1f1;fill-opacity:1;fill-rule:nonzero;stroke:none;stroke-width:2.3819;stroke-linecap:round;stroke-linejoin:round;stroke-dasharray:none;stroke-opacity:1;paint-order:normal"/><rect width="28.143" height="2.724" x="-56.008" y="-71.62" ry="0" style="fill:#f1f1f1;fill-opacity:1;fill-rule:nonzero;stroke:none;stroke-width:2.02648;stroke-linecap:round;stroke-linejoin:round;stroke-dasharray:none;stroke-opacity:1;paint-order:normal"/></g></svg>