<svg xmlns="http://www.w3.org/2000/svg" xml:space="preserve" width="34" height="34" viewBox="0 0 8.996 8.996"><g style="display:inline;stroke-width:1.27453" transform="translate(52.817 7.096)scale(.15468)"><path d="M-303.991-39.804a11.276 26.151 29.931 0 0-18.09 17.464 11.276 26.151 29.931 0 0-3.274 28.289 11.276 26.151 29.931 0 0 22.82-17.035 11.276 26.151 29.931 0 0 3.277-28.29 11.276 26.151 29.931 0 0-4.733-.428m-.232 1.84a9.4 24.301 29.931 0 1 4.04.19 9.4 24.301 29.931 0 1-3.977 25.75 9.4 24.301 29.931 0 1-20.273 16.372 9.4 24.301 29.931 0 1 3.98-25.751 9.4 24.301 29.931 0 1 16.23-16.56" style="opacity:1;fill:#f1f1f1;fill-opacity:1;stroke-width:5.13161;stroke-linecap:round;stroke-linejoin:round;paint-order:stroke fill markers"/><path d="M-296.54 2.094a26.151 11.276 60.15 0 0-5.986-24.42 26.151 11.276 60.15 0 0-22.796-17.068 26.151 11.276 60.15 0 0 3.234 28.293 26.151 11.276 60.15 0 0 22.796 17.07 26.151 11.276 60.15 0 0 2.752-3.875m-1.473-1.126a24.301 9.4 60.15 0 1-2.198 3.396 24.301 9.4 60.15 0 1-20.249-16.397 24.301 9.4 60.15 0 1-3.943-25.758 24.301 9.4 60.15 0 1 20.249 16.4 24.301 9.4 60.15 0 1 6.141 22.36" style="opacity:1;fill:#f1f1f1;fill-opacity:1;stroke-width:5.13161;stroke-linecap:round;stroke-linejoin:round;paint-order:stroke fill markers"/><ellipse cx="-312.407" cy="-16.755" rx="5.401" ry="5.502" style="opacity:1;fill:#f1f1f1;fill-opacity:1;stroke-width:5.13163;stroke-linecap:round;stroke-linejoin:round;paint-order:stroke fill markers"/><path d="M-287.82-21.02a26.493 11.424.15 0 0-24.457-7.118A26.493 11.424.15 0 0-338.8-16.783a26.493 11.424.15 0 0 26.461 11.494 26.493 11.424.15 0 0 26.524-11.354 26.493 11.424.15 0 0-2.006-4.377m-1.734.722a24.62 9.523.15 0 1 1.866 3.648 24.62 9.523.15 0 1-24.643 9.46 24.62 9.523.15 0 1-24.596-9.587 24.62 9.523.15 0 1 24.645-9.459 24.62 9.523.15 0 1 22.728 5.938" style="opacity:1;fill:#f1f1f1;fill-opacity:1;stroke-width:5.13161;stroke-linecap:round;stroke-linejoin:round;paint-order:stroke fill markers"/></g></svg>