<svg xmlns="http://www.w3.org/2000/svg" xml:space="preserve" width="34" height="34" viewBox="0 0 8.996 8.996"><path d="M-36.046-59.994a5.15 5.15 0 0 0-5.16 5.16v44.008a5.15 5.15 0 0 0 5.16 5.16h24.992a5.15 5.15 0 0 0 5.16-5.16v-8.438h-1.637v5.584l-31.924-.001v-40.89c0-1.635 1.775-3.67 3.673-3.67h4.468c.02 0 .8 1.975.819 2.02.447 1.124.542 1.1.968 1.1h11.585c.625 0 .842.02 1.502-1.123l1.147-1.997h3.898c2.207 0 3.864 2.031 3.864 3.66v4.809h1.637v-5.063a5.15 5.15 0 0 0-5.16-5.16zm8.777 49.121h7.534c.607 0 1.095.489 1.095 1.096v.239c0 .607-.488 1.095-1.095 1.095h-7.534a1.093 1.093 0 0 1-1.096-1.095v-.24c0-.606.489-1.095 1.096-1.095" style="display:inline;fill:#f1f1f1;fill-opacity:1;fill-rule:nonzero;stroke:none;stroke-width:5.79663;stroke-linecap:round;stroke-linejoin:round;stroke-dasharray:none;stroke-opacity:1;paint-order:normal" transform="translate(6.976 9.175)scale(.14241)"/><path d="M-17.58-47.823a3.15 3.15 0 0 0-3.157 3.156v21.038a3.15 3.15 0 0 0 3.157 3.157h7.51v-2.563h6.548v2.563H3.25a3.15 3.15 0 0 0 3.157-3.157v-21.038a3.15 3.15 0 0 0-3.157-3.156zm10.155 3.356c.926 0 2.729 1.092 4.118 2.58 3.704 4.498 2.943 5.623 2.943 6.02-.535.926-1.405.727-1.405.727-2.2 0-1.77-1.257-3.638-1.257-1.224 0-2.163 1.307-2.994 1.307-.612 0-.826-.281-.826-.281l-1.869-2.448s1.224-1.323 1.571-1.687c1.091-1.19 1.042-2.38 1.042-2.38v-1.29c0-.811.132-1.29 1.058-1.29m-4.795 7.921c1.025 1.44 1.95 2.91 3.687 2.91 2.282 0 2.855-1.069 2.855-1.069h.597c1.409 1.41 3.312 1.318 3.312 1.318s.76.016 1.323-.215c0 3.125-2.795 5.143-2.795 5.143s1.29.529 1.29 1.935c0 1.967-1.604 1.966-1.604 1.966h-6.679c-.43 0-1.408-.389-1.408-2.016 0-1.125.663-1.345 1.141-1.62-1.976-1.977-2.745-3.341-2.745-5.474s.641-2.514 1.026-2.878" style="display:inline;fill:#f1f1f1;fill-opacity:1;fill-rule:nonzero;stroke:none;stroke-width:3.17447;stroke-linecap:round;stroke-linejoin:round;stroke-dasharray:none;stroke-opacity:1;paint-order:normal" transform="translate(6.976 9.175)scale(.14241)"/></svg>