<svg xmlns="http://www.w3.org/2000/svg" xml:space="preserve" width="34" height="34" viewBox="0 0 8.996 8.996"><g style="display:inline"><g style="display:inline" transform="translate(6.952 9.873)scale(.16273)"><path d="M-35.982-54.196a4.527 4.527 0 0 0-4.537 4.537v27.219a4.527 4.527 0 0 0 4.537 4.537h27.025v-1.472h-26.45c-2.31 0-3.64-1.33-3.64-3.64v-26.07c0-2.31 1.33-3.64 3.64-3.64h31.722c2.31 0 3.64 1.33 3.64 3.64v3.856h1.472v-4.43a4.527 4.527 0 0 0-4.537-4.537z" style="display:inline;fill:#f1f1f1;fill-opacity:1;fill-rule:nonzero;stroke:none;stroke-width:2.75226;stroke-linecap:round;stroke-linejoin:round;stroke-dasharray:none;stroke-opacity:1;paint-order:normal"/><circle cx="-19.506" cy="-48.556" r="1.181" style="fill:#f1f1f1;fill-opacity:1;fill-rule:nonzero;stroke:none;stroke-width:2.64583;stroke-linecap:round;stroke-linejoin:round;stroke-dasharray:none;stroke-opacity:1;paint-order:normal"/><rect width="27.046" height="2.163" x="-34.915" y="-24.848" ry=".608" style="fill:#f1f1f1;fill-opacity:1;fill-rule:nonzero;stroke:none;stroke-width:8.064;stroke-linecap:round;stroke-linejoin:round;stroke-dasharray:none;stroke-opacity:1;paint-order:normal"/><rect width="16.983" height="2.172" x="-27.798" y="-14.519" ry=".777" style="fill:#f1f1f1;fill-opacity:1;fill-rule:nonzero;stroke:none;stroke-width:3.39994;stroke-linecap:round;stroke-linejoin:round;stroke-dasharray:none;stroke-opacity:1;paint-order:normal"/></g><g style="display:inline" transform="translate(6.952 9.873)scale(.16273)"><path d="M-4.275-45.229a4.67 4.67 0 0 0-4.682 4.682v24.042a4.67 4.67 0 0 0 4.682 4.682h9.944a4.67 4.67 0 0 0 4.682-4.682v-24.042a4.67 4.67 0 0 0-4.682-4.682zm.028 1.638h9.892a3.09 3.09 0 0 1 3.098 3.098v24.149c0 1.716-1.382 2.872-3.098 2.872h-9.892c-1.716 0-3.097-1.156-3.097-2.872v-24.15a3.09 3.09 0 0 1 3.097-3.097" style="display:inline;fill:#f1f1f1;fill-opacity:1;fill-rule:nonzero;stroke:none;stroke-width:2.90593;stroke-linecap:round;stroke-linejoin:round;stroke-dasharray:none;stroke-opacity:1;paint-order:normal"/><rect width="10.389" height="2.164" x="-4.505" y="-40.96" ry=".677" style="fill:#f1f1f1;fill-opacity:1;fill-rule:nonzero;stroke:none;stroke-width:2.96052;stroke-linecap:round;stroke-linejoin:round;stroke-dasharray:none;stroke-opacity:1;paint-order:normal"/><circle cx=".726" cy="-15.996" r="1.181" style="fill:#f1f1f1;fill-opacity:1;fill-rule:nonzero;stroke:none;stroke-width:2.64583;stroke-linecap:round;stroke-linejoin:round;stroke-dasharray:none;stroke-opacity:1;paint-order:normal"/></g></g></svg>