<svg xmlns="http://www.w3.org/2000/svg" xml:space="preserve" width="34" height="34" viewBox="0 0 8.996 8.996"><g style="display:inline" transform="translate(57.82 5.542)scale(.15738)"><path d="M-355.532-19.413v6.387c0 .26 1.419 6.905 16.713 6.905h.02c15.162 0 16.704-6.591 16.704-6.905v-6.384l-.003.004v.003c-.204.306-6.818 4.288-16.717 4.288-9.238 0-16.717-4.298-16.717-4.298zm13.673 6.902a1.94 1.94 0 0 1 1.944 1.941 1.94 1.94 0 0 1-1.944 1.94 1.94 1.94 0 0 1-1.94-1.94 1.94 1.94 0 0 1 1.94-1.94m6.222 0a1.94 1.94 0 0 1 1.94 1.941 1.94 1.94 0 0 1-1.94 1.94 1.94 1.94 0 0 1-1.94-1.94 1.94 1.94 0 0 1 1.94-1.94" style="display:inline;fill:#f1f1f1;fill-opacity:1;stroke:none;stroke-width:1.5875;stroke-linecap:round;stroke-linejoin:round;stroke-dasharray:none;stroke-opacity:1"/><ellipse cx="-338.816" cy="-26.496" rx="16.718" ry="7.086" style="fill:#f1f1f1;fill-opacity:1;stroke:none;stroke-width:1.58054;stroke-linecap:round;stroke-linejoin:round;stroke-dasharray:none;stroke-opacity:1"/><path d="M-355.532-19.412v6.386c0 .262 1.419 6.906 16.713 6.906h.02c15.162 0 16.704-6.591 16.704-6.906v-6.383h-.003v.007c-.204.306-6.818 4.285-16.717 4.285-9.238 0-16.717-4.295-16.717-4.295zm13.673 6.902a1.94 1.94 0 0 1 1.944 1.94 1.94 1.94 0 0 1-1.944 1.941 1.94 1.94 0 0 1-1.94-1.94 1.94 1.94 0 0 1 1.94-1.941m6.222 0a1.94 1.94 0 0 1 1.94 1.94 1.94 1.94 0 0 1-1.94 1.941 1.94 1.94 0 0 1-1.94-1.94 1.94 1.94 0 0 1 1.94-1.941" style="display:inline;fill:#f1f1f1;fill-opacity:1;stroke:none;stroke-width:1.5875;stroke-linecap:round;stroke-linejoin:round;stroke-dasharray:none;stroke-opacity:1" transform="translate(0 13.23)"/><path d="M-355.532-19.412v6.384c0 .26 1.419 6.909 16.713 6.909h.02c15.162 0 16.704-6.592 16.704-6.906v-6.387l-.003.004v.006c-.204.307-6.818 4.285-16.717 4.285-9.238 0-16.717-4.295-16.717-4.295zm13.673 6.9a1.94 1.94 0 0 1 1.944 1.94 1.94 1.94 0 0 1-1.944 1.944 1.94 1.94 0 0 1-1.94-1.944 1.94 1.94 0 0 1 1.94-1.94m6.222 0a1.94 1.94 0 0 1 1.94 1.94 1.94 1.94 0 0 1-1.94 1.944 1.94 1.94 0 0 1-1.94-1.944 1.94 1.94 0 0 1 1.94-1.94" style="display:inline;fill:#f1f1f1;fill-opacity:1;stroke:none;stroke-width:1.5875;stroke-linecap:round;stroke-linejoin:round;stroke-dasharray:none;stroke-opacity:1" transform="translate(0 26.458)"/></g></svg>