<svg xmlns="http://www.w3.org/2000/svg" xml:space="preserve" width="34" height="34" viewBox="0 0 8.996 8.996"><g transform="translate(57.82 5.542)scale(.15738)"><path d="M-355.534-19.41v6.383c0 .261 1.42 6.906 16.714 6.906h.02c15.161 0 16.703-6.59 16.703-6.906v-6.377l-.003.004c-.204.306-6.818 4.285-16.717 4.285-9.237 0-16.717-4.295-16.717-4.295m13.676 6.899a1.94 1.94 0 0 1 1.94 1.94 1.94 1.94 0 0 1-1.94 1.94 1.94 1.94 0 0 1-1.94-1.94 1.94 1.94 0 0 1 1.94-1.94m6.223 0a1.94 1.94 0 0 1 1.94 1.94 1.94 1.94 0 0 1-1.94 1.94 1.94 1.94 0 0 1-1.94-1.94 1.94 1.94 0 0 1 1.94-1.94" style="display:inline;fill:#f1f1f1;fill-opacity:1;stroke:none;stroke-width:1.5875;stroke-linecap:round;stroke-linejoin:round;stroke-dasharray:none;stroke-opacity:1"/><ellipse cx="-338.816" cy="-26.496" rx="16.718" ry="7.086" style="fill:#f1f1f1;fill-opacity:1;stroke:none;stroke-width:1.58054;stroke-linecap:round;stroke-linejoin:round;stroke-dasharray:none;stroke-opacity:1"/><g style="display:inline"><path d="M-355.534-19.41v6.383c0 .26 1.42 6.909 16.714 6.909h.02c15.161 0 16.703-6.594 16.703-6.91v-6.376l-.003.003c-.204.307-6.818 4.285-16.717 4.285-9.237 0-16.717-4.294-16.717-4.294m13.676 6.898a1.94 1.94 0 0 1 1.94 1.941 1.94 1.94 0 0 1-1.94 1.94 1.94 1.94 0 0 1-1.94-1.94 1.94 1.94 0 0 1 1.94-1.94m6.223 0a1.94 1.94 0 0 1 1.94 1.941 1.94 1.94 0 0 1-1.94 1.94 1.94 1.94 0 0 1-1.94-1.94 1.94 1.94 0 0 1 1.94-1.94" style="display:inline;fill:#f1f1f1;fill-opacity:1;stroke:none;stroke-width:1.5875;stroke-linecap:round;stroke-linejoin:round;stroke-dasharray:none;stroke-opacity:1" transform="translate(0 13.23)"/></g><path d="M-355.534-19.412v6.386c0 .261 1.42 6.906 16.714 6.906h.02c15.161 0 16.703-6.59 16.703-6.906v-6.38l-.003.004c-.204.306-6.818 4.285-16.717 4.285-9.237 0-16.717-4.295-16.717-4.295m13.676 6.899a1.94 1.94 0 0 1 1.94 1.944 1.94 1.94 0 0 1-1.94 1.94 1.94 1.94 0 0 1-1.94-1.94 1.94 1.94 0 0 1 1.94-1.944m6.223 0a1.94 1.94 0 0 1 1.94 1.944 1.94 1.94 0 0 1-1.94 1.94 1.94 1.94 0 0 1-1.94-1.94 1.94 1.94 0 0 1 1.94-1.944" style="display:inline;fill:#f1f1f1;fill-opacity:1;stroke:none;stroke-width:1.5875;stroke-linecap:round;stroke-linejoin:round;stroke-dasharray:none;stroke-opacity:1" transform="translate(0 26.458)"/></g></svg>