<svg xmlns="http://www.w3.org/2000/svg" xml:space="preserve" width="34" height="34" viewBox="0 0 8.996 8.996"><g transform="translate(-27.932 8.295)scale(.1804)"><circle cx="170.744" cy="-30.364" r="6.579" style="fill:#f1f1f1;fill-opacity:1;stroke:none;stroke-width:.274128;stroke-linecap:round;stroke-linejoin:round;stroke-dasharray:none;stroke-opacity:1"/><circle cx="188.84" cy="-30.409" r="6.579" style="fill:#f1f1f1;fill-opacity:1;stroke:none;stroke-width:.274128;stroke-linecap:round;stroke-linejoin:round;stroke-dasharray:none;stroke-opacity:1"/></g><path d="m186.399-5.887-.001-2.712c0-.591.009-8.085-15.312-8.085-16.01 0-16.007 7.5-16.007 8.052l-.004 2.745z" style="fill:#f1f1f1;fill-opacity:1;stroke:none;stroke-width:.264583;stroke-linecap:round;stroke-linejoin:round;stroke-dasharray:none;stroke-opacity:1" transform="translate(-27.932 8.295)scale(.1804)"/><path d="M204.44-5.887h-15.292v-3.488s.228-1.969-1.476-3.755c-1.897-1.989-4.415-3.568-4.415-3.568h8.205c1.505 0 5.112.179 8.596 2.167s4.383 3.508 4.383 5.177c-.023.841 0 3.467 0 3.467" style="fill:#f1f1f1;fill-opacity:1;stroke:none;stroke-width:.264583;stroke-linecap:round;stroke-linejoin:round;stroke-dasharray:none;stroke-opacity:1" transform="translate(-27.932 8.295)scale(.1804)"/></svg>