<svg xmlns="http://www.w3.org/2000/svg" xml:space="preserve" width="34" height="34" viewBox="0 0 8.996 8.996"><g style="display:inline"><path d="m6.184.522 1.935 1.66H6.422s-.087 0-.163-.076-.075-.16-.075-.16zM2.857.257c-.118.004-.378.036-.57.225-.242.238-.216.663-.216.663v3.791h.264V1.117s0-.313.137-.45c.144-.144.448-.145.448-.145h3.263l1.937 1.66v5.723s0 .22-.177.395c-.18.181-.398.18-.398.18H2.868s-.217 0-.397-.18c-.136-.137-.136-.397-.136-.397v-.079H2.07v.003s-.025.418.215.658c.258.258.634.26.634.26h4.574s.4.002.662-.26c.258-.257.23-.66.23-.66V2.075L6.288.257h-3.37q-.002-.002-.062 0" style="display:inline;fill:#f1f1f1;fill-opacity:1;stroke-width:.264583"/><path d="M7.176 4.936H1.96c-.02 0-1.423.003-1.423 1.428 0 1.46 1.39 1.46 1.422 1.46h5.217Zm-4.518.738h1.09v.24h-.407V7.03H3.06V5.913h-.402Zm1.804 0c.31 0 .452.103.452.103l-.108.24s-.159-.104-.344-.104c-.186 0-.258.053-.258.142 0 .088.07.112.41.192.341.08.359.287.359.368s-.069.416-.568.416c-.37 0-.538-.164-.538-.164l.107-.228s.19.131.432.131c.087 0 .238-.008.238-.131 0-.122-.128-.122-.44-.208-.311-.087-.315-.283-.315-.339 0-.302.233-.417.573-.417" style="display:inline;fill:#f1f1f1;fill-opacity:1;stroke-width:.283359;stroke-linecap:round;stroke-linejoin:round"/></g></svg>