<svg xmlns="http://www.w3.org/2000/svg" xml:space="preserve" width="34" height="34" viewBox="0 0 8.996 8.996"><g style="display:inline"><path d="M.8 1.023c-.154-.005-.247.176-.178.295.257.446 3.742 6.562 3.742 6.562s.041.093.167.093a.19.19 0 0 0 .173-.093l3.671-6.57a.19.19 0 0 0-.044-.23.24.24 0 0 0-.193-.046l-2.105.386-.179.617s-.027.175.125.143.725-.143.725-.143.092-.028.14.026c.05.053-.011.14-.011.14L4.636 6.588s-.055.133-.156.087c0 0-.076-.022-.056-.12l.352-1.684s.023-.076-.022-.12c-.044-.044-.107-.021-.107-.021l-.45.13s-.166.04-.13-.129l.22-1.071s.016-.06-.023-.093c-.038-.034-.064-.04-.121-.026s-.708.165-.708.165-.15.038-.143-.108c.004-.097.076-1.314.123-2.103z" style="display:inline;fill:#f1f1f1;fill-opacity:1;stroke:none;stroke-width:.793748;stroke-linecap:round;stroke-linejoin:round;stroke-opacity:1;paint-order:stroke fill markers"/></g></svg>