<svg xmlns="http://www.w3.org/2000/svg" xml:space="preserve" width="34" height="34" viewBox="0 0 8.996 8.996"><g style="display:inline"><path d="m6.03 8.19.135.113s.06.055.169.055c.055 0 .118-.035.118-.035l1.716-.847a.37.37 0 0 0 .228-.362V1.81s.025-.208-.194-.313L6.56.707S6.433.637 6.334.637c-.1 0-.226.062-.278.108.03-.017.068-.04.144-.04.082 0 .155.06.163.068.009.007.1.078.1.208L6.46 8.003s.019.175-.152.22-.25-.01-.277-.034M1.625 6.4c-.05.038-.106.09-.204.09s-.176-.086-.176-.086L.7 5.915S.627 5.854.627 5.75c0-.09.08-.15.08-.15L6.038.76s.05-.054.162-.054c.1 0 .264.103.264.276l-.001 1.753zm-.96-3.087C.626 3.279.54 3.18.662 3.067c.13-.12.604-.54.604-.54s.068-.075.17-.067a.3.3 0 0 1 .14.066L6.46 6.224v1.78c-.001.078-.02.184-.153.22-.198.053-.277-.035-.277-.035z" style="fill:#f1f1f1;fill-opacity:1;stroke:none;stroke-width:.793749;stroke-linecap:round;stroke-linejoin:round;stroke-opacity:1;paint-order:stroke fill markers"/></g></svg>