<svg xmlns="http://www.w3.org/2000/svg" xml:space="preserve" width="34" height="34" viewBox="0 0 8.996 8.996"><path d="M-79.653-30.776a17.54 17.54 0 0 0-17.54 17.54 17.54 17.54 0 0 0 17.54 17.54 17.54 17.54 0 0 0 17.54-17.54 17.54 17.54 0 0 0-17.54-17.54m0 1.169a16.37 16.37 0 0 1 16.37 16.37 16.37 16.37 0 0 1-16.37 16.37 16.37 16.37 0 0 1-16.37-16.37 16.37 16.37 0 0 1 16.37-16.37" style="display:inline;fill:#f1f1f1;fill-opacity:1;fill-rule:nonzero;stroke:none;stroke-width:.80339;stroke-linecap:square;stroke-linejoin:miter;stroke-dasharray:none;stroke-opacity:1;paint-order:normal" transform="translate(21.973 7.404)scale(.21939)"/><path d="M-79.653-27.83a14.6 14.6 0 0 0-12.195 6.579c.021 0 .481.026 1.046.026.58 0 3.184-.107 3.936-.173.306-.025.562.297.562.57s-.124.58-.562.662-1.377.132-1.666.132c.1.34 5.28 15.742 5.28 15.742l3.202-9.547-2.251-6.223-1.351-.097s-.784-.006-.784-.614c0-.427.28-.678.784-.63.503.046 1.964.18 3.94.18 1.357 0 3.611-.167 3.611-.167s.604-.132.72.562-.753.695-.753.695-1.281.083-1.513.083c.132.38 5.273 15.613 5.273 15.613l2.333-7.548s.24-.93.24-1.873c0-.942-.077-2.289-1.223-4.171-1.145-1.883-1.45-2.457-1.45-3.381s.713-2.555 2.711-2.556a14.6 14.6 0 0 0-9.89-3.863m11.647 5.834c.425.575.833 1.176 1.135 1.727a15 15 0 0 0-1.135-1.727m1.18 1.8c.05.346.093.656.093 1.708 0 1.059-.326 3.076-1.52 6.023-.993 2.957-3.989 11.632-4.061 11.842a14.59 14.59 0 0 0 7.254-12.613 14.6 14.6 0 0 0-1.766-6.96m-26.127.954a14.6 14.6 0 0 0-1.293 6.006A14.59 14.59 0 0 0-85.994-.094c-.164-.485-6.84-18.822-6.959-19.148m13.554 7.245L-83.759.767a14.6 14.6 0 0 0 4.106.59 14.6 14.6 0 0 0 4.821-.82c-.24-.67-4.567-12.534-4.567-12.534m6.35 11.767c-.304.154-.643.325-1.121.517a15 15 0 0 0 1.12-.517" style="display:inline;fill:#f1f1f1;fill-opacity:1;fill-rule:nonzero;stroke:none;stroke-width:.66842;stroke-linecap:square;stroke-linejoin:miter;stroke-dasharray:none;stroke-opacity:1;paint-order:normal" transform="translate(21.973 7.404)scale(.21939)"/></svg>