<svg xmlns="http://www.w3.org/2000/svg" xml:space="preserve" width="34" height="34" viewBox="0 0 8.996 8.996"><g style="display:inline"><path d="M3.07 8.613c-.037-.002-.854-.056-.868-.89V1.196S2.145.39 3.004.39L6.241.388l2.014 1.749v5.65s.045.826-.818.826z" style="display:inline;fill:none;fill-opacity:1;stroke:#f1f1f1;stroke-width:.263153;stroke-dasharray:none;stroke-opacity:1"/><path d="m8.048 2.07-1.4.001s-.366.015-.366-.486V.535z" style="display:inline;fill:none;fill-opacity:1;stroke:#f1f1f1;stroke-width:.253724;stroke-linecap:round;stroke-dasharray:none;stroke-opacity:1"/><path d="M7.176 7.825H1.96c-.032 0-1.422 0-1.422-1.46 0-1.426 1.403-1.428 1.423-1.428h5.216z" style="display:inline;fill:#f1f1f1;stroke-width:.283359;stroke-linecap:round;stroke-linejoin:round"/><path d="M1.685 5.674h.307l.305.436.283-.436h.307l-.445.643.445.714H2.58l-.284-.498-.304.498h-.307l.428-.714Z" style="display:inline;fill:#1f1f1f;fill-opacity:1;fill-rule:nonzero;stroke:none;stroke-width:.155016;stroke-linecap:round;stroke-linejoin:round;stroke-dasharray:none;stroke-opacity:1;paint-order:normal"/><path d="M3.612 7.03c-.37 0-.539-.163-.539-.163l.108-.228s.189.131.432.131c.087 0 .237-.008.237-.13s-.128-.123-.44-.21c-.31-.086-.315-.282-.315-.338 0-.302.233-.417.573-.417.31 0 .453.102.453.102l-.108.24s-.16-.104-.345-.104-.257.053-.257.142c0 .088.07.112.41.192s.358.287.358.368-.069.415-.567.415" style="display:inline;fill:#1f1f1f;fill-opacity:1;stroke-width:.282733;stroke-linecap:round;stroke-linejoin:round"/><path d="M5.252 7.03v-.222H4.65V5.674h-.285v1.357zM5.653 7.03h.281V5.914h.407v-.239h-1.09v.24h.402z" style="display:inline;fill:#1f1f1f;fill-opacity:1;fill-rule:nonzero;stroke:none;stroke-width:.155016;stroke-linecap:round;stroke-linejoin:round;stroke-dasharray:none;stroke-opacity:1;paint-order:normal"/></g><g style="display:inline"><path d="M3.07 8.613c-.037-.002-.854-.056-.868-.89V1.196S2.145.39 3.004.39L6.241.388l2.014 1.749v5.65s.045.826-.818.826z" style="display:inline;fill:none;fill-opacity:1;stroke:#f1f1f1;stroke-width:.263153;stroke-dasharray:none;stroke-opacity:1"/><path d="m8.048 2.07-1.4.001s-.366.015-.366-.486V.535z" style="display:inline;fill:none;fill-opacity:1;stroke:#f1f1f1;stroke-width:.253724;stroke-linecap:round;stroke-dasharray:none;stroke-opacity:1"/><path d="M7.176 7.825H1.96c-.032 0-1.422 0-1.422-1.46 0-1.426 1.403-1.428 1.423-1.428h5.216z" style="display:inline;fill:#f1f1f1;stroke-width:.283359;stroke-linecap:round;stroke-linejoin:round"/><g style="display:inline"><path d="M2.065 5.674h.307l.305.436.283-.436h.308l-.446.643.446.714H2.96l-.284-.498-.304.498h-.307l.429-.714Z" style="display:inline;fill:#1f1f1f;fill-opacity:1;fill-rule:nonzero;stroke:none;stroke-width:.155016;stroke-linecap:round;stroke-linejoin:round;stroke-dasharray:none;stroke-opacity:1;paint-order:normal"/><path d="M3.402 7.03V5.675h.448l.298.883.301-.883h.448V7.03h-.274V5.945L4.278 7.01h-.26l-.34-1.08v1.1Z" style="fill:#1f1f1f;fill-opacity:1;fill-rule:nonzero;stroke:none;stroke-width:.1016;stroke-linecap:round;stroke-linejoin:round;stroke-dasharray:none;stroke-opacity:1;paint-order:normal"/><path d="M5.974 7.03v-.222H5.37V5.674h-.286v1.357z" style="display:inline;fill:#1f1f1f;fill-opacity:1;fill-rule:nonzero;stroke:none;stroke-width:.155016;stroke-linecap:round;stroke-linejoin:round;stroke-dasharray:none;stroke-opacity:1;paint-order:normal"/></g></g></svg>