<svg xmlns="http://www.w3.org/2000/svg" xml:space="preserve" width="34" height="34" viewBox="0 0 8.996 8.996"><g style="display:inline"><path d="M2.859.258c-.118.004-.378.036-.57.225-.242.238-.216.663-.216.663v3.791h.264V1.118s0-.313.137-.45c.144-.144.448-.145.448-.145h3.263l1.937 1.66v5.723s0 .219-.177.395c-.18.181-.398.18-.398.18H2.87s-.217-.001-.397-.18c-.136-.137-.136-.397-.136-.397v-.079h-.265v.003s-.025.418.215.658c.258.258.634.259.634.259h4.574s.4.003.662-.259c.258-.257.23-.661.23-.661V2.077L6.29.258h-3.37q-.002-.002-.062 0" style="display:inline;fill:#f1f1f1;fill-opacity:1;stroke-width:.264588"/><path d="M1.961 4.937c-.02 0-1.423.002-1.423 1.428 0 1.46 1.39 1.46 1.422 1.46h5.216V4.937zm.104.737h.307l.305.436.283-.436h.308l-.446.643.446.714H2.96l-.284-.498-.304.498h-.307l.429-.714Zm3.019 0h.286v1.134h.604v.222l-.89.001zm-1.682.001h.448l.298.883.3-.883h.449V7.03h-.274V5.945L4.278 7.01h-.26l-.34-1.08v1.1h-.276Z" style="display:inline;fill:#f1f1f1;stroke-width:.283359;stroke-linecap:round;stroke-linejoin:round"/><path d="m6.186.523 1.935 1.66H6.424s-.087 0-.163-.076-.075-.161-.075-.161Z" style="fill:#f1f1f1;fill-opacity:1;stroke-width:.264588"/></g></svg>