<svg xmlns="http://www.w3.org/2000/svg" xml:space="preserve" width="34" height="34" viewBox="0 0 8.996 8.996"><g style="display:inline"><path d="M2.859.258c-.118.004-.378.036-.57.225-.242.238-.216.663-.216.663v3.791h.264V1.118s0-.313.137-.45c.144-.144.448-.145.448-.145h3.263l1.937 1.66v5.723s0 .219-.177.395c-.18.181-.398.18-.398.18H2.87s-.217-.001-.397-.18c-.136-.137-.136-.397-.136-.397v-.079h-.265v.003s-.025.418.215.658c.258.258.634.259.634.259h4.574s.4.003.662-.259c.258-.257.23-.661.23-.661V2.077L6.29.258h-3.37q-.002-.002-.062 0" style="display:inline;fill:#f1f1f1;stroke-width:.264588;fill-opacity:1"/><path d="M1.961 4.937c-.02 0-1.423.002-1.423 1.428 0 1.46 1.39 1.46 1.422 1.46h5.216l.001-2.888zm-.276.737h.307l.305.436.283-.436h.307l-.445.643.445.714H2.58l-.284-.498-.304.498h-.307l.428-.714zm2.68 0h.285v1.134h.602v.222l-.887.001zm-.697.001c.31 0 .453.102.453.102l-.108.24s-.16-.104-.345-.104-.257.053-.257.142c0 .088.07.112.41.192s.358.287.358.368-.069.415-.567.415c-.37 0-.539-.163-.539-.163l.108-.228s.189.131.432.131c.087 0 .237-.008.237-.13s-.128-.123-.44-.21c-.31-.086-.315-.282-.315-.338 0-.302.233-.417.573-.417m1.583 0h1.09v.239h-.407V7.03h-.281V5.915h-.402z" style="display:inline;fill:#f1f1f1;stroke-width:.283359;stroke-linecap:round;stroke-linejoin:round"/><path d="m6.186.523 1.935 1.66H6.424s-.087 0-.163-.076-.075-.161-.075-.161Z" style="fill:#f1f1f1;fill-opacity:1;stroke-width:.264588"/></g></svg>