<svg xmlns="http://www.w3.org/2000/svg" xml:space="preserve" width="34" height="34" viewBox="0 0 8.996 8.996"><g style="display:inline"><path d="M-21.284-15.05c-2.553 0-2.562 2.526-2.562 2.526v5.769s30.484.009 34.372.009c.131 0 .683.098.683.498s-.683.557-.683.557l-27.151 7.712h-.002c-5.418 1.498-7.458 3.997-7.458 8.778 0 8.223 7.968 8.292 7.968 8.292l36.113.002c2.552 0 2.561-2.525 2.561-2.525l.001-5.77-34.372-.008c-.131 0-.684-.098-.684-.499 0-.4.684-.557.684-.557l27.15-7.712h.003c5.418-1.498 7.457-3.997 7.457-8.777 0-8.223-7.967-8.293-7.967-8.293z" style="fill:#f1f1f1;fill-opacity:1;fill-rule:nonzero;stroke:none;stroke-width:.0692305;stroke-linecap:round;stroke-linejoin:round;stroke-dasharray:none;stroke-opacity:1;paint-order:normal" transform="translate(4.606 4.158)scale(.16775)"/></g></svg>