<svg xmlns="http://www.w3.org/2000/svg" xml:space="preserve" width="34" height="34" viewBox="0 0 8.996 8.996"><g style="display:inline" transform="translate(58.838 7.217)scale(.16417)"><rect width="27.601" height="44.02" x="-349.95" y="-40.674" ry="2.067" style="display:inline;fill:none;fill-opacity:1;fill-rule:nonzero;stroke:#f1f1f1;stroke-width:1.06805;stroke-linecap:round;stroke-linejoin:round;stroke-dasharray:none;stroke-opacity:1"/><g style="display:inline"><path d="M-321.418-50.701a27.4 27.69 0 0 0-27.4 27.689 27.4 27.69 0 0 0 27.4 27.689 27.4 27.69 0 0 0 27.399-27.69 27.4 27.69 0 0 0-27.4-27.688m-1.573 2.938c.324-.01.296.424.296.424v10.098l-7.93-.001c-.435 0-.456-.312-.383-.497 2.944-7.916 5.987-9.033 7.732-9.935a.7.7 0 0 1 .285-.09m3.302 0a.7.7 0 0 1 .285.089c1.744.902 4.79 2.019 7.733 9.935.073.185.052.497-.383.497l-7.932.001v-10.098s-.027-.434.297-.424m-9.891 1.196c.46-.007-.107.802-.107.802-3.916 5.84-4.187 8.523-4.187 8.523s-6.455-.012-7.22 0c-.58.006-.141-.579-.135-.59 4.513-6.198 9.888-8 11.145-8.578.236-.109.397-.155.504-.157m16.5 0c.106.002.267.048.503.157 1.257.579 6.632 2.38 11.145 8.578.006.011.445.596-.134.59-.766-.012-7.221 0-7.221 0s-.271-2.682-4.187-8.523c0 0-.568-.81-.107-.802m-9.96 11.869c.38 0 .347.364.347.364v9.801c0 .327-.297.282-.297.282l-10.1.004c-.394-.002-.353-.64-.353-.67 0-4.303 1.112-8.428 1.291-9.17.15-.623.686-.61.686-.61zm-12.195.001s.62-.016.403.666c-.235.743-1.19 4.492-1.157 9.155-.003.15.06.626-.56.629h-9.088s-.546.075-.451-.732c.308-2.52.715-5.786 2.995-9.716 2.561 0 5.297 0 7.858-.002m27.77 0c2.56.001 5.297.003 7.858.002 2.28 3.93 2.686 7.196 2.994 9.717.095.806-.451.73-.451.73h-9.086c-.62-.002-.56-.478-.562-.628.033-4.663-.92-8.412-1.156-9.155-.216-.682.402-.666.402-.666m-12.17.007 8.425.002s.535-.014.686.61c.179.741 1.29 4.868 1.29 9.17 0 .03.043.667-.352.67l-10.1-.005s-.297.045-.297-.281v-9.802s-.033-.364.347-.364m10.053 12.918c.395.002.353.64.353.67 0 4.303-1.112 8.428-1.291 9.17-.15.624-.686.61-.686.61l-8.426.001c-.38 0-.347-.363-.347-.363v-9.802c0-.327.298-.28.298-.28zm-36.1.007c.03 0 .05.002.05.002h9.086c.62.003.558.479.561.628-.033 4.664.922 8.414 1.157 9.157.216.682-.403.664-.403.664-2.561 0-5.297-.002-7.858-.001-2.28-3.93-2.687-7.195-2.995-9.716-.077-.655.27-.73.402-.734m48.645 0c.104-.003.512.03.428.734-.308 2.521-.713 5.786-2.994 9.716-2.56-.001-5.298 0-7.859.001 0 0-.618.018-.402-.664.236-.743 1.189-4.493 1.156-9.157.003-.15-.058-.625.562-.628h9.086zm-36.048.002 10.1.005s.296-.046.296.28v9.802s.033.364-.347.364l-8.426-.002s-.535.014-.686-.61c-.179-.741-1.291-4.867-1.291-9.17 0-.03-.04-.667.354-.67m10.392 12.94V1.275s.04.657-.582.335c-1.744-.902-4.788-2.019-7.731-9.935-.074-.185-.052-.497.383-.497zm2.709 0 7.931.001c.435 0 .457.312.383.497-2.943 7.916-5.988 9.033-7.733 9.935-.622.322-.581-.335-.581-.335zm-21.108.001c.738.002 7.22 0 7.22 0s.273 2.682 4.189 8.523c0 0 .859 1.224-.398.645s-6.632-2.38-11.145-8.578c-.006-.011-.445-.596.134-.59m32.319.003s6.454.012 7.22 0c.58-.006.14.578.135.59-4.514 6.197-9.89 8-11.147 8.578-1.257.579-.396-.645-.396-.645 3.915-5.841 4.188-8.523 4.188-8.523" style="display:inline;fill:#f1f1f1;fill-opacity:1;stroke:none;stroke-width:1.63728;stroke-linecap:round;stroke-linejoin:round;stroke-dasharray:none;stroke-opacity:1" transform="matrix(.37659 0 0 .37658 -214.98 -13.633)"/></g><rect width="26.56" height="1.579" x="-349.439" y="-4.601" ry="0" style="fill:#f1f1f1;fill-opacity:1;fill-rule:nonzero;stroke:none;stroke-width:.973564;stroke-linecap:round;stroke-linejoin:round;stroke-dasharray:none;stroke-opacity:1;paint-order:normal"/><rect width="8.7" height="1.31" x="-340.361" y="-8.922" ry=".479" style="fill:#f1f1f1;fill-opacity:1;fill-rule:nonzero;stroke:none;stroke-width:1.09828;stroke-linecap:round;stroke-linejoin:round;stroke-dasharray:none;stroke-opacity:1;paint-order:normal"/><path d="M-342.702-40.462h-.027 13.371-2.754zm13.344 0c.155.013.235.126.182.266l-1.131 2.94c-.053.137-.219.25-.381.264l-.032.001h-10.593a.472.472 0 0 1-.418-.266l-1.177-2.94c-.055-.139.024-.252.179-.264h-1.396c-.21 0-.32.165-.25.37l1.429 4.081a.59.59 0 0 0 .507.37h12.856l.036-.002a.57.57 0 0 0 .465-.368l1.372-4.082c.07-.204-.044-.37-.253-.37z" style="display:inline;fill:#f1f1f1;stroke-width:.964873;stroke-linecap:round;stroke-linejoin:round"/><g transform="translate(.327)"><path d="M-329.899-7.045c-.022-.044-.053-.084-.066-.132-.028-.098-.016-.198-.066-.297-.018-.036-.052-.063-.066-.1-.008-.02 0-.044 0-.066-.011-.033-.018-.068-.033-.1-.007-.013-.03-.017-.034-.032a2 2 0 0 1 0-.463c.031-.123.253-.26.331-.364.061-.081-.003-.065.1-.132.008-.006.026.009.033 0 .019-.03.01-.072.033-.1.008-.01.177-.15.198-.165.04-.03.097-.031.132-.066.049-.048.097-.13.166-.165.053-.027.114-.037.165-.066.053-.03.082-.099.132-.133.09-.06.21-.066.298-.132.104-.078.216-.13.33-.199.015-.008.136-.122.166-.132.032-.01.076.024.1 0 .007-.008-.009-.025 0-.033.013-.013.275-.095.297-.1.127-.02.268 0 .397 0 .055 0 .176-.017.231 0 .023.008.151.119.166.133.035.035.031.098.066.132.017.018.049.016.066.034.035.034.041.14.066.165.018.017.053.012.066.033.012.018-.01.046 0 .066.005.01.023-.005.033 0a.4.4 0 0 1 .1.1c.004.01-.01.028 0 .032.019.01.044-.005.066 0 .06-.02.061.054.099.067.02.007.046-.01.066 0 .01.005 0 .022 0 .033.01.01.019.026.033.033.02.01.046-.01.066 0 .074.037.234.098.33.066.19-.063-.2-.006.1-.066.032-.007.067.006.1 0 .298-.06-.09-.003.098-.066.021-.007.045.005.066 0a.9.9 0 0 0 .265-.133.8.8 0 0 1 .265-.099c.021-.004.046.01.066 0 .01-.005-.008-.025 0-.033.023-.024.32-.055.33-.066.008-.008-.008-.025 0-.033.021-.021.105.014.133 0 .048-.024.053-.053.066-.066.016-.017.083.016.099 0s-.007-.046 0-.067c.026-.078.074-.155.1-.231.022-.068.081-.096.098-.165.028-.112.007-.114.067-.232.046-.093-.026-.262 0-.364.006-.024.027-.042.033-.066.018-.072-.019-.159 0-.231.006-.024.025-.043.033-.067.01-.03-.01-.069 0-.099.005-.015.03-.018.033-.033.008-.032-.006-.067 0-.099.022-.108.121-.176.165-.265.005-.01-.008-.025 0-.033.016-.015.05.016.066 0 .008-.007-.009-.027 0-.033.024-.015.166-.088.199-.099.078-.026.258 0 .33 0 .224 0 .432-.056.662-.033.09.009.175.051.265.066.136.023.295-.033.43 0 .15.038.308.035.463.066.095.02.202-.019.297 0 .034.007.065.027.1.033.043.009.09-.014.132 0 .015.005.018.03.033.033.04.01.234-.03.264 0 .008.008-.008.026 0 .033.034.034.065-.036.1.034.07.14.172.338.198.496.006.032-.008.067 0 .099.004.015.03.018.033.033.008.032-.008.067 0 .1.004.014.028.017.033.032.01.032 0 .132 0 .166 0 .086-.037.29 0 .363.005.01.028-.01.033 0 .022.043-.012.109.033.199.016.032-.01.1 0 .132-.012.072.056.011.067.033.01.02-.007.045 0 .066.027.084.158.106.198.166.012.018-.016.05 0 .066.016.015.048-.012.066 0 .02.014.016.049.033.066.008.008.022 0 .033 0 .022.011.049.016.066.033.008.008-.01.028 0 .033.02.01.047-.01.066 0 .01.005 0 .022 0 .033.012.011.019.028.034.033.252.084-.17-.134.132.066.027.019.07-.014.1 0 .01.005-.01.029 0 .034.067.034.19.014.264.033.015.003.018.028.033.033.063.02.172.003.231.033.104.051.3.11.43.066.015-.005.018-.028.033-.033.077-.026.122.018.199-.033.054-.036.127-.076.165-.133.03-.046.165-.253.199-.264.02-.007.045.007.066 0 .04-.013.06-.086.099-.1.05-.016.116.017.165 0 .077-.025.169-.045.232-.066.03-.01.036-.058.066-.066.032-.008.066.005.1 0 .459-.065-.074.002.198-.066.032-.008.067.01.099 0a.96.96 0 0 1 .562 0c.02.007.046-.01.066 0 .074.037.152.092.232.132.04.02.091.013.132.034.197.098.248.321.364.496.017.026.05.04.066.066.067.111 0 .076.066.165.14.186-.007-.114.165.232.016.03.013.071.033.099.015.02.053.012.067.033.012.018-.01.046 0 .066.01.022.048.016.066.033l.033.033c.01.022.015.049.033.066.035.035.097.032.132.067.008.007 0 .022 0 .033q.031.034.066.066c.043.034.108.05.133.099.005.01-.008.025 0 .033.04.04.073.016.099.066.037.074.07.177.099.265.016.05.02.633 0 .694.016.059-.051.063-.066.1-.017.042-.016.09-.033.132-.012.029-.057.036-.066.066-.007.02.005.045 0 .066-.056.223 0 0-.066.066-.035.035-.032.098-.067.133-.07.07-.068.034-.132.066-.01.005 0 .022 0 .033-.022.01-.043.025-.066.033-.02.007-.05-.016-.066 0-.068.068.105-.003-.033.066-.02.01-.084-.015-.1 0-.024.025.023.066.034.1.02.06 0 .165 0 .23 0 .083-.054.674-.033.695.008.008.025-.008.033 0 .017.017.015.178.033.232.036.109.114.195.165.297.015.03-.015.07 0 .1.018.035.049.063.066.099.07.138-.003-.035.066.033.015.014.052.11.067.132.05.076.018-.014.099.066.008.008-.008.026 0 .033.024.025.074.009.099.034.017.017.011.055.033.066.03.014.067-.007.1 0 .047.01.117.056.165.066.045.009.124-.02.165 0 .014.007.018.03.033.033.122.03.278-.04.397 0 .095.031.174.043.265.066.06-.02.061.054.099.066.02.007.046-.01.066 0 .01.005-.01.028 0 .033.04.02.143.025.198.066.044.033.094.06.133.1.008.007-.01.028 0 .033.104.052.03-.069.132.033a.55.55 0 0 1 .132.297c0 .215.027.476-.066.662-.025.05 0 .984 0 1.124 0 .147.036.954 0 1.026-.128.256-.096.18-.397.33-.093.047-.174.12-.264.166-.05.024-.184-.008-.232 0-.128.021-.216.086-.33.132-.043.017-.095.008-.133.033-.026.017-.04.049-.066.066-.047.031-.193-.039-.232 0-.008.008.008.025 0 .033-.022.023-.2.001-.264.033-.138.07.035-.002-.033.067-.008.007-.024-.007-.033 0a.5.5 0 0 0-.166.165c-.01.02.01.046 0 .066-.012.025-.055.121-.066.132-.055.055-.065.032-.099.1-.015.03.01.067 0 .099-.013.04-.087.15-.1.198-.007.032.016.07 0 .1-.01.021-.054.01-.065.032-.1.198-.068.49-.033.695.02.127.138.336.231.43.008.008.028-.01.033 0 .01.02-.007.045 0 .066.013.038.08.046.1.066.013.014.055.111.066.133.062.125.093.439.132.595.01.043-.014.09 0 .132.005.015.028.018.033.033.022.066.013.45-.033.496-.028.028-.071.038-.1.066-.08.08.01.049-.066.1-.357.238-1.007.116-1.355 0-.24-.08-.448-.203-.695-.265-.94-.235-1.893-.445-2.811-.76-.169-.058-.33-.136-.496-.199-.534-.202-1.146-.333-1.62-.661-.19-.131-.227-.207-.398-.364-.263-.242-.541-.475-.794-.728-.06-.06-.104-.137-.165-.198-.083-.083-.185-.146-.264-.232-.065-.07-.105-.159-.166-.231-.215-.255-.466-.485-.694-.728-.24-.255-.49-.504-.728-.76-.058-.064-.104-.138-.165-.2-.072-.07-.16-.126-.232-.198-.083-.082-.15-.18-.231-.264-.41-.428-.427-.396-.728-.76-.214-.26-.41-.54-.628-.795-.4-.466-.01.065-.364-.396-.157-.205-.299-.431-.463-.629-.2-.239-.426-.458-.629-.694-.098-.115-.233-.181-.33-.298-.089-.106-.167-.233-.265-.33-.35-.35.096.18-.264-.232-.098-.112-.145-.248-.232-.364a3 3 0 0 0-.132-.165c-.008-.008-.025.007-.033 0-.13-.13.008-.018-.033-.1-.086-.17-.26-.31-.397-.43zm15.842 10.617c-.03.164-.07.353-.165.496-.051.076-.02-.014-.1.066-.066.067-.048.077-.132.132q-.018.016-.033.033c-.011.023-.012.053-.033.067-.018.012-.045-.007-.066 0-.047.015-.047.08-.066.099-.008.008-.024-.005-.033 0-.007.003-.16.127-.166.132-.008.008.008.025 0 .033-.019.019-.173.087-.198.1-.047.023-.094.103-.133.132-.062.046-.327.177-.363.231-.022.032-.006.106-.033.133-.008.007-.026-.008-.034 0-.02.02-.027.073-.066.099-.02.013-.051.013-.066.033-.02.028-.012.071-.033.099-.015.02-.045.02-.066.033-.05.034-.049.099-.1.132-.062.042-.108.052-.131.1-.07.137.003-.036-.067.033-.017.017-.015.048-.033.066-.008.008-.023-.006-.033 0-.084.056-.176.173-.297.132-.199-.066.083.009-.133-.1-.02-.009-.045.008-.066 0-.052-.017-.068-.1-.099-.131-.017-.018-.046-.019-.066-.033-.07-.052-.079-.112-.1-.133-.017-.017-.048-.015-.065-.033-.069-.068.104.003-.033-.066-.06-.03-.105-.102-.166-.132-.01-.005-.022 0-.033 0q-.034-.015-.066-.033l-.033-.033c0-.011.008-.026 0-.033-.13-.13-.018.007-.1-.034-.027-.013-.038-.052-.065-.066-.079-.039-.205-.113-.298-.132-.033-.006-.067.008-.1 0-.014-.004-.018-.026-.032-.033-.027-.013-.073.013-.1 0l-.132-.066c-.034-.017-.377-.01-.43 0-.118.023-.211.115-.33.132-.044.006-.09-.006-.133 0l-.1.033c-.01.011-.017.028-.032.033-.032.01-.076-.023-.1 0-.007.008.01.028 0 .033-.019.01-.045-.007-.065 0s-.08.06-.1.066c-.01.004-.022 0-.033 0q-.05.015-.099.034a.8.8 0 0 0-.165.099c-.008.008.008.025 0 .033-.025.025-.148.081-.166.099-.031.032-.117.403-.132.463a6 6 0 0 0-.066.298c-.066.33.071.713-.033 1.025-.026.076-.172.159-.232.198-.079.053-.143.164-.231.199-.041.016-.093-.02-.133 0l-.132.066c-.053.027-.359 0-.43 0-.136 0-.86.032-.926 0-.014-.007-.018-.03-.033-.033-.096-.024-.231 0-.33 0-.154 0-.287.003-.43-.033-.135-.034-.293.001-.43-.033-.116-.03-.45-.335-.497-.43-.01-.02.007-.045 0-.066-.034-.104-.172-.26-.198-.364-.038-.151.067.034-.033-.165-.026-.053-.04-.015-.066-.067-.018-.035.017-.097 0-.132-.033-.065-.008-.057-.033-.132-.005-.015-.029-.019-.033-.033-.028-.084.039-.22 0-.298-.033-.065-.008-.057-.034-.132-.005-.015-.028-.019-.033-.033-.02-.03.01-.068 0-.1-.08-.24.01.053-.066-.099-.017-.035.018-.03 0-.066-.035-.07-.108-.12-.165-.165-.297-.238.117.083-.1-.133-.049-.049-.294-.115-.363-.132-.096-.024-.202-.009-.298-.033-.136-.034-.264-.088-.397-.132-.122-.041-.302 0-.43 0-.003 0-.258-.02-.297 0-.076.038-.238.106-.298.165-.017.018-.016.049-.033.066s-.051.014-.066.033c-.021.028-.012.072-.033.1-.015.02-.049.015-.066.033-.055.054-.02.158-.1.198-.024.012-.074.058-.099.066-.08.027-.154.028-.231.066-.036.018-.097-.017-.133 0-.014.007-.018.029-.033.033-.066.023-.163-.013-.231 0-.024.005-.042.029-.066.034-.143.028-.247-.041-.364-.1-.127-.063-.274-.092-.397-.165-.125-.075-.23-.197-.364-.265-.03-.015-.071-.012-.099-.033-.02-.014-.015-.048-.033-.066-.017-.017-.049-.015-.066-.033-.061-.06-.114-.13-.165-.198-.1-.133.062.006-.067-.166-.014-.02-.052-.012-.066-.033-.012-.018.01-.046 0-.066-.028-.056-.095-.082-.132-.132-.033-.045-.047-.118-.066-.166-.034-.083-.089-.126-.132-.198-.018-.03-.015-.07-.033-.1-.06-.099-.162-.17-.232-.264-.015-.02-.016-.049-.033-.066-.028-.028-.071-.038-.1-.066-.005-.006-.026-.093-.032-.1-.008-.007-.029.01-.033 0-.01-.02 0-.043 0-.065 0-.219-.007-.124.132-.298.015-.02.015-.049.033-.066.017-.018.049-.016.066-.033.077-.077.139-.209.198-.298.036-.053.092-.059.133-.1.035-.034.031-.097.066-.132.045-.045.164-.08.198-.132.013-.018-.007-.045 0-.066.028-.083.217-.202.265-.298.01-.02-.01-.046 0-.066.09-.181.073-.394.033-.595-.013-.063-.082-.113-.1-.165-.006-.021.008-.046 0-.067-.004-.014-.027-.018-.032-.033-.036-.088-.045-.178-.066-.264-.026-.102-.088-.21-.133-.298-.01-.02.016-.05 0-.066-.017-.017-.052-.013-.066-.033-.047-.071.05-.058-.033-.1-.01-.004-.028.01-.033 0-.01-.02.012-.047 0-.065-.047-.071-.282-.144-.364-.199-.026-.017-.036-.059-.066-.066-.032-.008-.07.015-.1 0-.021-.011-.012-.053-.032-.066-.019-.012-.045.005-.066 0-.111-.028-.219-.104-.331-.133-.08-.02-.274.012-.364-.033-.058-.029-.32-.154-.33-.165-.035-.035-.04-.091-.067-.132-.119-.179-.01.023-.132-.1-.008-.007.008-.025 0-.033-.008-.007-.025.008-.033 0-.028-.027-.014-.103-.033-.132-.026-.039-.078-.057-.1-.099-.06-.12-.077-.236-.099-.364-.048-.29-.012.05-.066-.165a1.6 1.6 0 0 1 0-.43c.005-.015.028-.018.033-.033.014-.042-.009-.09 0-.133l.034-.099c.01-.01.028-.018.033-.033.02-.06.008-.124.033-.198.02-.06 0-.168 0-.232 0-.106-.035-.293 0-.397.005-.014.028-.018.033-.033.022-.065-.03-.17 0-.231.028-.057.037-.109.066-.166.044-.087-.03-.232.1-.297.22-.11.48-.105.727-.133a.8.8 0 0 0 .33-.099c.057-.028.173.015.232 0 .015-.004.019-.026.033-.033.01-.005.022 0 .033 0 .033-.01.07-.015.1-.033.026-.016.037-.054.066-.066s.066.006.099 0c.091-.018.151-.128.165-.132.021-.007.047.01.066 0a.34.34 0 0 0 .133-.133c.018-.03.017-.068.033-.099.048-.097.152-.171.198-.264.01-.02-.007-.046 0-.067.01-.028.06-.07.066-.099.068-.338-.08.076.033-.264.024-.07.035-.169.066-.232.007-.014.029-.018.034-.033.014-.042-.014-.09 0-.132.005-.015.028-.019.033-.033.017-.053-.014-.112 0-.166.004-.015.026-.019.033-.033a.6.6 0 0 0 0-.198 3 3 0 0 0-.1-.33c-.027-.069-.076-.13-.099-.2a1.2 1.2 0 0 0-.099-.23c-.02-.031-.119-.093-.132-.133-.007-.021.007-.045 0-.066-.013-.038-.08-.046-.1-.066-.034-.035-.03-.098-.065-.133-.008-.008-.026.008-.034 0-.028-.028-.044-.066-.066-.099-.056-.084-.085-.316-.132-.364-.008-.008-.025.008-.033 0-.022-.022.022-.044 0-.066-.008-.008-.025.008-.033 0-.016-.016.015-.05 0-.066-.008-.008-.025.008-.033 0-.013-.013 0-.154 0-.165" style="display:inline;fill:#f1f1f1;fill-opacity:1;fill-rule:nonzero;stroke:none;stroke-width:1.05833;stroke-linecap:round;stroke-linejoin:round;stroke-dasharray:none;stroke-opacity:1;paint-order:normal"/><circle cx="-321.781" cy="-2.152" r="4.643" style="display:inline;fill:none;fill-opacity:1;fill-rule:nonzero;stroke:#f1f1f1;stroke-width:.917558;stroke-linecap:round;stroke-linejoin:round;stroke-dasharray:none;stroke-opacity:1;paint-order:normal" transform="translate(-.327)"/><circle cx="-321.781" cy="-2.152" r="4.643" style="display:inline;fill:#1f1f1f;fill-opacity:1;fill-rule:nonzero;stroke:none;stroke-width:.917558;stroke-linecap:round;stroke-linejoin:round;stroke-dasharray:none;stroke-opacity:1;paint-order:normal" transform="translate(-.327)"/><path d="M-322.097 8.358h1.513s.868-.04.868-1.123v-.827s-.008-.29.256-.414c.265-.124 1.022-.408 1.022-.408s.27-.148.538.14c.169.18.574.616.702.743.056.057.48.437 1.26 0 .326-.183 1.199-1.03 1.199-1.03l-.761-.771s-.56.563-.79.691c-.229.129-.376.123-.603 0-.227-.124-.896-.79-.896-.79-.146-.138-.305-.328-.826-.119-.382.154-1.099.455-1.621.682-.39.17-.347.564-.347.564l-.001 1.026s.051.516-.52.512h-.993z" style="fill:#f1f1f1;fill-opacity:1;fill-rule:nonzero;stroke:none;stroke-width:1.05833;stroke-linecap:round;stroke-linejoin:round;stroke-dasharray:none;stroke-opacity:1;paint-order:normal" transform="translate(0 -.212)"/><path d="M-322.097 8.358h-1.513s-.868-.04-.868-1.123v-.827s.008-.29-.257-.414c-.264-.124-1.02-.408-1.02-.408s-.27-.148-.54.14c-.168.18-.573.616-.7.743-.058.057-.481.437-1.262 0-.325-.183-1.2-1.03-1.2-1.03l.767-.765s.556.557.785.685c.23.129.377.123.604 0 .227-.124.896-.79.896-.79.146-.138.305-.328.826-.119.382.154 1.098.455 1.621.682.39.17.347.564.347.564v1.026s-.05.516.522.512h.992z" style="fill:#f1f1f1;fill-opacity:1;fill-rule:nonzero;stroke:none;stroke-width:1.05833;stroke-linecap:round;stroke-linejoin:round;stroke-dasharray:none;stroke-opacity:1;paint-order:normal" transform="translate(0 -.212)"/><path d="M-322.098-12.61h-1.513s-.868.041-.868 1.124v.827s.008.29-.257.414c-.264.124-1.02.408-1.02.408s-.27.148-.54-.14c-.168-.18-.573-.616-.7-.743-.058-.057-.481-.437-1.262 0-.325.183-1.2 1.028-1.2 1.028l.77.767s.553-.557.782-.685c.23-.129.377-.123.604 0 .227.124.896.79.896.79.146.138.305.328.826.119a79 79 0 0 0 1.621-.682c.39-.17.347-.564.347-.564v-1.026s-.05-.516.522-.512h.992zM-322.098-12.61h1.513s.868.041.868 1.124v.827s-.008.29.257.414c.264.124 1.02.408 1.02.408s.27.148.54-.14c.168-.18.573-.616.7-.743.058-.057.481-.437 1.262 0 .325.183 1.199 1.029 1.199 1.029l-.77.766s-.552-.557-.781-.685c-.23-.129-.377-.123-.604 0-.227.124-.896.79-.896.79-.146.138-.305.328-.826.119a79 79 0 0 1-1.621-.682c-.39-.17-.347-.564-.347-.564v-1.026s.05-.516-.522-.512h-.992z" style="fill:#f1f1f1;fill-opacity:1;fill-rule:nonzero;stroke:none;stroke-width:1.05833;stroke-linecap:round;stroke-linejoin:round;stroke-dasharray:none;stroke-opacity:1;paint-order:normal" transform="translate(0 .212)"/><path d="M-311.581-2.13v-1.513s-.04-.868-1.124-.868h-.826s-.29.008-.414-.257a23 23 0 0 1-.409-1.02s-.147-.27.14-.54c.182-.168.617-.574.744-.701.057-.057.437-.48 0-1.261-.183-.326-1.032-1.19-1.032-1.19l-.769.765s.562.547.691.777.123.377 0 .604c-.125.227-.791.896-.791.896-.137.146-.327.305-.118.826.154.382.455 1.098.682 1.62.17.39.564.348.564.348h1.026s.516-.05.511.522v.992z" style="fill:#f1f1f1;fill-opacity:1;fill-rule:nonzero;stroke:none;stroke-width:1.05833;stroke-linecap:round;stroke-linejoin:round;stroke-dasharray:none;stroke-opacity:1;paint-order:normal" transform="translate(-.238)"/><path d="M-311.581-2.13v1.513s-.04.868-1.124.868h-.826s-.29-.008-.414.256c-.124.265-.409 1.021-.409 1.021s-.147.27.14.539c.182.168.617.574.744.701.057.057.437.481 0 1.262-.183.325-1.032 1.198-1.032 1.198l-.764-.769s.557-.552.686-.781c.129-.23.123-.377 0-.604-.125-.228-.791-.896-.791-.896-.137-.147-.327-.305-.118-.826.154-.382.455-1.099.682-1.621.17-.39.564-.347.564-.347l1.026-.001s.516.051.511-.521v-.992z" style="fill:#f1f1f1;fill-opacity:1;fill-rule:nonzero;stroke:none;stroke-width:1.05833;stroke-linecap:round;stroke-linejoin:round;stroke-dasharray:none;stroke-opacity:1;paint-order:normal" transform="translate(-.238)"/><path d="M-332.59-2.13v-1.513s.04-.868 1.124-.868h.826s.29.008.414-.257c.124-.264.409-1.02.409-1.02s.147-.27-.14-.54a51 51 0 0 1-.744-.701c-.057-.057-.437-.48 0-1.261.183-.326 1.034-1.193 1.034-1.193l.769.77s-.564.545-.693.775-.123.377.001.604.79.896.79.896c.137.146.328.305.118.826a79 79 0 0 1-.682 1.62c-.17.39-.564.348-.564.348h-1.026s-.516-.05-.511.522v.992z" style="fill:#f1f1f1;fill-opacity:1;fill-rule:nonzero;stroke:none;stroke-width:1.05833;stroke-linecap:round;stroke-linejoin:round;stroke-dasharray:none;stroke-opacity:1;paint-order:normal" transform="translate(.212)"/><path d="M-332.59-2.13v1.513s.04.868 1.124.868h.826s.29-.008.414.256c.124.265.409 1.021.409 1.021s.147.27-.14.539c-.182.168-.617.574-.744.701-.057.057-.437.481 0 1.262.183.325 1.037 1.202 1.037 1.202l.765-.77s-.563-.555-.692-.784c-.129-.23-.123-.377.001-.604.124-.228.79-.896.79-.896.137-.147.328-.305.118-.826a79 79 0 0 0-.682-1.621c-.17-.39-.564-.347-.564-.347l-1.026-.001s-.516.051-.511-.521v-.992z" style="fill:#f1f1f1;fill-opacity:1;fill-rule:nonzero;stroke:none;stroke-width:1.05833;stroke-linecap:round;stroke-linejoin:round;stroke-dasharray:none;stroke-opacity:1;paint-order:normal" transform="translate(.212)"/></g></g></svg>