<svg xmlns="http://www.w3.org/2000/svg" xml:space="preserve" width="34" height="34" viewBox="0 0 8.996 8.996"><g style="display:inline"><g style="stroke:#f1f1f1;stroke-opacity:1"><path d="M177.932 11.245 174.56 5.49l1.786-6.416M161.972 6.595v-9.588l4.818-2.9M147.66-15.435l5.989 3.458 6.265-2.008M144.947-27.455 152.3-31.7l4.06 2.608M164.919-47.333l-4.169 7.22 2.251 3.958M176.752-44.667l3.417 5.918-1.5 5.821M198.969-30.262h-9.87l-2.453 4.251M203.552-14.078l-6.112-3.53-5.915 1.585" style="fill:none;fill-opacity:1;stroke:#f1f1f1;stroke-width:2.64583;stroke-linecap:round;stroke-dasharray:none;stroke-opacity:1" transform="translate(-19.636 7)scale(.1385)"/></g><path d="M166.534-37.072c-2.374-.034-5.161.776-8.082 3.384h-.004l-.003-.004-.03.038-.004.004c-6.908 7.828-1.039 14.649-.507 15.174-1.347 1.562-.049 3.141-.049 3.141l2.605 3.724s4.093 4.935 7.417 7.76c11.26 8.377 20.928 1.258 21.42.885l.004.004.015-.02c.092-.12 7.604-9.969-1.008-21.408-2.844-3.307-7.805-7.376-7.805-7.376l-3.735-2.578s-1.59-1.293-3.145.063c-.33-.33-3.133-2.733-7.09-2.79m9.115 6.962c.165.003.38.08.649.302.818.679 15.872 9.55 11.01 21.786L170.31-24.886l4.865-4.922s.118-.265.407-.298a1 1 0 0 1 .067-.004m-8.268 8.149 16.868 16.999c-12.237 4.861-21.108-10.192-21.786-11.01-.678-.82 0-1.124 0-1.124z" style="display:inline;fill:#f1f1f1;fill-opacity:1;stroke:none;stroke-opacity:1;stroke-width:.79375;stroke-linecap:round;stroke-dasharray:none" transform="translate(-19.636 7)scale(.1385)"/></g></svg>