<svg xmlns="http://www.w3.org/2000/svg" xml:space="preserve" width="34" height="34" viewBox="0 0 8.996 8.996"><g style="display:inline"><g style="stroke:#f1f1f1;stroke-opacity:1"><path d="M177.932 11.245 174.56 5.49l1.786-6.416M161.972 6.595v-9.588l4.818-2.9M147.66-15.435l5.989 3.458 6.265-2.008M144.947-27.455 152.3-31.7l4.06 2.608M164.919-47.333l-4.169 7.22 2.251 3.958M176.752-44.667l3.417 5.918-1.5 5.821M198.969-30.262h-9.87l-2.453 4.251M203.552-14.078l-6.112-3.53-5.915 1.585" style="fill:none;fill-opacity:1;stroke:#f1f1f1;stroke-width:2.64583;stroke-linecap:round;stroke-dasharray:none;stroke-opacity:1" transform="translate(-19.636 7)scale(.1385)"/></g><g style="fill:#f1f1f1;fill-opacity:1;stroke:none;stroke-opacity:1"><path d="M189.301-2.96s7.673-9.922-.992-21.431c-2.844-3.308-7.805-7.376-7.805-7.376l-3.738-2.58s-1.587-1.29-3.141.067c-.53-.53-7.409-6.383-15.214.628 14.288 14.189 30.89 30.692 30.89 30.692" style="fill:#f1f1f1;fill-opacity:1;stroke:none;stroke-width:.79375;stroke-linecap:round;stroke-dasharray:none;stroke-opacity:1" transform="translate(-19.636 7)scale(.1385)"/><path d="M189.315-2.98s-9.877 7.73-21.437-.87c-3.323-2.824-7.42-7.762-7.42-7.762l-2.601-3.722s-1.3-1.58.048-3.142c-.533-.526-6.426-7.371.54-15.217 14.27 14.205 30.87 30.712 30.87 30.712" style="fill:#f1f1f1;fill-opacity:1;stroke:none;stroke-width:.79375;stroke-linecap:round;stroke-dasharray:none;stroke-opacity:1" transform="translate(-19.636 7)scale(.1385)"/></g><g style="fill:#121212;fill-opacity:1"><path d="m184.25-4.96-16.868-17-4.919 4.865s-.678.304 0 1.122S172.013-.099 184.25-4.96M187.308-8.02l-17-16.867 4.866-4.92s.304-.677 1.123 0c.818.68 15.873 9.55 11.011 21.787" style="fill:#121212;fill-opacity:1;stroke:none;stroke-width:2.64583;stroke-linecap:round;stroke-dasharray:none;stroke-opacity:1" transform="translate(-19.636 7)scale(.1385)"/></g></g></svg>