<svg xmlns="http://www.w3.org/2000/svg" xml:space="preserve" width="34" height="34" viewBox="0 0 8.996 8.996"><g style="display:inline"><path d="M-350.64-8.033s-.062.212-.317.212c-.256 0-.312-.212-.312-.212l-1.052-2.95-3.132-1.194s-.135-.06-.135-.268c0-.189.137-.238.137-.238l3.118-1.172 1.142-3.102s.047-.144.243-.144c.189 0 .236.144.236.144l1.158 3.106 3.11 1.156s.147.054.147.258c0 .2-.15.247-.15.247l-3.114 1.2zM-324.758-33.993s-.062.212-.317.212-.312-.212-.312-.212l-1.051-2.95-3.133-1.193s-.135-.06-.135-.268c0-.19.137-.239.137-.239l3.119-1.172 1.141-3.102s.047-.144.243-.144c.19 0 .237.144.237.144l1.157 3.107 3.11 1.156s.148.053.148.257c0 .2-.15.247-.15.247l-3.115 1.2z" style="display:inline;fill:#f1f1f1;fill-opacity:1;stroke:none;stroke-width:.0756052;stroke-linecap:round;stroke-linejoin:round;stroke-dasharray:none;stroke-opacity:1" transform="translate(80.187 10.196)scale(.22393)"/><path d="M-336.914-10.021s-.215.744-1.108.744-1.091-.744-1.091-.744l-3.68-10.325-10.962-4.174s-.472-.21-.472-.938c0-.661.48-.835.48-.835l10.913-4.101 3.994-10.856s.165-.505.851-.505c.662 0 .827.505.827.505l4.05 10.871 10.887 4.046s.514.187.514.9c0 .702-.526.866-.526.866l-10.898 4.198z" style="display:inline;fill:#f1f1f1;fill-opacity:1;stroke:none;stroke-width:.264583;stroke-linecap:round;stroke-linejoin:round;stroke-dasharray:none;stroke-opacity:1" transform="translate(80.187 10.196)scale(.22393)"/><path d="M-337.21-14.376s-.155.535-.797.535-.785-.535-.785-.535l-2.645-7.423-7.882-3.001s-.339-.151-.339-.674c0-.476.345-.6.345-.6l7.846-2.949 2.872-7.805s.118-.362.612-.362c.475 0 .594.362.594.362l2.912 7.816 7.827 2.909s.37.134.37.647c0 .505-.379.622-.379.622l-7.834 3.018z" style="display:inline;fill:#121212;fill-opacity:1;stroke:none;stroke-width:.19022;stroke-linecap:round;stroke-linejoin:round;stroke-dasharray:none;stroke-opacity:1" transform="translate(80.187 10.196)scale(.22393)"/></g></svg>