<svg xmlns="http://www.w3.org/2000/svg" xml:space="preserve" width="34" height="34" viewBox="0 0 8.996 8.996"><g style="display:inline"><path d="M2.545 1.148c-.608 0-1.098.49-1.098 1.1v3.975c0 .609.49 1.099 1.098 1.099h3.996c.61 0 1.1-.49 1.1-1.1V2.248c0-.608-.49-1.099-1.1-1.099zm3.402 1.57a.37.322 0 0 1 .37.322.37.322 0 0 1-.37.323.37.322 0 0 1-.37-.323.37.322 0 0 1 .37-.322m-2.21.15h.79l.968 2.59h-.752l-.127-.388h-.967l-.128.387h-.752Zm1.864.55h.7v2.04h-.7Zm-1.469.158-.278.852h.556z" style="display:inline;fill:#f1f1f1;fill-opacity:1;fill-rule:nonzero;stroke:none;stroke-width:.888199;stroke-linecap:round;stroke-linejoin:round;stroke-dasharray:none;stroke-opacity:1;paint-order:normal" transform="matrix(1.22364 0 0 1.22363 -1.062 -.682)"/></g></svg>