<svg xmlns="http://www.w3.org/2000/svg" xml:space="preserve" width="34" height="34" viewBox="0 0 8.996 8.996"><g style="display:inline"><path d="M108.2-389.244c-105.929-.001-193.66 89.913-193.662 200.83h387.32c-.002-110.915-87.73-200.83-193.658-200.83m0 16.42c101.748 0 175.078 88.603 175.08 166.76H-66.697c0-78.365 73.149-166.761 174.897-166.76" style="display:inline;fill:#f1f1f1;fill-opacity:1;fill-rule:nonzero;stroke:none;stroke-width:23.0068;stroke-linecap:round;stroke-linejoin:round;stroke-dasharray:none;stroke-opacity:1;paint-order:normal" transform="translate(2.197 10.354)scale(.02127)"/><path d="m197.223-293.026-85.079 63.357a34 34 0 0 0-3.966-.232c-18.888 0-34.2 15.286-34.2 34.143s15.312 34.142 34.2 34.142 34.2-15.286 34.2-34.142q0-1.753-.177-3.495l64.622-81.965s6.556-6.355 1.568-11.554-10.734-.495-11.168-.254" style="fill:#f1f1f1;fill-opacity:1;fill-rule:nonzero;stroke:none;stroke-width:22.4652;stroke-linecap:round;stroke-linejoin:round;stroke-dasharray:none;stroke-opacity:1;paint-order:normal" transform="translate(2.197 10.354)scale(.02127)"/><path d="M23.529-43.92s-.722-.039-1.083-.045a42 42 0 0 0-1.083.007l.053 2.789s.025.897 1.034.897 1.02-.9 1.02-.9zM40.657-35.855s-.494-.527-.75-.782c-.257-.254-.787-.744-.787-.744l-1.891 2.05s-.604.665.126 1.364c.729.698 1.358.056 1.358.056zM4.152-35.878s.494-.528.75-.782c.257-.255.787-.745.787-.745l1.891 2.05s.604.666-.126 1.364c-.729.7-1.358.057-1.358.057z" style="fill:#f1f1f1;fill-opacity:1;fill-rule:nonzero;stroke:none;stroke-width:3.17447;stroke-linecap:round;stroke-linejoin:round;stroke-dasharray:none;stroke-opacity:1;paint-order:normal" transform="translate(1.155 8.984)scale(.14934)"/></g></svg>