<svg xmlns="http://www.w3.org/2000/svg" xml:space="preserve" width="34" height="34" viewBox="0 0 8.996 8.996"><path d="M-191.512-379.197a275.832 145.453 0 0 0-275.833 145.455A275.832 145.453 0 0 0-191.512-88.29 275.832 145.453 0 0 0 84.322-233.742a275.832 145.453 0 0 0-275.834-145.455m-24.998 43.046h29.436l-7.334 38.865h44.478c5.62 0 31.174 3.667 27.402 27.377s-14.065 77.327-14.065 77.327h-30.581l11.127-57.254c1.784-9.18 4.452-25.255-8.075-25.255h-30.833s-3.43-1.24-4.572 4c-1.143 5.238-15.19 78.577-15.19 78.577h-29.717zm-135.534 38.768h75.248s34.528 1.528 34.147 40.584-31.424 64.326-60.097 64.327h-39.266l-7.409 39.013h-29.503zm247.231 0h75.248s34.528 1.528 34.147 40.584-31.424 64.326-60.097 64.327H-94.78l-7.41 39.013h-29.503zm-219.424 22.25s-8.353 40.186-12.411 60.327c0 0 9.43-.004 31.254-.004s30.556-23.495 30.556-39.526c0-21.555-18.7-20.797-18.7-20.797zm247.23 0s-8.352 40.186-12.41 60.327c0 0 9.43-.004 31.254-.004s30.556-23.495 30.556-39.526c0-21.555-18.7-20.797-18.7-20.797z" style="display:inline;fill:#fff;fill-opacity:1;stroke:#a8a8a8;stroke-width:6.4664;stroke-linecap:round;stroke-linejoin:round;stroke-dasharray:none;stroke-opacity:1;paint-order:normal" transform="translate(7.324 7.947)scale(.01476)"/></svg>