<svg xmlns="http://www.w3.org/2000/svg" xml:space="preserve" width="34" height="34" viewBox="0 0 8.996 8.996"><g style="display:inline"><path d="M2.545 1.148c-.608 0-1.098.49-1.098 1.1v3.975c0 .609.49 1.099 1.098 1.099h3.996c.61 0 1.1-.49 1.1-1.1V2.248c0-.608-.49-1.099-1.1-1.099zm.141 1.572h1.058s.89.041.89.927c0 .958-.892.958-.892.958h-.504l-.001.847h-.55zm.55.513v.884h.424s.409.001.409-.442-.409-.442-.409-.442zm2.513.134c.382 0 .532.102.532.102l-.003.504s-.3-.138-.583-.138c-.035 0-.255-.004-.255.132 0 .135.378.254.584.34.335.141.376.425.376.549 0 .383-.276.654-.847.664a1.6 1.6 0 0 1-.673-.118v-.545s.421.198.674.198c.252 0 .271-.111.27-.151s-.01-.153-.428-.278a.705.705 0 0 1-.516-.66c0-.461.35-.599.869-.599" style="display:inline;fill:#f1f1f1;fill-opacity:1;fill-rule:nonzero;stroke:none;stroke-width:.888199;stroke-linecap:round;stroke-linejoin:round;stroke-dasharray:none;stroke-opacity:1;paint-order:normal" transform="matrix(1.22364 0 0 1.22363 -1.062 -.682)"/></g></svg>