<svg xmlns="http://www.w3.org/2000/svg" xml:space="preserve" width="34" height="34" viewBox="0 0 8.996 8.996"><g transform="translate(11.966 9.8)scale(.14475)"><rect width="2.993" height="16.816" x="-81.294" y="-56.025" rx=".292" ry=".292" style="fill:#f1f1f1;fill-opacity:1;fill-rule:nonzero;stroke:none;stroke-width:1.08637;stroke-linecap:square;stroke-linejoin:miter;stroke-dasharray:none;stroke-opacity:1;paint-order:normal"/><path d="M-72.367-56.024A2.03 2.03 0 0 0-74.4-53.99v12.746a2.03 2.03 0 0 0 2.034 2.035h6.301a2.03 2.03 0 0 0 2.035-2.035v-12.746a2.03 2.03 0 0 0-2.035-2.035zm1.796 3.192h2.705c.484 0 .873.57.873 1.277v8.003c0 .708-.39 1.278-.873 1.278h-2.705c-.484 0-.874-.57-.874-1.278v-8.003c0-.708.39-1.277.874-1.277" style="display:inline;fill:#f1f1f1;fill-opacity:1;fill-rule:nonzero;stroke:none;stroke-width:1.17623;stroke-linecap:square;stroke-linejoin:miter;stroke-dasharray:none;stroke-opacity:1;paint-order:normal"/><rect width="2.993" height="16.816" x="-60.26" y="-56.025" rx=".292" ry=".292" style="fill:#f1f1f1;fill-opacity:1;fill-rule:nonzero;stroke:none;stroke-width:1.08637;stroke-linecap:square;stroke-linejoin:miter;stroke-dasharray:none;stroke-opacity:1;paint-order:normal"/><path d="M-51.332-56.024a2.03 2.03 0 0 0-2.035 2.035v12.746a2.03 2.03 0 0 0 2.035 2.035h6.3a2.03 2.03 0 0 0 2.035-2.035v-12.746a2.03 2.03 0 0 0-2.034-2.035zm1.795 3.192h2.705c.484 0 .874.57.874 1.277v8.003c0 .708-.39 1.278-.874 1.278h-2.705c-.484 0-.873-.57-.873-1.278v-8.003c0-.708.39-1.277.873-1.277" style="display:inline;fill:#f1f1f1;fill-opacity:1;fill-rule:nonzero;stroke:none;stroke-width:1.17623;stroke-linecap:square;stroke-linejoin:miter;stroke-dasharray:none;stroke-opacity:1;paint-order:normal"/><rect width="2.993" height="16.816" x="-39.16" y="-56.025" rx=".292" ry=".292" style="fill:#f1f1f1;fill-opacity:1;fill-rule:nonzero;stroke:none;stroke-width:1.08637;stroke-linecap:square;stroke-linejoin:miter;stroke-dasharray:none;stroke-opacity:1;paint-order:normal"/><path d="M-30.232-56.024a2.03 2.03 0 0 0-2.034 2.035v12.746a2.03 2.03 0 0 0 2.034 2.035h6.301a2.03 2.03 0 0 0 2.035-2.035v-12.746a2.03 2.03 0 0 0-2.035-2.035zm1.795 3.192h2.706c.484 0 .873.57.873 1.277v8.003c0 .708-.39 1.278-.873 1.278h-2.706c-.483 0-.873-.57-.873-1.278v-8.003c0-.708.39-1.277.873-1.277" style="display:inline;fill:#f1f1f1;fill-opacity:1;fill-rule:nonzero;stroke:none;stroke-width:1.17623;stroke-linecap:square;stroke-linejoin:miter;stroke-dasharray:none;stroke-opacity:1;paint-order:normal"/></g><g transform="translate(11.966 12.966)scale(.14475)"><rect width="2.993" height="16.816" x="-81.294" y="-56.025" rx=".292" ry=".292" style="fill:#f1f1f1;fill-opacity:1;fill-rule:nonzero;stroke:none;stroke-width:1.08637;stroke-linecap:square;stroke-linejoin:miter;stroke-dasharray:none;stroke-opacity:1;paint-order:normal"/><path d="M-72.367-56.024A2.03 2.03 0 0 0-74.4-53.99v12.746a2.03 2.03 0 0 0 2.034 2.035h6.301a2.03 2.03 0 0 0 2.035-2.035v-12.746a2.03 2.03 0 0 0-2.035-2.035zm1.796 3.192h2.705c.484 0 .873.57.873 1.277v8.003c0 .708-.39 1.278-.873 1.278h-2.705c-.484 0-.874-.57-.874-1.278v-8.003c0-.708.39-1.277.874-1.277" style="display:inline;fill:#f1f1f1;fill-opacity:1;fill-rule:nonzero;stroke:none;stroke-width:1.17623;stroke-linecap:square;stroke-linejoin:miter;stroke-dasharray:none;stroke-opacity:1;paint-order:normal"/><rect width="2.993" height="16.816" x="-60.26" y="-56.025" rx=".292" ry=".292" style="fill:#f1f1f1;fill-opacity:1;fill-rule:nonzero;stroke:none;stroke-width:1.08637;stroke-linecap:square;stroke-linejoin:miter;stroke-dasharray:none;stroke-opacity:1;paint-order:normal"/><path d="M-51.332-56.024a2.03 2.03 0 0 0-2.035 2.035v12.746a2.03 2.03 0 0 0 2.035 2.035h6.3a2.03 2.03 0 0 0 2.035-2.035v-12.746a2.03 2.03 0 0 0-2.034-2.035zm1.795 3.192h2.705c.484 0 .874.57.874 1.277v8.003c0 .708-.39 1.278-.874 1.278h-2.705c-.484 0-.873-.57-.873-1.278v-8.003c0-.708.39-1.277.873-1.277" style="display:inline;fill:#f1f1f1;fill-opacity:1;fill-rule:nonzero;stroke:none;stroke-width:1.17623;stroke-linecap:square;stroke-linejoin:miter;stroke-dasharray:none;stroke-opacity:1;paint-order:normal"/><rect width="2.993" height="16.816" x="-39.16" y="-56.025" rx=".292" ry=".292" style="fill:#f1f1f1;fill-opacity:1;fill-rule:nonzero;stroke:none;stroke-width:1.08637;stroke-linecap:square;stroke-linejoin:miter;stroke-dasharray:none;stroke-opacity:1;paint-order:normal"/><path d="M-30.232-56.024a2.03 2.03 0 0 0-2.034 2.035v12.746a2.03 2.03 0 0 0 2.034 2.035h6.301a2.03 2.03 0 0 0 2.035-2.035v-12.746a2.03 2.03 0 0 0-2.035-2.035zm1.795 3.192h2.706c.484 0 .873.57.873 1.277v8.003c0 .708-.39 1.278-.873 1.278h-2.706c-.483 0-.873-.57-.873-1.278v-8.003c0-.708.39-1.277.873-1.277" style="display:inline;fill:#f1f1f1;fill-opacity:1;fill-rule:nonzero;stroke:none;stroke-width:1.17623;stroke-linecap:square;stroke-linejoin:miter;stroke-dasharray:none;stroke-opacity:1;paint-order:normal"/></g></svg>