<svg xmlns="http://www.w3.org/2000/svg" xml:space="preserve" width="34" height="34" viewBox="0 0 8.996 8.996"><g style="display:inline"><path d="M-337.746.155c-4.97 0-25.436-10.203-25.436-33.512v-17.286l25.436-11.421zM-337.745.155c4.97 0 25.436-10.203 25.436-33.512v-17.286l-25.436-11.421z" style="fill:#f1f1f1;fill-opacity:1;stroke:none;stroke-width:1.5875;stroke-linecap:round;stroke-linejoin:round;stroke-dasharray:none;stroke-opacity:1" transform="translate(47.613 8.443)scale(.12766)"/></g><g style="display:inline"><path d="M-337.746.155c-4.97 0-25.436-10.203-25.436-33.512v-17.286l25.436-11.421zM-337.745.155c4.97 0 25.436-10.203 25.436-33.512v-17.286l-25.436-11.421z" style="fill:#1f1f1f;fill-opacity:1;stroke:none;stroke-width:1.5875;stroke-linecap:round;stroke-linejoin:round;stroke-dasharray:none;stroke-opacity:1" transform="translate(40.676 7.807)scale(.10712)"/></g><path d="M-337.964-30.838v21.2c-4.29 0-17.027-8.671-17.027-21.202zM-337.524-31.071v-21.267l17.018 7.74v13.527z" style="fill:#f1f1f1;fill-opacity:1;stroke:none;stroke-width:1.5875;stroke-linecap:round;stroke-linejoin:round;stroke-dasharray:none;stroke-opacity:1" transform="translate(47.613 8.443)scale(.12766)"/></svg>