<svg xmlns="http://www.w3.org/2000/svg" xml:space="preserve" width="34" height="34" viewBox="0 0 8.996 8.996"><g style="display:inline"><path d="m-337.746-62.063-25.438 11.42v17.285c0 23.309 20.469 33.514 25.438 33.514 4.97 0 25.438-10.205 25.438-33.514v-17.285zm0 5.004 21.346 9.585v14.505c0 19.558-17.176 28.118-21.346 28.118s-21.345-8.56-21.345-28.118v-14.505z" style="display:inline;fill:#f1f1f1;fill-opacity:1;stroke:none;stroke-width:1.5875;stroke-linecap:round;stroke-linejoin:round;stroke-dasharray:none;stroke-opacity:1" transform="translate(47.613 8.443)scale(.12766)"/><path d="M-337.964-30.838v21.2c-4.29 0-17.027-8.671-17.027-21.202z" style="display:inline;fill:#f1f1f1;fill-opacity:1;stroke:none;stroke-width:1.5875;stroke-linecap:round;stroke-linejoin:round;stroke-dasharray:none;stroke-opacity:1" transform="translate(47.613 8.443)scale(.12766)"/><path d="M-337.524-31.071v-21.267l17.018 7.74v13.527z" style="fill:#f1f1f1;fill-opacity:1;stroke:none;stroke-width:1.5875;stroke-linecap:round;stroke-linejoin:round;stroke-dasharray:none;stroke-opacity:1" transform="translate(47.613 8.443)scale(.12766)"/></g></svg>