<svg xmlns="http://www.w3.org/2000/svg" xml:space="preserve" width="34" height="34" viewBox="0 0 8.996 8.996"><g style="display:inline"><path d="M178.783-386.568c-47.712 0-126.702 34.156-126.702 126.447 0 92.292 77.4 127.88 126.69 127.88s69.948-22.236 69.948-22.236 2.162-2.544 4.427 0c0 0 11.049 11.327 13.558 13.558.426.378 3.037 2.505.949 5.23-.319.416-1.849 2.502-2.123 2.89-.798 1.132-1.027 2.647.151 3.919l48.933 48.886s24.288 21.966 43.8-.459-2.582-41.89-2.582-41.89-47.51-47.252-47.817-47.559c-.958-.958-2.855-1.834-4.134-.554-.348.348-2.21 2.385-2.637 2.812-2.318 2.318-5.314-1.081-5.314-1.081l-13.613-13.462c-2.719-3.067 0-5.576 0-5.576 12.268-12.826 23.03-39.7 23.03-72.429 0-86.75-78.851-126.376-126.564-126.376m-.037 17.535c60.283 0 108.413 48.304 108.413 108.848s-48.12 110.4-108.403 110.4-109.643-49.87-109.643-110.413 49.35-108.835 109.633-108.835m92.918 196.35a2.32 2.32 0 0 1 1.636.708l13.154 13.57a2.32 2.32 0 0 1-.05 3.29l-5.557 5.385a2.32 2.32 0 0 1-3.29-.052l-13.154-13.57a2.32 2.32 0 0 1 .05-3.29l5.557-5.385a2.31 2.31 0 0 1 1.654-.657m31.419 24.228c.641-.016 1.42.236 2.307 1.05 2.58 2.37 41.225 41.226 41.225 41.226s7.834 6.854-1.244 15.933c-9.079 9.078-16.02 1.38-16.02 1.38l-40.805-41.117s-2.297-2.029-.278-4.369c3.67-4.252 12.871-13.052 12.871-13.052s.72-1.019 1.944-1.05" style="display:inline;fill:#f1f1f1;fill-opacity:1;fill-rule:nonzero;stroke:none;stroke-width:9.46365;stroke-linecap:round;stroke-linejoin:round;stroke-dasharray:none;stroke-opacity:1;paint-order:normal" transform="translate(-.497 9.95)scale(.02387)"/><path d="M-323.611-12.397s-.868.04-.868 1.123v.827s.008.289-.257.413c-.264.124-1.02.409-1.02.409s-.27.147-.539-.14c-.168-.182-.574-.616-.701-.744-.057-.057-.481-.436-1.262.001-.324.182-1.193 1.02-1.197 1.025 0 0-.851.867-1.033 1.193-.438.78-.058 1.204-.001 1.261.127.127.562.533.743.702.288.268.14.538.14.538s-.284.756-.408 1.021-.414.257-.414.257h-.827c-1.083 0-1.123.868-1.123.868v3.026s.04.868 1.123.868h.827s.29-.008.414.256c.124.265.408 1.021.408 1.021s.148.27-.14.539c-.18.168-.616.574-.743.701-.057.057-.437.481 0 1.262.175.312.968 1.13 1.033 1.197h-.001s.875.848 1.2 1.03c.78.438 1.204.058 1.261 0 .127-.126.533-.562.702-.743.268-.288.538-.14.538-.14s.757.285 1.021.409c.265.124.256.414.256.414v.826c0 1.083.869 1.124.869 1.124h3.026s.868-.04.868-1.124v-.826s-.008-.29.256-.414a23 23 0 0 1 1.021-.409s.27-.148.539.14c.168.181.574.617.701.744.057.057.481.437 1.262 0 .325-.183 1.195-1.03 1.197-1.03 0 0 .849-.873 1.031-1.198.438-.781.058-1.205 0-1.262a51 51 0 0 0-.742-.701c-.288-.269-.14-.539-.14-.539s.284-.756.408-1.021.413-.256.413-.256h.827c1.083 0 1.124-.868 1.124-.868v-3.026s-.04-.868-1.124-.868h-.827s-.289.007-.413-.257c-.124-.265-.409-1.021-.409-1.021s-.147-.27.14-.538c.182-.169.617-.575.744-.702.057-.057.437-.48-.001-1.261-.18-.321-1.009-1.167-1.03-1.19 0 0-.874-.845-1.2-1.028-.78-.437-1.203-.058-1.26 0-.128.127-.533.561-.702.742-.268.288-.538.14-.538.14s-.757-.284-1.021-.408c-.265-.124-.257-.413-.257-.413v-.827c0-1.083-.868-1.123-.868-1.123h-1.513zm1.503 5.602a4.643 4.643 0 0 1 4.643 4.644 4.643 4.643 0 0 1-4.643 4.642 4.643 4.643 0 0 1-4.643-4.642 4.643 4.643 0 0 1 4.643-4.644" style="display:inline;fill:#f1f1f1;fill-opacity:1;fill-rule:nonzero;stroke:none;stroke-width:1.05833;stroke-linecap:round;stroke-linejoin:round;stroke-dasharray:none;stroke-opacity:1;paint-order:normal" transform="translate(59.71 4.11)scale(.17367)"/></g></svg>