<svg xmlns="http://www.w3.org/2000/svg" xml:space="preserve" width="34" height="34" viewBox="0 0 8.996 8.996"><g transform="translate(57.82 5.542)scale(.15738)"><path d="M-338.819-6.12c-15.294 0-16.715-6.646-16.715-6.907v-6.384s7.48 4.295 16.717 4.295c10.056 0 16.72-4.103 16.72-4.294v6.384c0 .315-1.541 6.906-16.703 6.906z" style="display:inline;fill:#f1f1f1;fill-opacity:1;stroke:none;stroke-width:1.5875;stroke-linecap:round;stroke-linejoin:round;stroke-dasharray:none;stroke-opacity:1"/><circle cx="-341.858" cy="-10.571" r="1.941" style="fill:#1f1f1f;fill-opacity:1;stroke:none;stroke-width:1.6267;stroke-linecap:round;stroke-linejoin:round;stroke-dasharray:none;stroke-opacity:1"/><circle cx="-335.636" cy="-10.571" r="1.941" style="fill:#1f1f1f;fill-opacity:1;stroke:none;stroke-width:1.6267;stroke-linecap:round;stroke-linejoin:round;stroke-dasharray:none;stroke-opacity:1"/><ellipse cx="-338.816" cy="-26.496" rx="16.718" ry="7.086" style="fill:#f1f1f1;fill-opacity:1;stroke:none;stroke-width:1.58054;stroke-linecap:round;stroke-linejoin:round;stroke-dasharray:none;stroke-opacity:1"/><g transform="translate(0 13.23)"><path d="M-338.819-6.12c-15.294 0-16.715-6.646-16.715-6.907v-6.384s7.48 4.295 16.717 4.295c10.056 0 16.72-4.103 16.72-4.294v6.384c0 .315-1.541 6.906-16.703 6.906z" style="display:inline;fill:#f1f1f1;fill-opacity:1;stroke:none;stroke-width:1.5875;stroke-linecap:round;stroke-linejoin:round;stroke-dasharray:none;stroke-opacity:1"/><circle cx="-341.858" cy="-10.571" r="1.941" style="fill:#1f1f1f;fill-opacity:1;stroke:none;stroke-width:1.6267;stroke-linecap:round;stroke-linejoin:round;stroke-dasharray:none;stroke-opacity:1"/><circle cx="-335.636" cy="-10.571" r="1.941" style="fill:#1f1f1f;fill-opacity:1;stroke:none;stroke-width:1.6267;stroke-linecap:round;stroke-linejoin:round;stroke-dasharray:none;stroke-opacity:1"/></g><g transform="translate(0 26.458)"><path d="M-338.819-6.12c-15.294 0-16.715-6.646-16.715-6.907v-6.384s7.48 4.295 16.717 4.295c10.056 0 16.72-4.103 16.72-4.294v6.384c0 .315-1.541 6.906-16.703 6.906z" style="display:inline;fill:#f1f1f1;fill-opacity:1;stroke:none;stroke-width:1.5875;stroke-linecap:round;stroke-linejoin:round;stroke-dasharray:none;stroke-opacity:1"/><circle cx="-341.858" cy="-10.571" r="1.941" style="fill:#1f1f1f;fill-opacity:1;stroke:none;stroke-width:1.6267;stroke-linecap:round;stroke-linejoin:round;stroke-dasharray:none;stroke-opacity:1"/><circle cx="-335.636" cy="-10.571" r="1.941" style="fill:#1f1f1f;fill-opacity:1;stroke:none;stroke-width:1.6267;stroke-linecap:round;stroke-linejoin:round;stroke-dasharray:none;stroke-opacity:1"/></g></g></svg>