<svg xmlns="http://www.w3.org/2000/svg" xml:space="preserve" width="34" height="34" viewBox="0 0 8.996 8.996"><path d="m5.827 7.159-.996.98s-.207.173-.393 0a61 61 0 0 1-.946-.956s-.054-.068-.091.003-.276.636-1.035.636-1.211-.57-1.211-1.221.643-1.05.643-1.05.06-.029.004-.076c-.057-.048-.93-.894-.93-.894S.664 4.316.89 4.08s.915-.94.915-.94.168-.176.23.062c.061.239.4.692.916.692s.931-.441.931-.977c0-.535-.46-.828-.65-.878-.05-.014-.245-.084-.075-.257s.91-.909.91-.909.267-.279.538 0l.864.895s.05.09.095 0c.045-.089.236-.648 1.036-.648.801 0 1.215.63 1.215 1.226s-.484.997-.621 1.076c-.069.04.012.098.012.098l.876.87s.293.215 0 .502-.942.937-.942.937-.166.129-.228-.061-.297-.695-.888-.695-.954.55-.954.99.474.815.603.845c.128.031.316.093.153.252" style="fill:#f1f1f1;fill-opacity:1;stroke:none;stroke-width:.315519;stroke-linecap:round;stroke-linejoin:round;stroke-dasharray:none;stroke-opacity:1"/></svg>