<svg xmlns="http://www.w3.org/2000/svg" xml:space="preserve" width="34" height="34" viewBox="0 0 8.996 8.996"><g style="display:inline"><path d="M-335.357-43.31a21.514 21.607 0 0 0-21.512 21.609A21.514 21.607 0 0 0-335.357-.095a21.514 21.607 0 0 0 21.515-21.606 21.514 21.607 0 0 0-21.515-21.61m.204 1.827c3.441 0 5.995 1.176 5.995 1.176l-2.38 5.762s-1.11-.63-3.624-.63c-3.024 0-6.633.925-9.516 3.775-2.131 2.107-4.055 5.35-4.055 9.604.102 3.782 1.418 5.986 1.418 5.986l-5.458 3.34s-2.398-4.596-2.398-9.358c0-3.25.998-8.202 4.592-12.475 3.277-3.895 8.846-7.18 15.426-7.18m-.204 9.362a10.374 10.42 0 0 1 10.375 10.42 10.374 10.42 0 0 1-10.375 10.419 10.374 10.42 0 0 1-10.372-10.42 10.374 10.42 0 0 1 10.372-10.419m17.25 1.258s1.592 2.317 2.174 5.71c1.113 6.484-1.184 12.531-4.468 16.42-3.604 4.265-8.315 6.086-11.518 6.636-4.694.805-9.631-.78-9.631-.78l2.371-5.945s2.395.923 6.14.384c4.193-.72 7.062-3.164 8.778-5.62 2.32-3.323 2.623-7.041 2.111-10.02-.425-2.478-1.234-3.462-1.234-3.462z" style="display:inline;fill:#f1f1f1;fill-opacity:1;stroke:#f1f1f1;stroke-width:1.59082;stroke-linecap:round;stroke-linejoin:round;stroke-dasharray:none;stroke-opacity:1" transform="translate(63.177 8.307)scale(.17498)"/></g></svg>