<svg xmlns="http://www.w3.org/2000/svg" xml:space="preserve" width="34" height="34" viewBox="0 0 8.996 8.996"><g style="display:inline" transform="translate(63.177 8.307)scale(.17498)"><ellipse cx="-335.356" cy="-21.702" rx="21.514" ry="21.607" style="display:inline;fill:#f1f1f1;fill-opacity:1;stroke:#f1f1f1;stroke-width:1.59082;stroke-linecap:round;stroke-linejoin:round;stroke-dasharray:none;stroke-opacity:1"/><ellipse cx="-335.356" cy="-21.702" rx="10.374" ry="10.419" style="display:inline;fill:#1f1f1f;fill-opacity:1;stroke:none;stroke-width:.76713;stroke-linecap:round;stroke-linejoin:round;stroke-dasharray:none;stroke-opacity:1"/><path d="m-347.315-15.809-5.457 3.34s-2.398-4.597-2.398-9.36c0-3.25.996-8.2 4.59-12.474 3.277-3.895 8.848-7.181 15.427-7.181 3.442 0 5.995 1.176 5.995 1.176l-2.381 5.763s-1.108-.63-3.622-.63c-3.023 0-6.636.927-9.518 3.776-2.131 2.107-4.054 5.35-4.054 9.603.102 3.782 1.418 5.987 1.418 5.987M-339.18-8.822l-2.37 5.943s4.937 1.586 9.631.78c3.204-.55 7.915-2.37 11.519-6.635 3.284-3.888 5.58-9.935 4.467-16.42-.582-3.391-2.174-5.708-2.174-5.708l-5.277 3.322s.81.985 1.235 3.462c.512 2.98.209 6.697-2.112 10.02-1.716 2.457-4.586 4.9-8.779 5.62-3.745.54-6.14-.384-6.14-.384" style="fill:#1f1f1f;fill-opacity:1;stroke:none;stroke-width:1.5875;stroke-linecap:round;stroke-linejoin:round;stroke-dasharray:none;stroke-opacity:1"/></g></svg>