<svg xmlns="http://www.w3.org/2000/svg" xml:space="preserve" width="34" height="34" viewBox="0 0 8.996 8.996"><path d="M-29.084-34.831c-3.625 0-4.762 2.884-4.762 4.648 0 3.517-.302 6.738-1.002 8.661-1.037 2.852-2.75 3.733-4.004 3.733v2.413c1.265-.005 2.988.968 4.012 3.678.872 2.309.998 4.694.998 9.265 0 1.042 1.135 4.17 4.76 4.17H-2.59c3.625 0 4.76-3.128 4.76-4.17 0-4.57.126-6.956.998-9.265 1.024-2.71 2.747-3.683 4.012-3.678v-2.413c-1.254 0-2.967-.881-4.004-3.733-.7-1.923-1.002-5.144-1.002-8.661 0-1.764-1.138-4.648-4.762-4.648h-13.248Zm6.407 8.553h8.064C-11.91-26.273-9-24.857-9-21.389s-3.493 4.345-3.493 4.345 4.437.647 4.437 5.055c0 5.441-6.15 5.43-6.15 5.43h-8.469zm3.009 2.476v5.985h4.857c.679 0 2.825-.773 2.825-3.18s-2.132-2.805-2.804-2.805zm0 8.216v6.52h4.857c1.535 0 3.627-.598 3.627-3.315s-2.08-3.205-3.606-3.205z" style="display:inline;fill:#f1f1f1;fill-opacity:1;fill-rule:nonzero;stroke:none;stroke-width:4.00999;stroke-linecap:round;stroke-linejoin:round;stroke-dasharray:none;stroke-opacity:1;paint-order:normal" transform="translate(7.363 7.493)scale(.18093)"/></svg>