<svg xmlns="http://www.w3.org/2000/svg" xml:space="preserve" width="34" height="34" viewBox="0 0 8.996 8.996"><g transform="translate(-.672 9.325)scale(.15439)"><path d="M29.466-56.127A11.179 11.237 0 0 0 18.288-44.89a11.179 11.237 0 0 0 11.178 11.237 11.179 11.237 0 0 0 11.18-11.237 11.179 11.237 0 0 0-11.18-11.237m0 2.86a8.334 8.378 0 0 1 8.335 8.377 8.334 8.378 0 0 1-8.335 8.379 8.334 8.378 0 0 1-8.334-8.379 8.334 8.378 0 0 1 8.334-8.378" style="display:inline;fill:#f1f1f1;fill-opacity:1;fill-rule:nonzero;stroke:none;stroke-width:.795823;stroke-linecap:square;stroke-linejoin:miter;stroke-dasharray:none;stroke-opacity:1;paint-order:normal"/><path d="M36.107-6.358h-25.83s-1.484.132-1.484-1.484v-9.207c-.132-3.085 2.197-12.465 13.494-12.465h11.58s-1.323 1.104-1.985 2.51H21.045c-3.2 0-9.796 3.304-9.796 10.29v7.547h7.32v-5.636s-.14-1.24 1.216-1.24 1.227 1.228 1.227 1.228v5.648h12.266s.63 1.104 2.83 2.809" style="display:inline;fill:#f1f1f1;fill-opacity:1;fill-rule:nonzero;stroke:none;stroke-width:.79375;stroke-linecap:square;stroke-linejoin:miter;stroke-dasharray:none;stroke-opacity:1;paint-order:normal"/><ellipse cx="45.461" cy="-19.093" rx="12.719" ry="12.723" style="display:inline;fill:#f1f1f1;fill-opacity:1;fill-rule:nonzero;stroke:none;stroke-width:.788906;stroke-linecap:square;stroke-linejoin:miter;stroke-dasharray:none;stroke-opacity:1;paint-order:normal"/><path d="m52.151-22.357-7.694 7.787-4.607-4.607" style="fill:none;fill-opacity:1;fill-rule:nonzero;stroke:#1f1f1f;stroke-width:2.64583;stroke-linecap:round;stroke-linejoin:round;stroke-dasharray:none;stroke-opacity:1;paint-order:normal"/></g></svg>