<svg xmlns="http://www.w3.org/2000/svg" xml:space="preserve" width="34" height="34" viewBox="0 0 8.996 8.996"><g style="display:inline"><path d="M-321.418-50.7a27.4 27.69 0 0 0-27.4 27.689 27.4 27.69 0 0 0 27.4 27.688 27.4 27.69 0 0 0 27.4-27.688 27.4 27.69 0 0 0-27.4-27.689m-1.572 2.936c.324-.01.296.424.296.424v10.098h-7.931c-.435 0-.455-.31-.381-.496 2.943-7.916 5.987-9.035 7.731-9.937a.7.7 0 0 1 .285-.089m3.264 0c.08-.006.185.019.32.09 1.745.9 4.79 2.02 7.733 9.936.073.185.053.496-.382.496h-7.931V-47.34s-.026-.402.26-.424m-9.855 1.197c.461-.007-.107.802-.107.802-3.916 5.841-4.187 8.523-4.187 8.523s-6.453-.012-7.218 0c-.58.006-.142-.58-.136-.592 4.514-6.197 9.889-7.997 11.145-8.576.236-.109.396-.155.503-.157m16.461 0h.04c.106.002.266.048.502.157 1.256.579 6.631 2.379 11.145 8.576.006.012.447.598-.132.592-.766-.012-7.222 0-7.222 0s-.271-2.682-4.187-8.523c0 0-.532-.761-.146-.802m-18.371 11.869h8.451c.38 0 .346.363.346.363v9.802c0 .327-.296.282-.296.282l-10.1.003c-.396-.002-.353-.64-.354-.67 0-4.303 1.115-8.426 1.294-9.167.132-.547.555-.607.659-.613m-11.601.003c2.56.002 5.295.001 7.856 0 0 0 .619-.018.403.663-.236.743-1.188 4.494-1.155 9.157-.003.15.058.624-.563.627h-9.085s-.548.076-.453-.73c.308-2.521.716-5.786 2.997-9.717m35.602 0h.024c2.561.001 5.3.002 7.86 0 2.281 3.93 2.686 7.196 2.994 9.717.095.806-.453.73-.453.73h-9.086c-.62-.003-.56-.477-.563-.627.033-4.663-.919-8.414-1.154-9.157-.19-.596.262-.657.378-.663m-12.147.004 8.427.003s.537-.015.687.61c.18.74 1.29 4.868 1.29 9.171 0 .03.042.665-.353.666l-10.1-.003s-.296.045-.296-.282v-9.802s-.035-.363.345-.363m-.089 12.92c.028-.001.046.003.046.003.012 0 10.07-.004 10.098-.003.395.001.353.64.353.67 0 4.302-1.111 8.426-1.29 9.167-.15.625-.688.613-.688.613h-8.423c-.38 0-.349-.363-.349-.363v-9.802c0-.245.169-.283.253-.285m-25.957.007h9.136c.62.003.56.48.563.63-.033 4.664.919 8.411 1.154 9.154.217.681-.402.666-.402.666-2.561 0-5.296-.001-7.857 0-2.28-3.93-2.688-7.195-2.996-9.716-.078-.655.27-.73.402-.734m12.6 0 10.097.007s.296-.049.296.278v9.802s.034.367-.346.367l-8.427-.004s-.533.015-.684-.61c-.179-.74-1.293-4.867-1.293-9.17 0-.03-.039-.668.356-.67m26.936 0h9.09s.543-.072.448.734c-.308 2.52-.712 5.786-2.993 9.716h-7.86s-.619.015-.403-.666c.236-.743 1.192-4.49 1.158-9.154.003-.15-.06-.627.56-.63m-34.946 12.94c.738.002 7.222 0 7.222 0s.27 2.683 4.186 8.524c0 0 .862 1.223-.395.645-1.257-.58-6.632-2.38-11.145-8.577-.006-.011-.448-.597.132-.591m10.468 0h7.931V1.276s.042.656-.58.334c-1.745-.901-4.79-2.017-7.732-9.933-.074-.185-.054-.5.38-.5m10.643 0h7.927c.435 0 .459.315.385.5-2.943 7.916-5.987 9.032-7.732 9.933-.622.322-.58-.334-.58-.334zm11.209.004s6.453.012 7.219 0c.579-.006.141.58.135.592-4.514 6.197-9.888 7.997-11.145 8.576s-.396-.645-.396-.645c3.916-5.84 4.187-8.523 4.187-8.523" style="display:inline;fill:#f1f1f1;fill-opacity:1;stroke:none;stroke-width:1.63728;stroke-linecap:round;stroke-linejoin:round;stroke-dasharray:none;stroke-opacity:1" transform="translate(51.115 7.828)scale(.14503)"/></g></svg>