<svg xmlns="http://www.w3.org/2000/svg" xml:space="preserve" width="34" height="34" viewBox="0 0 8.996 8.996"><g transform="translate(51.115 7.828)scale(.14503)"><ellipse cx="-321.418" cy="-23.012" rx="27.4" ry="27.689" style="display:inline;fill:#f1f1f1;fill-opacity:1;stroke:none;stroke-width:1.63728;stroke-linecap:round;stroke-linejoin:round;stroke-dasharray:none;stroke-opacity:1"/><path d="M-329.684-.299s.86 1.224-.397.645c-1.256-.578-6.632-2.38-11.145-8.578-.006-.012-.445-.596.134-.59h7.22s.273 2.682 4.188 8.523M-312.961-.296s-.86 1.224.397.645c1.256-.579 6.632-2.38 11.145-8.578.006-.012.445-.597-.134-.59-.766.011-7.22 0-7.22 0s-.273 2.682-4.188 8.523M-312.974-45.766s-.86-1.223.397-.645c1.256.58 6.632 2.381 11.145 8.579.006.011.445.596-.134.59-.766-.012-7.22 0-7.22 0s-.273-2.683-4.188-8.524M-329.687-45.766s.86-1.223-.397-.645c-1.256.58-6.632 2.381-11.145 8.579-.006.011-.445.596.134.59.766-.012 7.22 0 7.22 0s.273-2.683 4.188-8.524M-322.693-8.823V1.275s.041.657-.581.335c-1.745-.901-4.79-2.02-7.733-9.935-.073-.185-.052-.497.383-.497zM-319.984-8.823V1.275s-.041.657.582.335c1.744-.901 4.789-2.02 7.732-9.935.074-.185.052-.497-.383-.497zM-322.694-37.242v-10.097s.04-.657-.582-.336c-1.744.902-4.789 2.02-7.732 9.936-.074.185-.052.497.383.497zM-319.985-37.242v-10.097s-.041-.657.581-.336c1.745.902 4.79 2.02 7.732 9.936.074.185.052.497-.383.497zM-335.231-11.314s.62.017.403-.665c-.235-.742-1.19-4.492-1.156-9.156-.003-.15.058-.625-.562-.628h-9.087s-.546-.074-.45.732c.307 2.52.713 5.786 2.994 9.716zM-307.461-11.314s-.62.017-.403-.665c.235-.742 1.19-4.492 1.156-9.156.003-.15-.058-.625.562-.628h9.087s.546-.074.45.732c-.307 2.52-.713 5.786-2.994 9.716zM-331.462-11.314s-.535.015-.686-.61c-.179-.74-1.29-4.867-1.29-9.17 0-.03-.042-.667.353-.669l10.099.005s.297-.046.297.28v9.802s.033.364-.347.364zM-311.206-11.322s.536.014.686-.61c.18-.741 1.291-4.867 1.291-9.17 0-.03.042-.667-.353-.669l-10.1.004s-.296-.046-.296.281v9.802s-.034.364.347.364zM-335.235-34.696s.62-.017.403.664c-.236.743-1.19 4.493-1.156 9.156-.003.15.058.626-.563.629h-9.086s-.546.074-.451-.732c.308-2.521.714-5.786 2.995-9.717zM-307.465-34.696s-.62-.017-.403.664c.235.743 1.189 4.493 1.156 9.156.003.15-.058.626.562.629h9.086s.547.074.452-.732c-.308-2.521-.714-5.786-2.995-9.717zM-331.466-34.697s-.535-.014-.686.61c-.179.741-1.29 4.868-1.29 9.17 0 .03-.042.668.353.67l10.099-.005s.297.046.297-.28v-9.803s.033-.363-.347-.363zM-311.21-34.688s.536-.015.686.61c.18.74 1.291 4.867 1.291 9.17 0 .03.041.667-.353.669l-10.1-.005s-.297.046-.297-.28v-9.802s-.033-.364.348-.364z" style="fill:#1f1f1f;fill-opacity:1;stroke:none;stroke-width:1.5875;stroke-linecap:round;stroke-linejoin:round;stroke-dasharray:none;stroke-opacity:1"/></g></svg>