<svg xmlns="http://www.w3.org/2000/svg" xml:space="preserve" width="34" height="34" viewBox="0 0 8.996 8.996"><g style="display:inline"><path d="M2.546 1.148c-.61 0-1.1.49-1.1 1.1v3.975c0 .609.49 1.099 1.1 1.099H6.54c.61 0 1.1-.49 1.1-1.1V2.248c0-.609-.49-1.099-1.1-1.099zm3.381 1.57h.456v2.615a1.7 1.7 0 0 1-.733.16c-.546 0-.992-.325-.992-.96 0-.634.528-1.013 1.09-1.013.127 0 .18.011.18.011zm-2.971.213.556.994.55-.994h.482L3.786 4.16l.82 1.298h-.542l-.592-1.005-.554 1.006H2.4l.78-1.273-.758-1.253Zm2.792.974c-.152 0-.616.069-.616.605s.386.588.613.588a.6.6 0 0 0 .182-.04V3.942s-.097-.036-.179-.036" style="display:inline;fill:#f1f1f1;fill-opacity:1;fill-rule:nonzero;stroke:none;stroke-width:.888199;stroke-linecap:round;stroke-linejoin:round;stroke-dasharray:none;stroke-opacity:1;paint-order:normal" transform="matrix(1.22364 0 0 1.22363 -1.062 -.682)"/></g></svg>